SplineFontDB: 3.0
FontName: XITS-Italic
FullName: XITS Italic
FamilyName: XITS
Weight: Italic
Copyright: Copyright (c) 2001-2011 by the STI Pub Companies, consisting of the American Chemical Society, the American Institute of Physics, the American Mathematical Society, the American Physical Society, Elsevier, Inc., and The Institute of Electrical and Electronic Engineers, Inc.  Portions copyright (c) 1998-2003 by MicroPress, Inc.  Portions copyright (c) 1990 by Elsevier, Inc.  Portions copyright (c) 2009-2011 by Khaled Hosny.  All rights reserved.
Version: $version
ItalicAngle: -16.33
UnderlinePosition: -50
UnderlineWidth: 50
Ascent: 750
Descent: 250
InvalidEm: 0
LayerCount: 2
Layer: 0 0 "Back" 1
Layer: 1 0 "Fore" 0
XUID: [1021 862 584604386 1478685]
UniqueID: 4124309
FSType: 0
OS2Version: 0
OS2_WeightWidthSlopeOnly: 0
OS2_UseTypoMetrics: 1
CreationTime: 1227710416
PfmFamily: 81
TTFWeight: 400
TTFWidth: 5
LineGap: 510
VLineGap: 0
OS2TypoAscent: 750
OS2TypoAOffset: 0
OS2TypoDescent: -250
OS2TypoDOffset: 0
OS2TypoLinegap: 510
OS2WinAscent: 32
OS2WinAOffset: 1
OS2WinDescent: 150
OS2WinDOffset: 1
HheadAscent: 750
HheadAOffset: 0
HheadDescent: -250
HheadDOffset: 0
OS2SubXSize: 500
OS2SubYSize: 500
OS2SubXOff: -5
OS2SubYOff: 250
OS2SupXSize: 500
OS2SupYSize: 500
OS2SupXOff: 10
OS2SupYOff: 500
OS2StrikeYSize: 50
OS2StrikeYPos: 301
OS2CapHeight: 653
OS2XHeight: 428
OS2Vendor: 'ALIF'
Lookup: 258 0 0 "'kern' Horizontal Kerning in Latin lookup 0" { "'kern' Horizontal Kerning in Latin lookup 0 subtable"  } ['kern' ('DFLT' <'dflt' > 'latn' <'dflt' > ) ]
MarkAttachClasses: 1
DEI: 91125

StartChar: exclam
Encoding: 33 33 1
Width: 333
Flags: MW
HStem: -11 106<79 104> 647 20<241 274>
VStem: 39 106<27.5 55.5 27 57>
LayerCount: 2
Fore
SplineSet
137 177 m 1
 120 182 l 1
 161 372 169 409 191 551 c 0
 204 636 222 667 260 667 c 0
 288 667 304 650 304 616 c 0
 304 586 296 559 265 493 c 0
 219 395 197 341 137 177 c 1
145 41 m 0
 145 13 119 -11 89 -11 c 0
 59 -11 39 12 39 43 c 0
 39 71 65 95 93 95 c 0
 124 95 145 70 145 41 c 0
EndSplineSet
EndChar

StartChar: quotedbl
Encoding: 34 34 2
Width: 420
Flags: MW
HStem: 646 20<208.5 229.5 386.5 407.5>
LayerCount: 2
Fore
SplineSet
346 421 m 1
 323 421 l 1
 331 521 340 600 345 624 c 0
 351 651 374 666 399 666 c 0
 416 666 432 654 432 638 c 0
 432 622 405 549 346 421 c 1
167 421 m 1
 144 421 l 1
 152 521 161 600 166 624 c 0
 172 651 196 666 221 666 c 0
 238 666 253 654 253 638 c 0
 253 622 226 548 167 421 c 1
EndSplineSet
EndChar

StartChar: numbersign
Encoding: 35 35 3
Width: 501
Flags: MW
HStem: 0 20 213 54<13 98 2 119 180 289 13 159 371 454> 410 54<87 173 76 193 87 234 254 364 445 529>
LayerCount: 2
Fore
SplineSet
540 464 m 1
 529 410 l 1
 425 410 l 1
 371 267 l 1
 465 267 l 1
 454 213 l 1
 350 213 l 1
 271 0 l 1
 209 0 l 1
 289 213 l 1
 159 213 l 1
 80 0 l 1
 18 0 l 1
 98 213 l 1
 2 213 l 1
 13 267 l 1
 119 267 l 1
 173 410 l 1
 76 410 l 1
 87 464 l 1
 193 464 l 1
 273 676 l 1
 334 676 l 1
 254 464 l 1
 384 464 l 1
 464 676 l 1
 525 676 l 1
 445 464 l 1
 540 464 l 1
364 410 m 1
 234 410 l 1
 180 267 l 1
 310 267 l 1
 364 410 l 1
EndSplineSet
EndChar

StartChar: dollar
Encoding: 36 36 4
Width: 500
Flags: MW
HStem: 0 20
VStem: 123 78<509 531.5> 380 75<160.5 198>
LayerCount: 2
Fore
SplineSet
497 611 m 1
 469 497 l 1
 454 499 l 1
 452 573 432 610 369 633 c 1
 313 396 l 1
 430 310 455 275 455 190 c 0
 455 131 431 80 388 47 c 0
 333 5 301 0 215 0 c 1
 194 -89 l 1
 159 -89 l 1
 181 2 l 1
 123 13 68 36 32 68 c 1
 58 191 l 1
 74 194 l 1
 79 89 111 56 189 32 c 1
 258 329 l 1
 160 392 123 432 123 508 c 0
 123 555 139 586 165 614 c 0
 207 659 250 668 323 668 c 2
 341 668 l 1
 358 731 l 1
 392 731 l 1
 376 663 l 1
 423 652 465 634 497 611 c 1
336 641 m 1
 320 641 l 2
 247 641 201 588 201 532 c 0
 201 486 220 455 281 418 c 1
 336 641 l 1
289 306 m 1
 221 25 l 1
 327 34 380 82 380 169 c 0
 380 227 363 245 295 301 c 2
 289 306 l 1
EndSplineSet
EndChar

StartChar: percent
Encoding: 37 37 5
Width: 755
Flags: MW
HStem: -19 27<532 582.5 532 584> 302 28<611 638> 326 27<191 214.5> 583 26<423 460 410.5 462.5> 656 20<222 283.5>
VStem: 80 71<424 450.5 402 519.5> 340 24<518 561 518 583.5> 420 72<80 110 56.5 172.5> 682 23<162 241>
LayerCount: 2
Fore
SplineSet
705 213 m 0xdf80
 705 92 627 -19 541 -19 c 0
 473 -19 420 41 420 119 c 0
 420 226 513 330 609 330 c 0
 670 330 705 287 705 213 c 0xdf80
682 215 m 0
 682 267 657 302 619 302 c 0
 603 302 582 293 570 279 c 0
 526 232 492 144 492 76 c 0
 492 37 516 8 548 8 c 0
 617 8 682 109 682 215 c 0
640 706 m 1
 210 -18 l 1
 163 -18 l 1
 557 640 l 1
 520 597 489 583 436 583 c 0
 410 583 392 586 360 597 c 1
 363 580 364 569 364 553 c 0
 364 483 332 408 284 363 c 0
 257 337 231 326 198 326 c 0x3780
 131 326 80 385 80 463 c 0
 80 576 171 676 273 676 c 0
 294 676 306 670 333 648 c 0
 368 619 392 609 429 609 c 0
 491 609 504 617 596 706 c 1
 640 706 l 1
340 569 m 0
 340 598 336 605 315 615 c 0
 301 622 288 631 271 649 c 1
 230 629 219 619 199 586 c 0
 168 537 151 478 151 423 c 0
 151 381 174 353 208 353 c 0
 279 353 340 454 340 569 c 0
EndSplineSet
EndChar

StartChar: ampersand
Encoding: 38 38 6
Width: 778
Flags: MW
HStem: -18 49<618.5 620> -18 52<258.5 290> 634 32<458 490.5>
VStem: 76 94<123 162.5> 324 81<491 530.5> 517 69<554.5 592>
LayerCount: 2
Fore
SplineSet
712 63 m 1xbc
 723 52 l 1
 691 -1 649 -18 591 -18 c 0xbc
 547 -18 497 8 457 61 c 1
 378 -1 322 -18 258 -18 c 0x5c
 147 -18 76 38 76 135 c 0
 76 190 102 246 151 286 c 0
 187 315 230 334 331 378 c 1
 324 420 324 461 324 472 c 0
 324 589 385 666 483 666 c 0
 544 666 586 625 586 572 c 0
 586 537 567 501 530 469 c 0
 503 445 475 428 414 397 c 1
 433 296 470 209 501 160 c 1
 563 231 580 264 580 299 c 0
 580 321 569 328 529 331 c 1
 529 350 l 1
 717 350 l 1
 717 333 l 1
 667 328 657 318 606 243 c 0
 578 201 550 165 520 125 c 1
 560 58 595 31 642 31 c 0
 665 31 688 40 712 63 c 1xbc
517 572 m 0
 517 612 503 634 478 634 c 0
 438 634 405 593 405 504 c 0
 405 478 406 458 410 428 c 1
 495 481 517 522 517 572 c 0
436 93 m 1x5c
 402 136 369 218 333 345 c 1
 236 307 170 238 170 160 c 0
 170 86 219 34 298 34 c 0
 348 34 388 56 436 93 c 1x5c
EndSplineSet
EndChar

StartChar: quotesingle
Encoding: 39 39 7
Width: 214
Flags: MW
HStem: 646 20<191.5 217>
LayerCount: 2
Fore
SplineSet
155 421 m 1
 132 421 l 1
 140 521 149 603 155 627 c 0
 160 649 177 666 206 666 c 0
 228 666 241 651 241 635 c 0
 241 619 214 548 155 421 c 1
EndSplineSet
EndChar

StartChar: parenleft
Encoding: 40 40 8
Width: 333
Flags: MW
HStem: 649 20<302 302>
VStem: 42 69<116 187 36.5 231.5>
LayerCount: 2
Fore
SplineSet
302 669 m 1
 315 654 l 1
 163 510 111 289 111 85 c 0
 111 -12 122 -73 159 -175 c 1
 141 -181 l 1
 77 -78 42 52 42 180 c 0
 42 283 64 385 116 470 c 0
 155 533 210 585 302 669 c 1
EndSplineSet
EndChar

StartChar: parenright
Encoding: 41 41 9
Width: 333
Flags: MW
HStem: 649 20<190 190>
VStem: 220 69<253.5 452>
LayerCount: 2
Fore
SplineSet
171 664 m 1
 190 669 l 1
 237 585 253 546 270 472 c 0
 282 416 289 358 289 304 c 0
 289 203 261 108 211 22 c 0
 172 -45 120 -101 29 -180 c 1
 16 -165 l 1
 100 -76 137 -9 171 97 c 0
 202 193 220 308 220 402 c 0
 220 502 205 583 171 664 c 1
EndSplineSet
EndChar

StartChar: asterisk
Encoding: 42 42 10
Width: 500
Flags: MW
HStem: 646 20<297.5 321.5>
LayerCount: 2
Fore
SplineSet
328 459 m 1
 365 440 l 2
 377 434 396 424 428 420 c 0
 473 414 492 399 492 376 c 0
 492 351 476 339 454 339 c 0
 439 339 427 348 408 371 c 0
 382 404 368 411 337 433 c 2
 319 446 l 1
 320 393 324 371 339 329 c 0
 345 311 347 304 347 295 c 0
 347 271 338 255 310 255 c 0
 284 255 273 271 273 293 c 0
 273 302 276 313 283 334 c 0
 296 370 301 395 301 446 c 1
 298 443 294 441 285 436 c 0
 254 417 242 408 214 373 c 0
 197 352 180 340 163 340 c 0
 144 340 128 351 128 372 c 0
 128 396 147 413 190 420 c 0
 237 428 251 434 294 460 c 1
 282 467 l 2
 265 477 231 494 189 499 c 0
 148 504 128 519 128 543 c 0
 128 563 141 582 161 582 c 0
 177 582 190 574 210 551 c 0
 243 514 262 498 301 475 c 1
 301 518 297 536 283 582 c 0
 277 602 275 615 275 624 c 0
 275 649 285 666 310 666 c 0
 333 666 346 648 346 625 c 0
 346 614 342 601 335 577 c 0
 325 545 319 520 319 473 c 1
 363 502 365 504 419 561 c 0
 434 578 444 582 457 582 c 0
 480 582 492 565 492 543 c 0
 492 521 478 505 435 500 c 0
 388 494 371 486 328 459 c 1
EndSplineSet
EndChar

StartChar: plus
Encoding: 43 43 11
Width: 675
Flags: MW
HStem: 0 20 220 66<86 305 86 305 371 590>
VStem: 305 66<0 220 0 220 286 506>
LayerCount: 2
Fore
SplineSet
590 220 m 1
 371 220 l 1
 371 0 l 1
 305 0 l 1
 305 220 l 1
 86 220 l 1
 86 286 l 1
 305 286 l 1
 305 506 l 1
 371 506 l 1
 371 286 l 1
 590 286 l 1
 590 220 l 1
EndSplineSet
EndChar

StartChar: comma
Encoding: 44 44 12
Width: 250
Flags: MW
VStem: 71 64<-34.5 47>
LayerCount: 2
Fore
SplineSet
5 -129 m 1
 -5 -111 l 1
 48 -77 71 -48 71 -21 c 0
 71 -11 67 -4 51 8 c 0
 31 23 26 38 26 57 c 0
 26 81 48 101 77 101 c 0
 113 101 135 67 135 27 c 0
 135 -29 89 -85 5 -129 c 1
EndSplineSet
EndChar

StartChar: hyphen
Encoding: 45 45 13
Width: 333
Flags: MW
HStem: 192 63<63 269 49 282>
LayerCount: 2
Fore
SplineSet
282 255 m 1
 269 192 l 1
 49 192 l 1
 63 255 l 1
 282 255 l 1
EndSplineSet
EndChar

StartChar: period
Encoding: 46 46 14
Width: 250
Flags: MW
HStem: -11 111<67 96>
VStem: 27 111<28.5 58.5 28 59>
LayerCount: 2
Fore
SplineSet
138 43 m 0
 138 13 112 -11 80 -11 c 0
 52 -11 27 14 27 43 c 0
 27 75 52 100 82 100 c 0
 112 100 138 74 138 43 c 0
EndSplineSet
EndChar

StartChar: slash
Encoding: 47 47 15
Width: 278
Flags: MW
HStem: -18 20 646 20<313 386 386 386>
LayerCount: 2
Fore
SplineSet
386 666 m 1
 8 -18 l 1
 -65 -18 l 1
 313 666 l 1
 386 666 l 1
EndSplineSet
EndChar

StartChar: zero
Encoding: 48 48 16
Width: 500
Flags: MW
HStem: -7 28<168 211> 648 28<311.5 364>
VStem: 32 79<146.5 209.5 113.5 333.5> 418 79<453 506 351.5 558>
LayerCount: 2
Fore
SplineSet
497 425 m 0
 497 278 419 109 316 36 c 0
 275 7 232 -7 190 -7 c 0
 88 -7 32 77 32 216 c 0
 32 451 181 676 338 676 c 0
 440 676 497 587 497 425 c 0
418 518 m 0
 418 598 394 648 334 648 c 0
 289 648 250 618 214 553 c 0
 162 459 111 263 111 156 c 0
 111 71 144 21 192 21 c 0
 238 21 284 55 321 121 c 0
 379 223 418 388 418 518 c 0
EndSplineSet
EndChar

StartChar: one
Encoding: 49 49 17
Width: 500
Flags: MW
HStem: 0 20
LayerCount: 2
Fore
SplineSet
401 676 m 1
 404 676 l 2
 407 676 409 673 409 669 c 0
 409 664 407 654 403 640 c 2
 260 121 l 2
 253 96 242 57 242 47 c 0
 242 24 264 15 308 15 c 2
 329 15 l 1
 329 0 l 1
 50 0 l 1
 50 15 l 1
 129 21 151 32 162 70 c 2
 298 558 l 2
 303 577 306 587 306 594 c 0
 306 613 293 625 271 625 c 2
 268 625 l 2
 250 625 228 624 209 623 c 1
 209 638 l 1
 232 643 l 2
 320 662 324 660 401 676 c 1
EndSplineSet
EndChar

StartChar: two
Encoding: 50 50 18
Width: 500
Flags: MW
HStem: 0 76<115 296 296 325.5 115 366> 603 73<267 286.5>
VStem: 366 86<473.5 516.5>
LayerCount: 2
Fore
SplineSet
101 507 m 1
 80 514 l 1
 104 573 127 607 162 634 c 0
 201 664 244 676 290 676 c 0
 386 676 452 602 452 507 c 0
 452 440 421 394 303 273 c 2
 115 81 l 1
 115 76 l 1
 296 76 l 2
 355 76 375 91 399 141 c 1
 416 134 l 1
 366 0 l 1
 12 0 l 1
 12 17 l 1
 222 241 l 2
 288 311 333 374 357 428 c 0
 363 441 366 460 366 482 c 0
 366 551 326 603 247 603 c 0
 187 603 136 574 101 507 c 1
EndSplineSet
EndChar

StartChar: three
Encoding: 51 51 19
Width: 500
Flags: MW
HStem: -7 38<91 210.5> 634 42<296 316.5>
VStem: 325 80<214.5 257> 378 87<522 570.5>
LayerCount: 2
Fore
SplineSet
178 567 m 1xd0
 162 572 l 1
 195 644 259 676 333 676 c 0
 411 676 465 626 465 554 c 0xd0
 465 480 424 441 310 401 c 1
 310 398 l 1
 378 372 405 327 405 254 c 0
 405 175 369 105 312 55 c 0
 263 12 199 -7 127 -7 c 0
 55 -7 16 17 16 50 c 0
 16 75 33 93 59 93 c 0
 78 93 96 87 123 63 c 0
 149 40 175 31 194 31 c 0
 227 31 262 49 287 77 c 1
 313 108 325 156 325 203 c 0xe0
 325 311 261 361 165 361 c 2
 141 361 l 1
 141 377 l 1
 231 393 273 407 316 437 c 0
 358 466 378 501 378 543 c 0
 378 598 343 634 290 634 c 0
 247 634 214 614 178 567 c 1xd0
EndSplineSet
EndChar

StartChar: four
Encoding: 52 52 20
Width: 500
Flags: MW
HStem: 0 20 178 63<65 263 358 440 65 339>
LayerCount: 2
Fore
SplineSet
479 676 m 1
 358 241 l 1
 454 241 l 1
 440 178 l 1
 339 178 l 1
 293 0 l 1
 214 0 l 1
 263 178 l 1
 1 178 l 1
 21 245 l 1
 438 676 l 1
 479 676 l 1
373 563 m 1
 369 563 l 1
 65 245 l 1
 65 241 l 1
 277 241 l 1
 373 563 l 1
EndSplineSet
EndChar

StartChar: five
Encoding: 53 53 21
Width: 500
Flags: MW
HStem: -7 42<161 203.5> 595 71<238 468 238 238>
VStem: 350 69<201.5 272.5>
LayerCount: 2
Fore
SplineSet
491 666 m 1
 468 595 l 1
 238 595 l 1
 199 507 l 1
 331 482 419 419 419 284 c 0
 419 119 286 -7 121 -7 c 0
 62 -7 15 10 15 50 c 0
 15 73 32 92 55 92 c 0
 71 92 87 84 111 64 c 0
 137 43 147 35 175 35 c 0
 265 35 350 134 350 246 c 0
 350 299 329 345 297 371 c 0
 261 400 225 418 131 432 c 1
 131 448 l 1
 235 666 l 1
 491 666 l 1
EndSplineSet
EndChar

StartChar: six
Encoding: 54 54 22
Width: 500
Flags: MW
HStem: -7 26<176 227 176 278> 411 36<281 291>
VStem: 30 76<142.5 186.5 109 275.5> 373 89<256 322 195.5 325>
LayerCount: 2
Fore
SplineSet
521 686 m 1
 521 670 l 1
 401 654 269 555 199 428 c 1
 203 426 l 1
 229 442 267 447 295 447 c 0
 387 447 462 373 462 271 c 0
 462 120 348 -7 208 -7 c 0
 88 -7 30 77 30 208 c 0
 30 343 98 477 214 568 c 0
 308 642 379 669 521 686 c 1
373 289 m 0
 373 361 326 411 256 411 c 0
 217 411 182 392 158 355 c 0
 128 309 106 223 106 150 c 0
 106 68 148 19 204 19 c 0
 250 19 283 41 315 88 c 0
 350 140 373 223 373 289 c 0
EndSplineSet
EndChar

StartChar: seven
Encoding: 55 55 23
Width: 500
Flags: MW
HStem: -8 20 593 73<196 229 229 444>
LayerCount: 2
Fore
SplineSet
537 656 m 1
 149 -8 l 1
 79 -8 l 1
 446 590 l 1
 444 593 l 1
 229 593 l 2
 163 593 138 577 90 520 c 1
 75 530 l 1
 157 666 l 1
 530 666 l 1
 537 656 l 1
EndSplineSet
EndChar

StartChar: eight
Encoding: 56 56 24
Width: 500
Flags: MW
HStem: -7 22<203 276.5 203 291> 653 23<286 350>
VStem: 30 68<108 192.5 108 208> 138 78<524 572> 369 75<125.5 183.5> 425 68<502.5 565.5>
LayerCount: 2
Fore
SplineSet
225 360 m 1xe8
 225 361 l 1
 159 434 138 470 138 524 c 0
 138 620 213 676 320 676 c 0
 427 676 493 621 493 540 c 0xd4
 493 462 449 418 329 382 c 1
 329 381 l 1
 415 302 444 254 444 181 c 0
 444 70 353 -7 229 -7 c 0
 127 -7 30 42 30 161 c 0
 30 255 105 325 225 360 c 1xe8
425 530 m 0
 425 601 382 653 318 653 c 0
 254 653 216 610 216 545 c 0
 216 503 233 472 311 399 c 1
 398 440 425 475 425 530 c 0
369 155 m 0xe8
 369 212 357 230 247 344 c 1
 157 310 98 236 98 149 c 0
 98 67 169 15 237 15 c 0
 316 15 369 86 369 155 c 0xe8
EndSplineSet
EndChar

StartChar: nine
Encoding: 57 57 25
Width: 500
Flags: MW
HStem: -17 20 229 46<225 239.5> 650 26<294.5 349>
VStem: 69 88<369.5 445.5 369.5 448> 417 75<481 524 388.5 559.5>
LayerCount: 2
Fore
SplineSet
352 272 m 1
 348 274 l 1
 295 241 260 229 219 229 c 0
 131 229 69 303 69 408 c 0
 69 488 106 568 162 619 c 0
 204 657 257 676 311 676 c 0
 428 676 492 590 492 458 c 0
 492 319 423 187 300 92 c 0
 220 30 155 5 23 -17 c 1
 23 2 l 1
 102 19 150 44 224 105 c 0
 288 158 336 227 352 272 c 1
417 518 m 0
 417 601 380 650 318 650 c 0
 271 650 238 626 210 589 c 0
 176 544 157 477 157 414 c 0
 157 325 193 275 257 275 c 0
 297 275 340 293 365 321 c 0
 393 351 417 444 417 518 c 0
EndSplineSet
EndChar

StartChar: colon
Encoding: 58 58 26
Width: 333
Flags: MW
HStem: -11 111<90.5 120> 330 111<189.5 220>
VStem: 50 111<28.5 58.5> 150 111<369 400>
LayerCount: 2
Fore
SplineSet
261 384 m 0xd0
 261 354 236 330 204 330 c 0
 174 330 150 354 150 384 c 0
 150 416 174 441 205 441 c 0
 236 441 261 416 261 384 c 0xd0
161 43 m 0xe0
 161 13 136 -11 104 -11 c 0
 75 -11 50 14 50 43 c 0
 50 74 75 100 106 100 c 0
 136 100 161 74 161 43 c 0xe0
EndSplineSet
EndChar

StartChar: semicolon
Encoding: 59 59 27
Width: 333
Flags: MW
HStem: 330 111<189.5 220>
VStem: 102 64<-34.5 47> 150 111<369 400>
LayerCount: 2
Fore
SplineSet
261 384 m 0xa0
 261 354 236 330 204 330 c 0
 174 330 150 354 150 384 c 0
 150 416 174 441 205 441 c 0
 236 441 261 416 261 384 c 0xa0
36 -129 m 1xc0
 26 -111 l 1
 79 -77 102 -48 102 -21 c 0
 102 -11 98 -4 82 8 c 0
 62 23 57 38 57 57 c 0
 57 81 79 101 108 101 c 0
 144 101 166 67 166 27 c 0
 166 -29 120 -85 36 -129 c 1xc0
EndSplineSet
EndChar

StartChar: less
Encoding: 60 60 28
Width: 675
Flags: MW
HStem: -10 20
LayerCount: 2
Fore
SplineSet
592 -10 m 1
 84 220 l 1
 84 286 l 1
 592 516 l 1
 592 444 l 1
 172 253 l 1
 592 62 l 1
 592 -10 l 1
EndSplineSet
EndChar

StartChar: equal
Encoding: 61 61 29
Width: 675
Flags: MW
HStem: 120 66<86 590 86 590> 320 66<86 590 86 590>
LayerCount: 2
Fore
SplineSet
590 320 m 1
 86 320 l 1
 86 386 l 1
 590 386 l 1
 590 320 l 1
590 120 m 1
 86 120 l 1
 86 186 l 1
 590 186 l 1
 590 120 l 1
EndSplineSet
EndChar

StartChar: greater
Encoding: 62 62 30
Width: 675
Flags: MW
HStem: -10 20
LayerCount: 2
Fore
SplineSet
592 220 m 1
 84 -10 l 1
 84 62 l 1
 504 253 l 1
 84 444 l 1
 84 516 l 1
 592 286 l 1
 592 220 l 1
EndSplineSet
EndChar

StartChar: question
Encoding: 63 63 31
Width: 500
Flags: MW
HStem: -12 105<169.5 198> 642 22<296 343.5>
VStem: 132 105<24 52.5 24 54.5> 184 64<540 609> 398 74<534 581.5 509.5 582>
LayerCount: 2
Fore
SplineSet
216 174 m 1xd8
 198 177 l 1
 216 277 226 308 314 396 c 0
 379 461 398 508 398 560 c 0
 398 604 369 642 318 642 c 0
 274 642 248 624 248 594 c 0
 248 586 250 580 256 567 c 0
 261 556 262 550 262 542 c 0
 262 526 244 506 220 506 c 0
 196 506 184 525 184 555 c 0
 184 619 241 664 319 664 c 0
 417 664 472 623 472 540 c 0
 472 479 457 443 341 356 c 0
 267 301 237 259 223 202 c 2
 216 174 l 1xd8
237 38 m 0xe0
 237 10 212 -12 184 -12 c 0xd0
 154 -12 132 8 132 38 c 0xe0
 132 71 155 93 184 93 c 0xd0
 213 93 237 67 237 38 c 0xe0
EndSplineSet
EndChar

StartChar: at
Encoding: 64 64 32
Width: 920
Flags: MW
HStem: -18 39<400 509.5> 138 33<626 668.5 626 671.5> 139 42<432.5 433> 456 45<517.5 534.5 458.5 544.5> 635 31<397.5 557>
VStem: 118 83<231 412 231 415.5> 321 71<239 290.5 239 296> 766 40<318 443>
LayerCount: 2
Fore
SplineSet
686 68 m 1xdf
 698 39 l 1
 604 -5 545 -18 474 -18 c 0
 274 -18 118 129 118 319 c 0
 118 512 278 666 481 666 c 0
 681 666 806 525 806 373 c 0
 806 245 721 138 622 138 c 0xcf
 575 138 543 164 533 210 c 1
 499 164 454 139 412 139 c 0x27
 362 139 321 181 321 244 c 0
 321 348 398 501 519 501 c 0
 550 501 574 486 587 449 c 1
 597 486 l 1
 666 486 l 1
 605 250 l 2
 599 227 598 216 598 211 c 0
 598 184 614 171 638 171 c 0
 699 171 766 264 766 372 c 0
 766 514 635 635 479 635 c 0
 316 635 201 506 201 318 c 0
 201 144 314 21 486 21 c 0
 552 21 609 33 686 68 c 1xdf
570 394 m 0x37
 570 431 559 456 530 456 c 0
 505 456 466 436 439 401 c 0
 410 363 392 316 392 265 c 0
 392 213 414 181 451 181 c 0
 508 181 570 291 570 394 c 0x37
EndSplineSet
EndChar

StartChar: A
Encoding: 65 65 33
Width: 611
Flags: MW
HStem: 0 20 226 36<175 369 175 374 154 369> 648 20<368 394 394 394>
LayerCount: 2
Fore
SplineSet
564 0 m 1
 319 0 l 1
 319 16 l 1
 382 19 396 35 396 69 c 0
 396 77 395 86 394 95 c 2
 374 226 l 1
 154 226 l 1
 95 115 l 2
 81 89 73 65 73 49 c 0
 73 30 88 18 135 16 c 1
 135 0 l 1
 -51 0 l 1
 -51 16 l 1
 -5 25 8 42 83 172 c 2
 368 668 l 1
 394 668 l 1
 486 115 l 2
 500 31 511 20 564 16 c 1
 564 0 l 1
369 262 m 1
 324 525 l 1
 175 262 l 1
 369 262 l 1
EndSplineSet
EndChar

StartChar: B
Encoding: 66 66 34
Width: 611
Flags: MW
HStem: 0 30<217 264> 623 30<350.5 380 380 410.5>
LayerCount: 2
Fore
SplineSet
130 653 m 1
 380 653 l 2
 519 653 588 602 588 503 c 0
 588 449 560 414 524 390 c 0
 493 369 456 360 413 351 c 1
 413 350 l 1
 499 324 539 271 539 200 c 0
 539 66 426 0 264 0 c 2
 -8 0 l 1
 -8 16 l 1
 47 24 58 34 75 96 c 2
 196 532 l 2
 203 557 207 581 207 596 c 0
 207 625 193 632 130 637 c 1
 130 653 l 1
248 363 m 1
 286 363 l 2
 417 363 487 416 487 515 c 0
 487 589 451 623 370 623 c 0
 331 623 321 623 311 587 c 2
 248 363 l 1
238 331 m 1
 206 212 l 2
 186 136 171 85 171 72 c 0
 171 44 196 30 238 30 c 0
 353 30 431 89 431 200 c 0
 431 262 402 306 364 319 c 0
 344 326 301 331 238 331 c 1
EndSplineSet
EndChar

StartChar: C
Encoding: 67 67 35
Width: 667
Flags: MW
HStem: -18 45<297.5 378.5> 630 36<448 488.5 432.5 529>
LayerCount: 2
Fore
SplineSet
689 664 m 1
 652 464 l 1
 634 467 l 1
 622 574 573 630 485 630 c 0
 411 630 341 592 286 533 c 0
 214 456 178 342 178 232 c 0
 178 92 242 27 353 27 c 0
 435 27 495 56 582 146 c 1
 600 131 l 1
 510 25 430 -18 327 -18 c 0
 174 -18 66 78 66 243 c 0
 66 384 143 515 253 593 c 0
 317 639 393 666 472 666 c 0
 505 666 547 664 589 649 c 0
 609 642 621 642 630 642 c 0
 650 642 660 648 668 664 c 1
 689 664 l 1
EndSplineSet
EndChar

StartChar: D
Encoding: 68 68 36
Width: 722
Flags: MW
HStem: 0 30<215 249> 623 30<361 408 408 409>
LayerCount: 2
Fore
SplineSet
131 653 m 1
 408 653 l 2
 583 653 700 559 700 384 c 0
 700 260 638 159 540 83 c 0
 467 26 366 0 249 0 c 2
 -8 0 l 1
 -8 16 l 1
 48 26 58 33 74 92 c 2
 196 537 l 2
 203 562 207 581 207 596 c 0
 207 623 192 635 131 637 c 1
 131 653 l 1
310 584 m 2
 192 162 l 2
 175 100 170 80 170 67 c 0
 170 41 192 30 238 30 c 0
 339 30 417 60 479 120 c 0
 550 189 589 307 589 408 c 0
 589 488 560 551 511 588 c 0
 480 611 438 623 380 623 c 0
 342 623 320 619 310 584 c 2
EndSplineSet
EndChar

StartChar: E
Encoding: 69 69 37
Width: 611
Flags: MW
HStem: 0 33<227 304 227 506> 325 36<253 322 244 331> 620 33<363.5 470.5>
LayerCount: 2
Fore
SplineSet
634 653 m 1
 603 499 l 1
 581 501 l 1
 583 518 584 534 584 547 c 0
 584 607 549 620 392 620 c 0
 335 620 325 616 319 594 c 2
 253 361 l 1
 331 361 l 2
 421 361 432 373 470 458 c 1
 488 454 l 1
 420 222 l 1
 400 227 l 1
 405 249 407 261 407 279 c 0
 407 296 405 305 400 310 c 0
 389 320 362 325 322 325 c 2
 244 325 l 1
 212 213 l 2
 187 125 176 79 176 67 c 0
 176 43 199 33 255 33 c 0
 353 33 407 45 458 72 c 0
 490 89 514 117 552 170 c 1
 568 162 l 1
 506 0 l 1
 -1 0 l 1
 -1 16 l 1
 55 26 64 32 80 90 c 2
 203 532 l 2
 209 552 214 584 214 596 c 0
 214 623 199 631 137 637 c 1
 137 653 l 1
 634 653 l 1
EndSplineSet
EndChar

StartChar: F
Encoding: 70 70 38
Width: 611
Flags: MW
HStem: 0 20 620 33<373 484>
LayerCount: 2
Fore
SplineSet
645 653 m 1
 613 499 l 1
 592 501 l 1
 595 523 595 528 595 534 c 0
 595 607 572 620 396 620 c 0
 350 620 335 614 328 588 c 2
 264 361 l 1
 432 363 435 365 480 455 c 1
 498 450 l 1
 422 215 l 1
 405 220 l 1
 411 251 413 265 413 281 c 0
 413 321 385 325 338 325 c 0
 316 325 292 326 255 328 c 1
 196 115 l 2
 189 90 182 70 182 55 c 0
 182 31 200 20 259 16 c 1
 259 0 l 1
 8 0 l 1
 8 16 l 1
 66 20 76 42 91 94 c 2
 214 536 l 2
 221 561 224 581 224 597 c 0
 224 625 214 631 148 637 c 1
 148 653 l 1
 645 653 l 1
EndSplineSet
EndChar

StartChar: G
Encoding: 71 71 39
Width: 722
Flags: MW
HStem: -18 37<299.5 383> 632 34<423.5 475.5 415.5 494>
LayerCount: 2
Fore
SplineSet
722 319 m 1
 722 303 l 1
 657 299 640 288 625 231 c 2
 576 44 l 1
 499 1 427 -18 339 -18 c 0
 252 -18 177 7 126 58 c 0
 79 106 52 183 52 251 c 0
 52 392 127 519 235 594 c 0
 300 639 376 666 455 666 c 0
 496 666 545 659 589 642 c 0
 612 633 622 632 633 632 c 0
 659 632 676 642 693 666 c 1
 708 661 l 1
 659 464 l 1
 641 467 l 1
 639 510 626 546 604 573 c 0
 573 611 525 632 463 632 c 0
 384 632 316 594 268 533 c 0
 203 450 162 339 162 228 c 0
 162 97 235 19 364 19 c 0
 409 19 447 31 469 53 c 0
 481 65 486 77 508 154 c 0
 528 221 534 245 534 267 c 0
 534 285 520 297 487 300 c 2
 455 303 l 1
 455 319 l 1
 722 319 l 1
EndSplineSet
EndChar

StartChar: H
Encoding: 72 72 40
Width: 722
Flags: MW
HStem: 0 20 326 42<248 521 236 533> 633 20<131 402 402 402 521 769 769 769>
LayerCount: 2
Fore
SplineSet
769 653 m 1
 769 637 l 1
 712 627 701 621 685 563 c 2
 553 82 l 2
 551 74 550 66 550 58 c 0
 550 30 564 23 629 16 c 1
 629 0 l 1
 355 0 l 1
 355 16 l 1
 426 21 444 44 457 93 c 2
 521 326 l 1
 236 326 l 1
 170 82 l 2
 168 75 167 67 167 60 c 0
 167 31 177 24 237 16 c 1
 237 0 l 1
 -8 0 l 1
 -8 16 l 1
 48 22 60 37 78 102 c 2
 196 532 l 2
 203 559 208 581 208 596 c 0
 208 625 194 631 131 637 c 1
 131 653 l 1
 402 653 l 1
 402 637 l 1
 342 633 315 614 302 566 c 2
 248 368 l 1
 533 368 l 1
 579 532 l 2
 586 558 593 579 593 595 c 0
 593 619 577 633 521 637 c 1
 521 653 l 1
 769 653 l 1
EndSplineSet
EndChar

StartChar: I
Encoding: 73 73 41
Width: 333
Flags: MW
HStem: 0 20 633 20<137 384 384 384>
LayerCount: 2
Fore
SplineSet
384 653 m 1
 384 637 l 1
 328 630 319 621 302 560 c 2
 182 131 l 2
 173 99 167 75 167 55 c 0
 167 27 179 23 236 16 c 1
 236 0 l 1
 -8 0 l 1
 -8 16 l 1
 47 26 61 35 76 91 c 2
 196 532 l 2
 203 557 209 578 209 594 c 0
 209 619 193 634 137 637 c 1
 137 653 l 1
 384 653 l 1
EndSplineSet
EndChar

StartChar: J
Encoding: 74 74 42
Width: 444
Flags: MW
HStem: -18 32<110 134 110 136.5> 633 20<237 491 491 491>
VStem: -6 93<43.5 57.5 39 86>
LayerCount: 2
Fore
SplineSet
491 653 m 1
 491 637 l 1
 434 629 426 623 409 563 c 2
 306 196 l 2
 285 120 261 71 235 37 c 0
 206 -1 162 -18 111 -18 c 0
 41 -18 -6 17 -6 70 c 0
 -6 102 12 126 39 126 c 0
 66 126 90 105 90 80 c 0
 90 68 87 62 87 53 c 0
 87 25 98 14 122 14 c 0
 146 14 164 38 175 78 c 2
 302 532 l 2
 310 561 314 581 314 596 c 0
 314 623 300 631 237 637 c 1
 237 653 l 1
 491 653 l 1
EndSplineSet
EndChar

StartChar: K
Encoding: 75 75 43
Width: 667
Flags: MW
HStem: 0 20 633 20<147 417 417 417 501 722 722 722>
LayerCount: 2
Fore
SplineSet
722 653 m 1
 722 637 l 1
 697 637 674 622 645 600 c 2
 347 375 l 1
 515 82 l 2
 546 28 556 22 619 16 c 1
 619 0 l 1
 344 0 l 1
 344 16 l 1
 373 19 l 2
 404 22 419 34 419 51 c 0
 419 72 400 101 382 133 c 2
 259 348 l 1
 194 111 l 2
 186 83 183 71 183 60 c 0
 183 29 199 21 254 16 c 1
 254 0 l 1
 7 0 l 1
 7 16 l 1
 67 23 73 34 88 87 c 2
 212 532 l 2
 219 557 226 578 226 594 c 0
 226 621 209 634 147 637 c 1
 147 653 l 1
 417 653 l 1
 417 637 l 1
 365 633 333 619 318 563 c 2
 265 369 l 1
 418 478 l 2
 507 541 561 591 561 615 c 0
 561 626 549 631 525 634 c 2
 501 637 l 1
 501 653 l 1
 722 653 l 1
EndSplineSet
EndChar

StartChar: L
Encoding: 76 76 44
Width: 556
Flags: MW
HStem: 0 36<236 327 236 501> 633 20<130 403 403 403>
LayerCount: 2
Fore
SplineSet
559 180 m 1
 501 0 l 1
 -8 0 l 1
 -8 16 l 1
 48 22 56 31 74 94 c 2
 196 532 l 2
 204 559 207 579 207 594 c 0
 207 623 192 633 130 637 c 1
 130 653 l 1
 403 653 l 1
 403 637 l 1
 343 633 318 617 302 560 c 2
 182 131 l 2
 176 108 172 91 172 77 c 0
 172 46 195 36 277 36 c 0
 377 36 408 41 457 74 c 0
 489 95 511 128 539 186 c 1
 559 180 l 1
EndSplineSet
EndChar

StartChar: M
Encoding: 77 77 45
Width: 833
Flags: MW
HStem: 0 20 633 20<134 315 315 315 706 872 872 872>
LayerCount: 2
Fore
SplineSet
872 653 m 1
 872 637 l 1
 815 628 805 614 791 563 c 2
 668 120 l 2
 661 95 654 74 654 58 c 0
 654 32 672 18 735 16 c 1
 734 0 l 1
 463 0 l 1
 463 16 l 1
 528 23 548 40 565 102 c 2
 691 561 l 1
 315 0 l 1
 298 0 l 1
 236 546 l 1
 118 118 l 2
 113 100 109 75 109 64 c 0
 109 36 128 20 179 16 c 1
 179 0 l 1
 -18 0 l 1
 -18 16 l 1
 34 22 50 38 82 150 c 2
 196 551 l 2
 204 578 208 595 208 603 c 0
 208 622 184 634 134 637 c 1
 134 653 l 1
 315 653 l 1
 371 161 l 1
 706 653 l 1
 872 653 l 1
EndSplineSet
EndChar

StartChar: N
Encoding: 78 78 46
Width: 667
Flags: MW
HStem: -15 20 0 20 633 20<117 277 277 277 529 727 727 727>
LayerCount: 2
Fore
SplineSet
727 653 m 1x60
 727 637 l 1
 664 623 662 621 625 492 c 2
 479 -15 l 1
 461 -15 l 1xa0
 231 535 l 1
 117 113 l 2
 111 92 108 72 108 59 c 0
 108 31 126 20 178 16 c 1
 178 0 l 1
 -20 0 l 1
 -20 16 l 1
 36 24 50 40 86 168 c 2
 203 583 l 1
 188 618 164 637 117 637 c 1
 117 653 l 1
 277 653 l 1
 484 154 l 1
 590 542 l 2
 596 563 598 574 598 586 c 0
 598 622 586 632 529 637 c 1
 529 653 l 1
 727 653 l 1x60
EndSplineSet
EndChar

StartChar: O
Encoding: 79 79 47
Width: 722
Flags: MW
HStem: -18 33<253 315> 633 33<431.5 474 431.5 505>
LayerCount: 2
Fore
SplineSet
699 418 m 0
 699 272 611 133 492 53 c 0
 427 9 352 -18 278 -18 c 0
 148 -18 60 67 60 216 c 0
 60 338 133 478 237 569 c 0
 306 629 389 666 474 666 c 0
 618 667 699 570 699 418 c 0
594 481 m 0
 594 575 545 633 465 633 c 0
 391 633 328 582 279 516 c 0
 206 417 165 284 165 184 c 0
 165 75 211 15 295 15 c 0
 362 15 419 54 465 110 c 0
 549 214 594 379 594 481 c 0
EndSplineSet
EndChar

StartChar: P
Encoding: 80 80 48
Width: 611
Flags: MW
HStem: 0 20 305 37<311 334 294 376.5> 623 30<358 387 387 413>
LayerCount: 2
Fore
SplineSet
146 653 m 1
 387 653 l 2
 534 653 605 601 605 505 c 0
 605 451 578 396 537 362 c 0
 491 324 421 305 332 305 c 0
 290 305 268 307 242 313 c 1
 189 120 l 2
 182 93 175 72 175 57 c 0
 175 34 190 22 244 16 c 1
 244 0 l 1
 0 0 l 1
 0 16 l 1
 57 24 66 33 84 98 c 2
 200 512 l 2
 213 559 217 580 217 595 c 0
 217 622 203 630 146 637 c 1
 146 653 l 1
320 592 m 2
 251 347 l 1
 280 342 285 342 303 342 c 0
 365 342 400 348 431 366 c 0
 475 391 502 435 502 500 c 0
 502 589 454 623 372 623 c 0
 344 623 326 615 320 592 c 2
EndSplineSet
EndChar

StartChar: Q
Encoding: 81 81 49
Width: 722
Flags: MW
HStem: -182 68<406 520> 633 33<436 505>
LayerCount: 2
Fore
SplineSet
69 -169 m 1
 59 -153 l 1
 136 -99 145 -92 236 -12 c 1
 122 11 60 96 60 225 c 0
 60 348 124 478 233 572 c 1
 310 637 398 666 474 666 c 0
 611 666 699 564 699 429 c 0
 699 273 595 107 443 27 c 0
 389 -2 354 -11 279 -16 c 1
 225 -73 l 1
 250 -73 l 2
 284 -73 329 -83 373 -93 c 0
 414 -103 451 -114 484 -114 c 0
 556 -114 596 -95 652 -37 c 1
 668 -48 l 1
 653 -69 636 -89 616 -107 c 0
 566 -152 502 -182 425 -182 c 0
 387 -182 334 -174 277 -156 c 0
 234 -142 204 -138 184 -138 c 0
 144 -138 107 -148 69 -169 c 1
594 480 m 0
 594 575 545 633 465 633 c 0
 390 633 328 593 271 508 c 0
 213 421 165 283 165 183 c 0
 165 82 215 17 289 17 c 0
 364 17 431 58 487 141 c 0
 549 234 594 377 594 480 c 0
EndSplineSet
EndChar

StartChar: R
Encoding: 82 82 50
Width: 611
Flags: MW
HStem: 0 20 623 30<347.5 384 384 402>
LayerCount: 2
Fore
SplineSet
132 653 m 1
 384 653 l 2
 516 653 588 597 588 512 c 0
 588 464 563 415 522 384 c 0
 491 360 458 348 391 333 c 1
 480 98 l 2
 502 39 522 16 567 16 c 1
 567 0 l 1
 420 0 l 1
 297 324 l 1
 231 329 l 1
 176 126 l 2
 165 87 163 73 163 63 c 0
 163 33 173 22 230 16 c 1
 230 0 l 1
 -13 0 l 1
 -13 16 l 1
 42 23 56 42 72 101 c 2
 191 532 l 2
 198 559 203 578 203 595 c 0
 203 606 196 618 189 623 c 0
 178 630 174 631 132 637 c 1
 132 653 l 1
306 593 m 2
 243 366 l 1
 268 362 276 361 294 361 c 0
 413 361 483 418 483 511 c 0
 483 580 441 623 363 623 c 0
 332 623 311 612 306 593 c 2
EndSplineSet
EndChar

StartChar: S
Encoding: 83 83 51
Width: 500
Flags: MW
HStem: -18 35<213.5 251.5> 633 33<296.5 324.5 261 379.5> 647 20<485 508 508 508>
VStem: 131 88<508.5 554.5> 344 87<120 166.5>
LayerCount: 2
Fore
SplineSet
508 667 m 1x38
 468 467 l 1
 450 470 l 1
 450 572 428 633 331 633 c 0
 262 633 219 596 219 533 c 0
 219 484 227 468 318 377 c 0
 409 285 431 242 431 177 c 0
 431 63 344 -18 229 -18 c 0
 198 -18 171 -11 125 5 c 0
 98 15 89 17 78 17 c 0
 58 17 42 8 35 -15 c 1
 17 -15 l 1
 51 209 l 1
 71 207 l 1
 69 198 69 191 69 184 c 0
 69 86 129 17 213 17 c 0
 290 17 344 69 344 145 c 0
 344 188 330 218 284 268 c 2
 245 310 l 2
 231 325 219 339 206 352 c 0
 146 416 131 448 131 502 c 0
 131 607 213 666 309 666 c 0xd8
 340 666 373 661 394 652 c 0
 415 644 427 641 440 641 c 0
 462 641 471 646 485 667 c 1
 508 667 l 1x38
EndSplineSet
EndChar

StartChar: T
Encoding: 84 84 52
Width: 556
Flags: MW
HStem: 0 20 618 35<236 315 416 474 416 416>
LayerCount: 2
Fore
SplineSet
633 653 m 1
 589 489 l 1
 572 491 l 1
 574 508 575 524 575 537 c 0
 575 590 539 618 474 618 c 2
 416 618 l 1
 279 128 l 2
 273 107 265 84 265 62 c 0
 265 31 277 23 318 19 c 2
 353 16 l 1
 353 0 l 1
 65 0 l 1
 65 16 l 1
 134 22 157 37 172 91 c 2
 315 618 l 1
 157 618 125 602 77 494 c 1
 59 498 l 1
 101 653 l 1
 633 653 l 1
EndSplineSet
EndChar

StartChar: U
Encoding: 85 85 53
Width: 722
Flags: MW
HStem: -18 41<291 355.5> 633 20<127 399 399 399 567 765 765 765>
VStem: 102 90<105.5 152 105.5 173>
LayerCount: 2
Fore
SplineSet
765 653 m 1
 765 637 l 1
 703 623 699 618 661 488 c 2
 578 203 l 2
 556 128 524 70 481 34 c 0
 438 -3 388 -18 323 -18 c 0
 192 -18 102 51 102 146 c 0
 102 200 120 267 146 362 c 2
 198 551 l 2
 203 569 207 584 207 596 c 0
 207 622 189 635 127 637 c 1
 127 653 l 1
 399 653 l 1
 399 637 l 1
 331 630 314 615 295 546 c 2
 232 320 l 2
 205 225 192 163 192 141 c 0
 192 70 252 23 330 23 c 0
 443 23 505 91 550 255 c 2
 614 488 l 2
 630 547 637 582 637 591 c 0
 637 621 620 632 567 637 c 1
 567 653 l 1
 765 653 l 1
EndSplineSet
EndChar

StartChar: V
Encoding: 86 86 54
Width: 611
Flags: MW
HStem: -18 20 633 20<76 316 316 316 503 688 688 688>
LayerCount: 2
Fore
SplineSet
688 653 m 1
 688 637 l 1
 665 636 649 624 632 597 c 2
 259 -18 l 1
 240 -18 l 1
 158 485 l 2
 135 625 132 630 76 637 c 1
 76 653 l 1
 316 653 l 1
 316 637 l 1
 253 630 240 620 240 586 c 0
 240 581 240 576 241 571 c 2
 306 128 l 1
 516 488 l 2
 547 541 565 584 565 603 c 0
 565 622 548 632 503 637 c 1
 503 653 l 1
 688 653 l 1
EndSplineSet
EndChar

StartChar: W
Encoding: 87 87 55
Width: 833
Flags: MW
HStem: -18 20 633 20<71 306 306 306 368 604 604 604 722 906 906 906>
LayerCount: 2
Fore
SplineSet
906 653 m 1
 906 637 l 1
 868 625 858 617 829 562 c 2
 528 -18 l 1
 508 -18 l 1
 458 435 l 1
 453 435 l 1
 231 -18 l 1
 212 -18 l 1
 151 496 l 2
 140 590 136 607 122 622 c 0
 113 631 103 633 71 637 c 1
 71 653 l 1
 306 653 l 1
 306 637 l 1
 255 632 234 624 234 586 c 0
 234 581 234 573 235 566 c 2
 279 162 l 1
 451 510 l 1
 443 575 l 2
 437 626 426 635 368 637 c 1
 368 653 l 1
 604 653 l 1
 604 637 l 1
 553 632 536 621 536 589 c 0
 536 583 538 577 538 574 c 2
 578 162 l 1
 766 527 l 2
 779 552 789 576 789 595 c 0
 789 620 772 636 722 637 c 1
 722 653 l 1
 906 653 l 1
EndSplineSet
EndChar

StartChar: X
Encoding: 88 88 56
Width: 611
Flags: MW
HStem: 0 20 633 20<76 339 339 339 448 655 655 655>
LayerCount: 2
Fore
SplineSet
655 653 m 1
 655 637 l 1
 612 623 580 600 530 542 c 2
 361 348 l 1
 462 93 l 2
 486 33 499 24 567 16 c 1
 567 0 l 1
 296 0 l 1
 296 16 l 1
 356 17 373 29 373 53 c 0
 373 66 367 84 359 104 c 2
 292 269 l 1
 141 97 l 2
 127 81 118 63 118 49 c 0
 118 27 136 16 184 16 c 1
 184 0 l 1
 -29 0 l 1
 -29 16 l 1
 27 26 54 56 191 216 c 2
 274 313 l 1
 171 568 l 2
 152 616 134 632 76 637 c 1
 76 653 l 1
 339 653 l 1
 339 637 l 1
 284 630 268 621 268 596 c 0
 268 583 273 567 284 540 c 2
 343 393 l 1
 488 560 l 2
 502 576 509 591 509 603 c 0
 509 622 491 635 448 637 c 1
 448 653 l 1
 655 653 l 1
EndSplineSet
EndChar

StartChar: Y
Encoding: 89 89 57
Width: 556
Flags: MW
HStem: 0 20 633 20<91 330 330 330 444 633 633 633>
LayerCount: 2
Fore
SplineSet
633 653 m 1
 633 637 l 1
 604 627 596 617 563 576 c 2
 344 306 l 1
 308 183 l 2
 285 104 278 77 278 56 c 0
 278 31 292 22 331 19 c 2
 367 16 l 1
 367 0 l 1
 78 0 l 1
 78 16 l 1
 144 20 167 33 185 97 c 2
 244 302 l 1
 168 569 l 2
 153 621 147 629 91 637 c 1
 91 653 l 1
 330 653 l 1
 330 637 l 1
 270 631 258 623 258 601 c 0
 258 586 270 542 294 457 c 2
 325 347 l 1
 364 393 l 2
 469 517 513 579 513 606 c 0
 513 623 502 631 473 634 c 2
 444 637 l 1
 444 653 l 1
 633 653 l 1
EndSplineSet
EndChar

StartChar: Z
Encoding: 90 90 58
Width: 556
Flags: MW
HStem: 0 36<123 284 284 327.5> 617 36<270 302 302 473>
LayerCount: 2
Fore
SplineSet
606 639 m 1
 123 36 l 1
 284 36 l 2
 371 36 419 40 457 68 c 0
 484 88 510 123 534 172 c 1
 553 169 l 1
 499 0 l 1
 -6 0 l 1
 -6 14 l 1
 473 617 l 1
 302 617 l 2
 238 617 190 610 160 590 c 0
 129 569 121 553 94 501 c 1
 75 506 l 1
 120 653 l 1
 606 653 l 1
 606 639 l 1
EndSplineSet
EndChar

StartChar: bracketleft
Encoding: 91 91 59
Width: 389
Flags: MW
HStem: -153 27<160 209> 636 27<307.5 322 322 384>
LayerCount: 2
Fore
SplineSet
391 663 m 1
 384 636 l 1
 322 636 l 2
 293 636 281 624 275 598 c 2
 117 -69 l 2
 113 -85 111 -95 111 -98 c 0
 111 -117 128 -126 160 -126 c 2
 216 -126 l 1
 209 -153 l 1
 21 -153 l 1
 218 663 l 1
 391 663 l 1
EndSplineSet
EndChar

StartChar: backslash
Encoding: 92 92 60
Width: 278
Flags: MW
HStem: -18 20 646 20<-41 31 31 31>
LayerCount: 2
Fore
SplineSet
319 -18 m 1
 248 -18 l 1
 -41 666 l 1
 31 666 l 1
 319 -18 l 1
EndSplineSet
EndChar

StartChar: bracketright
Encoding: 93 93 61
Width: 389
Flags: MW
HStem: -153 27<19 81 81 96 19 185 12 81> 636 27<193 243 186 382>
LayerCount: 2
Fore
SplineSet
382 663 m 1
 185 -153 l 1
 12 -153 l 1
 19 -126 l 1
 81 -126 l 2
 111 -126 121 -114 128 -85 c 2
 288 585 l 2
 292 601 292 606 292 610 c 0
 292 628 276 636 243 636 c 2
 186 636 l 1
 193 663 l 1
 382 663 l 1
EndSplineSet
EndChar

StartChar: asciicircum
Encoding: 94 94 62
Width: 422
Flags: MW
HStem: 646 20<181 241 241 241>
LayerCount: 2
Fore
SplineSet
422 301 m 1
 354 301 l 1
 211 590 l 1
 210 590 l 1
 68 301 l 1
 0 301 l 1
 181 666 l 1
 241 666 l 1
 422 301 l 1
EndSplineSet
EndChar

StartChar: underscore
Encoding: 95 95 63
Width: 500
Flags: MW
HStem: -125 50<0 500 0 500>
LayerCount: 2
Fore
SplineSet
500 -125 m 1
 0 -125 l 1
 0 -75 l 1
 500 -75 l 1
 500 -125 l 1
EndSplineSet
EndChar

StartChar: grave
Encoding: 96 96 64
Width: 333
Flags: MW
HStem: 644 20<146 163.5>
LayerCount: 2
Fore
SplineSet
311 492 m 1
 279 492 l 1
 139 598 l 2
 126 608 120 618 120 630 c 0
 120 652 136 664 156 664 c 0
 171 664 183 658 196 641 c 2
 311 492 l 1
EndSplineSet
EndChar

StartChar: a
Encoding: 97 97 65
Width: 501
Flags: MW
HStem: -11 49<143 152> -10 20 419 22<286.5 324.5 236.5 326.5>
VStem: 17 84<84.5 143.5 84.5 182.5> 297 73<16.5 64>
LayerCount: 2
Fore
SplineSet
463 111 m 1xb8
 476 100 l 1
 401 9 377 -10 337 -10 c 0x58
 309 -10 297 2 297 31 c 0
 297 56 299 64 320 146 c 1
 245 33 187 -11 117 -11 c 0
 61 -11 17 29 17 105 c 0
 17 260 170 441 303 441 c 0
 346 441 375 420 383 383 c 1
 394 431 l 1
 397 434 l 1
 458 441 l 1
 465 438 l 1
 463 429 462 427 459 417 c 0
 412 246 370 74 370 54 c 0
 370 47 376 41 384 41 c 0
 393 41 406 49 436 82 c 2
 463 111 l 1xb8
365 361 m 0xb8
 365 396 344 419 309 419 c 0
 264 419 220 388 178 327 c 1
 136 264 101 175 101 112 c 0
 101 57 125 38 161 38 c 0
 211 38 258 93 288 136 c 0
 335 204 365 290 365 361 c 0xb8
EndSplineSet
EndChar

StartChar: b
Encoding: 98 98 66
Width: 500
Flags: MW
HStem: -11 23<139.5 176.5 139.5 230.5> 392 49<322 340>
VStem: 388 85<269 336.5>
LayerCount: 2
Fore
SplineSet
163 290 m 1
 164 290 l 1
 232 403 287 441 357 441 c 0
 424 441 473 398 473 321 c 0
 473 163 308 -11 153 -11 c 0
 96 -11 23 12 23 42 c 2
 23 48 l 1
 165 571 l 2
 171 595 174 609 174 618 c 0
 174 640 169 641 110 643 c 1
 110 660 l 1
 177 668 213 674 263 683 c 1
 268 678 l 1
 260 648 253 619 247 596 c 2
 163 290 l 1
388 306 m 0
 388 367 362 392 318 392 c 0
 270 392 224 350 181 277 c 0
 137 203 109 106 109 46 c 0
 109 23 124 12 155 12 c 0
 198 12 241 33 278 71 c 0
 338 133 388 232 388 306 c 0
EndSplineSet
EndChar

StartChar: c
Encoding: 99 99 67
Width: 444
Flags: MW
HStem: -11 36<176.5 214.5> 420 21<296 327.5>
VStem: 30 86<103 183.5 103 189.5> 353 72<346.5 406>
LayerCount: 2
Fore
SplineSet
350 107 m 1
 366 97 l 1
 305 20 252 -11 177 -11 c 0
 84 -11 30 41 30 143 c 0
 30 236 82 323 153 380 c 0
 202 419 259 441 320 441 c 0
 381 441 425 407 425 360 c 0
 425 333 403 312 377 312 c 0
 349 312 338 332 338 352 c 0
 338 370 353 381 353 400 c 0
 353 412 339 420 316 420 c 0
 276 420 236 402 207 372 c 0
 151 313 116 228 116 139 c 0
 116 67 148 25 205 25 c 0
 258 25 296 50 350 107 c 1
EndSplineSet
EndChar

StartChar: d
Encoding: 100 100 68
Width: 500
Flags: MW
HStem: -13 53<315 389.5> -11 48<142.5 156> 418 23<295 320.5>
VStem: 15 87<87 151.5 87 187> 287 76<18.5 68>
LayerCount: 2
Fore
SplineSet
521 683 m 1x78
 527 677 l 1
 511 616 502 577 488 525 c 2
 428 306 l 2
 397 192 363 76 363 60 c 0
 363 48 368 40 381 40 c 0
 398 40 409 49 463 111 c 1
 475 101 l 1
 426 28 378 -13 328 -13 c 0x98
 302 -13 287 5 287 32 c 0
 287 55 289 71 300 121 c 1
 241 22 190 -11 122 -11 c 0
 57 -11 15 30 15 106 c 0
 15 268 177 441 307 441 c 0
 349 441 366 422 372 383 c 1
 373 383 l 1
 418 546 l 2
 433 599 432 603 432 617 c 0
 432 638 423 641 368 643 c 1
 368 660 l 1
 432 666 468 672 521 683 c 1x78
356 361 m 0x78
 356 397 332 418 309 418 c 0
 281 418 246 401 218 372 c 0
 152 302 102 193 102 110 c 0
 102 64 125 37 160 37 c 0
 252 37 356 209 356 361 c 0x78
EndSplineSet
EndChar

StartChar: e
Encoding: 101 101 69
Width: 444
Flags: MW
HStem: -11 45<183 207.5> 418 23<282.5 325>
VStem: 31 87<97.5 132.5 97.5 203.5> 346 66<363.5 391>
LayerCount: 2
Fore
SplineSet
358 109 m 1
 370 97 l 1
 313 27 249 -11 166 -11 c 0
 85 -11 31 43 31 126 c 0
 31 281 180 441 330 441 c 0
 383 441 412 415 412 373 c 0
 412 287 307 209 128 186 c 1
 118 166 118 140 118 125 c 0
 118 70 155 34 211 34 c 0
 255 34 286 50 358 109 c 1
152 252 m 2
 135 208 l 1
 221 229 259 247 296 282 c 0
 327 312 346 348 346 379 c 0
 346 403 339 418 311 418 c 0
 254 418 186 341 152 252 c 2
EndSplineSet
EndChar

StartChar: f
Encoding: 102 102 70
Width: 278
Flags: MW
HStem: -207 21<-66 -39 -66 -22.5> 396 32<41 125 34 134 211 312> 656 22<307.5 340>
VStem: -147 67<-174.5 -134.5> 355 69<605 647>
LayerCount: 2
Fore
SplineSet
41 428 m 1
 134 428 l 1
 156 499 173 554 206 601 c 0
 236 644 277 678 338 678 c 0
 387 678 424 652 424 616 c 0
 424 594 405 573 382 573 c 0
 364 573 345 588 345 612 c 0
 345 629 355 634 355 643 c 0
 355 651 347 656 333 656 c 0
 277 656 240 586 211 428 c 1
 318 428 l 1
 312 396 l 1
 204 396 l 1
 132 76 l 2
 90 -109 23 -207 -68 -207 c 0
 -113 -207 -147 -181 -147 -146 c 0
 -147 -123 -130 -104 -109 -104 c 0
 -86 -104 -71 -120 -71 -141 c 0
 -71 -154 -80 -159 -80 -170 c 0
 -80 -179 -72 -186 -60 -186 c 0
 -18 -186 14 -132 37 -24 c 2
 125 396 l 1
 34 396 l 1
 41 428 l 1
EndSplineSet
EndChar

StartChar: g
Encoding: 103 103 71
Width: 500
Flags: MW
HStem: -206 22<150 230.5 150 241.5> 151 21<240.5 251 215 292.5> 366 39<422 471 422 422> 419 22<265 314.5>
VStem: 8 55<-117 -72.5> 96 78<244 296.5 223.5 321> 98 74<71.5 124.5> 325 60<-98.5 -67> 352 79<273 374.5>
LayerCount: 2
Fore
SplineSet
471 366 m 1xf4
 422 366 l 1
 431 348 431 332 431 315 c 0xf480
 431 231 339 151 246 151 c 0
 235 151 224 152 215 154 c 0
 212 155 210 155 208 155 c 0
 191 155 172 135 172 114 c 0
 172 96 199 83 243 72 c 0
 339 49 385 5 385 -55 c 0
 385 -142 308 -206 175 -206 c 0
 73 -206 8 -170 8 -98 c 0
 8 -47 27 -20 125 39 c 1
 107 50 98 65 98 78 c 0xfb
 98 107 121 137 175 162 c 1
 119 182 96 218 96 270 c 0
 96 372 196 441 297 441 c 0
 335 441 368 432 395 413 c 0
 403 407 408 405 411 405 c 2
 471 405 l 1
 471 366 l 1xf4
352 348 m 0
 352 401 333 419 296 419 c 0
 234 419 174 346 174 247 c 0
 174 200 196 172 234 172 c 0
 268 172 295 190 319 231 c 0
 339 265 352 306 352 348 c 0
325 -90 m 0xf9
 325 -44 289 -16 182 17 c 0
 169 21 159 24 148 28 c 1
 139 28 97 -6 83 -24 c 0
 68 -43 63 -59 63 -82 c 0
 63 -152 110 -184 190 -184 c 0
 271 -184 325 -141 325 -90 c 0xf9
EndSplineSet
EndChar

StartChar: h
Encoding: 104 104 72
Width: 500
Flags: MW
HStem: -9 47<318.5 391> 0 20 390 51<352 353.5>
VStem: 288 79<20 61.5> 370 78<363 372.5>
LayerCount: 2
Fore
SplineSet
465 118 m 1xb8
 478 105 l 1
 417 18 383 -9 332 -9 c 0x98
 305 -9 288 7 288 33 c 0
 288 45 295 76 308 125 c 2
 363 332 l 2
 367 348 370 361 370 365 c 0
 370 380 365 390 342 390 c 0
 306 390 242 329 190 250 c 0
 150 189 134 154 94 0 c 1
 19 0 l 1x78
 165 554 l 2
 173 585 178 602 178 616 c 0
 178 633 155 641 137 641 c 2
 110 641 l 1
 110 656 l 1
 170 663 209 670 267 683 c 1
 274 677 l 1
 153 230 l 1
 243 376 321 441 383 441 c 0
 429 441 448 411 448 374 c 0
 448 349 430 275 400 181 c 0
 383 129 367 67 367 56 c 0
 367 46 374 38 383 38 c 0
 399 38 411 50 465 118 c 1xb8
EndSplineSet
EndChar

StartChar: i
Encoding: 105 105 73
Width: 278
Flags: MW
HStem: -11 47<81.5 146.5> 634 20<200.5 227.5>
VStem: 49 75<46 54>
LayerCount: 2
Fore
SplineSet
264 599 m 0
 264 571 241 548 215 548 c 0
 186 548 167 569 167 601 c 0
 167 632 187 654 214 654 c 0
 241 654 264 628 264 599 c 0
222 114 m 1
 235 103 l 1
 180 19 148 -11 98 -11 c 0
 65 -11 49 7 49 44 c 0
 49 64 56 99 71 155 c 2
 119 332 l 2
 124 350 128 368 128 376 c 0
 128 396 118 399 64 400 c 1
 64 416 l 1
 103 419 123 422 224 441 c 1
 228 438 l 1
 134 95 l 2
 129 78 124 65 124 51 c 0
 124 41 130 36 138 36 c 0
 155 36 179 57 222 114 c 1
EndSplineSet
EndChar

StartChar: j
Encoding: 106 106 74
Width: 278
Flags: MW
HStem: -207 22<-44 -18 -44 -1.5> 548 104<214 241.5 214 242>
VStem: -124 68<-176.5 -134> 175 104<584.5 612 584.5 615>
LayerCount: 2
Fore
SplineSet
279 598 m 0
 279 571 255 548 229 548 c 0
 199 548 175 569 175 600 c 0
 175 630 200 652 228 652 c 0
 255 652 279 626 279 598 c 0
246 438 m 1
 142 28 l 2
 101 -134 42 -207 -45 -207 c 0
 -91 -207 -124 -182 -124 -146 c 0
 -124 -122 -106 -102 -83 -102 c 0
 -56 -102 -44 -118 -44 -139 c 0
 -44 -161 -56 -158 -56 -173 c 0
 -56 -180 -50 -185 -38 -185 c 0
 2 -185 25 -141 59 -3 c 2
 131 289 l 2
 143 338 147 359 147 369 c 0
 147 391 135 400 99 400 c 2
 73 400 l 1
 73 416 l 1
 105 418 158 426 242 441 c 1
 246 438 l 1
EndSplineSet
EndChar

StartChar: k
Encoding: 107 107 75
Width: 444
Flags: MW
HStem: -11 52<303.5 361.5> 0 20
LayerCount: 2
Fore
SplineSet
461 428 m 1x40
 461 412 l 1
 414 409 383 389 236 258 c 1
 273 170 l 2
 312 78 335 41 354 41 c 0
 369 41 381 52 399 83 c 0
 404 91 409 100 414 109 c 1
 429 98 l 1
 383 14 358 -11 318 -11 c 0x80
 289 -11 269 8 237 71 c 0
 219 106 193 168 177 212 c 1
 137 180 l 1
 89 0 l 1
 14 0 l 1
 155 528 l 2
 168 576 171 599 173 616 c 1
 171 634 156 640 122 640 c 2
 104 640 l 1
 104 656 l 1
 163 663 202 670 261 683 c 1
 267 677 l 1
 147 221 l 1
 190 254 l 2
 284 326 333 374 333 394 c 0
 333 405 321 412 296 412 c 2
 282 412 l 1
 282 428 l 1
 461 428 l 1x40
EndSplineSet
EndChar

StartChar: l
Encoding: 108 108 76
Width: 278
Flags: MW
HStem: -11 43<74 142.5>
VStem: 41 77<44 49>
LayerCount: 2
Fore
SplineSet
279 678 m 1
 126 93 l 2
 121 75 118 58 118 50 c 0
 118 38 125 32 135 32 c 0
 150 32 173 48 202 89 c 2
 227 124 l 1
 241 114 l 1
 181 19 144 -11 90 -11 c 0
 58 -11 41 8 41 45 c 0
 41 53 42 65 45 75 c 2
 182 599 l 2
 185 609 185 615 185 618 c 0
 185 630 168 640 136 640 c 2
 118 640 l 1
 118 656 l 1
 177 663 214 670 273 683 c 1
 279 678 l 1
EndSplineSet
EndChar

StartChar: m
Encoding: 109 109 77
Width: 722
Flags: MW
HStem: -9 47<542 611.5> 0 20 389 52
VStem: 354 77<371.5 372> 515 76<22 56> 593 79<365.5 396>
LayerCount: 2
Fore
SplineSet
704 105 m 1xbc
 699 98 l 2
 646 24 602 -9 555 -9 c 0x9c
 529 -9 515 7 515 37 c 0
 515 47 518 64 528 103 c 2
 586 330 l 2
 591 350 593 363 593 368 c 0
 593 380 584 389 573 389 c 0
 543 389 492 342 442 272 c 0
 393 203 373 154 334 0 c 1
 259 0 l 1
 286 93 l 2
 330 245 354 351 354 364 c 0
 354 380 345 389 332 389 c 0
 298 389 239 331 183 246 c 0
 149 194 135 158 87 0 c 1
 12 0 l 1x7c
 55 144 l 2
 95 277 110 360 110 372 c 0
 110 387 96 394 69 394 c 2
 44 394 l 1
 44 410 l 1
 126 425 151 430 206 441 c 1
 209 439 l 1
 151 230 l 1
 240 375 310 441 371 441 c 0
 411 441 431 417 431 381 c 0
 431 362 418 306 391 229 c 1
 461 340 502 390 551 421 c 0
 575 436 594 441 614 441 c 0
 651 441 672 414 672 378 c 0
 672 371 670 355 669 350 c 2
 601 99 l 2
 595 76 591 58 591 54 c 0
 591 43 595 38 603 38 c 0
 620 38 638 54 668 91 c 2
 689 117 l 1
 704 105 l 1xbc
EndSplineSet
EndChar

StartChar: n
Encoding: 110 110 78
Width: 500
Flags: MW
HStem: -9 47<321.5 385> 0 20 390 51
VStem: 287 75<26 60> 361 81<355 398>
LayerCount: 2
Fore
SplineSet
460 117 m 1xb0
 474 104 l 1
 406 11 381 -9 334 -9 c 0
 309 -9 287 7 287 45 c 0x90
 287 55 289 68 303 120 c 2
 347 282 l 2
 355 313 361 349 361 361 c 0
 361 379 352 390 337 390 c 0
 297 390 252 341 189 248 c 0
 144 181 136 158 89 0 c 1
 14 0 l 1x68
 110 350 l 2
 111 355 112 361 112 367 c 0
 112 387 98 393 47 394 c 1
 47 410 l 1
 128 426 156 430 209 441 c 1
 213 439 l 1
 146 221 l 1
 246 381 313 441 377 441 c 0
 420 441 442 416 442 380 c 0xa8
 442 362 438 341 432 320 c 2
 376 117 l 2
 366 81 362 64 362 56 c 0
 362 47 366 38 378 38 c 0
 392 38 410 54 439 91 c 0
 446 99 453 108 460 117 c 1xb0
EndSplineSet
EndChar

StartChar: o
Encoding: 111 111 79
Width: 500
Flags: MW
HStem: -11 21<165.5 207> 420 21<306.5 334.5>
VStem: 27 84<84.5 140.5 71 184> 384 84<288 345 263 356.5>
LayerCount: 2
Fore
SplineSet
468 301 m 0
 468 225 428 137 362 72 c 0
 304 14 240 -11 174 -11 c 0
 80 -11 27 41 27 128 c 0
 27 240 102 355 207 411 c 0
 246 432 286 441 327 441 c 0
 408 441 468 389 468 301 c 0
384 326 m 0
 384 387 356 420 313 420 c 0
 269 420 225 389 185 329 c 0
 139 259 111 180 111 101 c 0
 111 41 142 10 189 10 c 0
 233 10 271 39 310 93 c 0
 356 156 384 250 384 326 c 0
EndSplineSet
EndChar

StartChar: p
Encoding: 112 112 80
Width: 504
Flags: MW
HStem: -11 19<163.5 194.5 154 248> 398 43<327 342.5>
VStem: 382 90<278 341.5>
LayerCount: 2
Fore
SplineSet
215 428 m 2
 186 328 l 1
 240 409 297 441 357 441 c 0
 431 441 472 394 472 316 c 0
 472 151 321 -11 175 -11 c 0
 152 -11 131 -7 106 6 c 1
 89 -64 66 -146 66 -160 c 0
 66 -182 81 -189 128 -189 c 1
 128 -205 l 1
 -75 -205 l 1
 -75 -189 l 1
 -32 -188 -19 -173 -7 -126 c 2
 108 306 l 2
 119 346 124 372 124 377 c 0
 124 401 96 404 80 404 c 2
 58 404 l 1
 56 419 l 1
 212 441 l 2
 215 441 217 439 217 437 c 2
 217 437 216 432 215 428 c 2
382 313 m 0
 382 370 365 398 320 398 c 0
 267 398 208 344 185 284 c 0
 156 209 120 80 120 46 c 0
 120 24 140 8 168 8 c 0
 221 8 269 41 313 103 c 0
 361 170 382 243 382 313 c 0
EndSplineSet
EndChar

StartChar: q
Encoding: 113 113 81
Width: 500
Flags: MW
HStem: -11 53<145.5 163.5> 419 22<306.5 337.5>
VStem: 25 86<95.5 160.5 95.5 184>
LayerCount: 2
Fore
SplineSet
484 428 m 1
 319 -151 l 2
 318 -155 317 -159 317 -162 c 0
 317 -181 337 -193 374 -193 c 2
 389 -193 l 1
 389 -209 l 1
 152 -209 l 1
 152 -193 l 1
 215 -189 232 -174 243 -137 c 2
 333 153 l 1
 253 26 202 -11 125 -11 c 0
 62 -11 25 34 25 105 c 0
 25 263 181 441 318 441 c 0
 359 441 385 424 395 379 c 1
 411 428 l 1
 484 428 l 1
380 359 m 0
 380 392 354 419 321 419 c 0
 292 419 260 400 228 370 c 0
 160 305 111 202 111 119 c 0
 111 72 127 42 164 42 c 0
 189 42 220 55 246 78 c 0
 314 137 380 276 380 359 c 0
EndSplineSet
EndChar

StartChar: r
Encoding: 114 114 82
Width: 389
Flags: MW
HStem: 0 20 421 20<228 228 353.5 379>
LayerCount: 2
Fore
SplineSet
176 223 m 1
 192 258 l 2
 211 300 245 353 286 396 c 0
 312 423 342 441 365 441 c 0
 393 441 412 420 412 390 c 0
 412 360 395 336 365 336 c 0
 347 336 339 347 330 362 c 0
 324 372 321 376 314 376 c 0
 296 376 268 343 232 282 c 0
 189 208 171 168 121 0 c 1
 45 0 l 1
 126 292 l 2
 140 344 142 353 142 374 c 0
 142 395 124 400 104 400 c 0
 96 400 88 399 73 397 c 1
 73 414 l 1
 145 426 156 428 228 441 c 1
 231 439 l 1
 176 223 l 1
EndSplineSet
EndChar

StartChar: s
Encoding: 115 115 83
Width: 389
Flags: MW
HStem: -13 20 -11 21<151.5 175.5 126 201.5> 418 23<223.5 238.5 193 265.5> 422 20<352 366 366 366>
VStem: 109 73<347.5 366> 228 76<81.5 103>
LayerCount: 2
Fore
SplineSet
366 442 m 1x1c
 346 302 l 1
 330 302 l 1
 320 385 290 418 241 418 c 0
 206 418 182 398 182 361 c 0
 182 334 197 305 236 259 c 0
 286 201 304 162 304 123 c 0
 304 40 243 -11 160 -11 c 0x6c
 143 -11 128 -10 105 -1 c 0
 86 7 72 8 61 8 c 0
 50 8 39 3 32 -13 c 1
 16 -13 l 1x8c
 36 146 l 1
 52 146 l 1
 66 51 100 10 152 10 c 0
 199 10 228 38 228 87 c 0
 228 119 211 153 172 202 c 0
 129 256 109 301 109 333 c 0
 109 399 156 441 230 441 c 0x6c
 247 441 261 438 286 431 c 0
 305 425 314 424 322 424 c 0
 337 424 344 428 352 442 c 1
 366 442 l 1x1c
EndSplineSet
EndChar

StartChar: t
Encoding: 116 116 84
Width: 278
Flags: MW
HStem: -11 49<70.5 141> 396 32<216 291 207 296>
LayerCount: 2
Fore
SplineSet
296 428 m 1
 291 396 l 1
 207 396 l 1
 120 68 l 2
 119 64 118 57 118 54 c 0
 118 41 124 38 133 38 c 0
 149 38 165 54 214 117 c 1
 227 110 l 1
 167 18 136 -11 84 -11 c 0
 57 -11 38 1 38 26 c 0
 38 37 46 68 54 100 c 2
 132 396 l 1
 57 396 l 1
 56 399 56 402 56 402 c 1
 56 413 65 422 89 427 c 0
 121 434 186 483 222 537 c 0
 226 543 232 546 236 546 c 0
 242 546 245 543 245 538 c 2
 245 538 245 533 244 531 c 2
 216 428 l 1
 296 428 l 1
EndSplineSet
EndChar

StartChar: u
Encoding: 117 117 85
Width: 500
Flags: MW
HStem: -11 53<77.5 156> -9 47<322 386> 421 20<207 207>
VStem: 42 77<23.5 69> 289 78<49.5 50>
LayerCount: 2
Fore
SplineSet
461 119 m 1x58
 475 110 l 1
 410 11 384 -9 337 -9 c 0x58
 307 -9 289 8 289 39 c 0
 289 61 302 128 334 236 c 1
 216 42 166 -11 95 -11 c 0
 60 -11 42 5 42 42 c 0
 42 61 51 97 69 170 c 2
 104 309 l 2
 112 342 118 368 118 376 c 0
 118 383 113 391 107 394 c 0
 98 399 95 400 57 400 c 1
 57 414 l 1
 114 421 150 428 207 441 c 1
 211 438 l 1
 122 83 l 2
 121 80 119 71 119 67 c 0
 119 52 124 42 139 42 c 0xb8
 173 42 219 95 281 189 c 0
 328 260 342 298 391 432 c 1
 465 432 l 1
 386 133 l 2
 381 114 367 67 367 55 c 0
 367 44 371 38 378 38 c 0
 394 38 410 52 461 119 c 1x58
EndSplineSet
EndChar

StartChar: v
Encoding: 118 118 86
Width: 444
Flags: MW
HStem: -18 20 421 20<149.5 156.5 359.5 386.5>
VStem: 375 51<309.5 395.5>
LayerCount: 2
Fore
SplineSet
207 70 m 1
 238 102 l 2
 310 176 375 286 375 333 c 0
 375 343 370 350 357 362 c 0
 339 378 332 391 332 407 c 0
 332 428 349 441 370 441 c 0
 403 441 426 409 426 382 c 0
 426 339 398 281 363 227 c 0
 318 157 262 93 244 74 c 0
 189 15 162 -18 145 -18 c 0
 139 -18 136 -8 136 9 c 2
 136 33 l 2
 136 102 125 235 112 311 c 0
 99 387 88 404 51 404 c 0
 41 404 31 404 20 403 c 1
 20 416 l 1
 65 423 100 430 132 437 c 1
 140 440 147 441 152 441 c 0
 161 441 161 435 182 327 c 0
 195 260 201 205 207 70 c 1
EndSplineSet
EndChar

StartChar: w
Encoding: 119 119 87
Width: 667
Flags: MW
HStem: -18 20 421 20<135.5 144.5 585 611>
VStem: 600 48<312.5 401>
LayerCount: 2
Fore
SplineSet
403 426 m 2
 435 74 l 1
 566 238 600 291 600 334 c 0
 600 346 594 354 578 369 c 0
 562 384 557 396 557 410 c 0
 557 426 574 441 596 441 c 0
 626 441 648 417 648 385 c 0
 648 321 574 204 436 36 c 2
 427 25 l 2
 400 -8 391 -18 382 -18 c 0
 375 -18 373 -9 371 17 c 2
 342 327 l 1
 253 175 l 2
 235 145 217 112 198 76 c 0
 162 7 145 -18 134 -18 c 0
 125 -18 123 -10 121 29 c 2
 117 120 l 2
 113 207 102 314 90 362 c 0
 81 399 72 404 43 404 c 2
 15 404 l 1
 15 417 l 1
 46 422 80 426 110 434 c 0
 123 437 132 441 139 441 c 0
 150 441 151 439 158 407 c 0
 172 339 186 214 190 126 c 1
 382 430 l 2
 387 438 390 440 395 440 c 0
 401 440 403 437 403 426 c 2
EndSplineSet
EndChar

StartChar: x
Encoding: 120 120 88
Width: 444
Flags: MW
HStem: -11 55<278 339.5> 385 56
LayerCount: 2
Fore
SplineSet
243 355 m 2
 255 298 l 1
 325 405 362 441 406 441 c 0
 430 441 447 426 447 404 c 0
 447 383 433 368 413 368 c 0
 394 368 385 385 361 385 c 0
 343 385 307 341 263 264 c 1
 263 257 265 243 271 219 c 2
 303 85 l 2
 310 57 319 44 333 44 c 0
 346 44 357 54 380 84 c 0
 389 96 393 102 401 112 c 1
 416 103 l 1
 358 13 332 -11 294 -11 c 0
 262 -11 247 7 235 57 c 2
 206 176 l 1
 118 57 l 2
 74 -2 54 -11 23 -11 c 0
 -8 -11 -27 5 -27 31 c 0
 -27 51 -13 67 7 67 c 0
 16 67 26 63 39 56 c 0
 49 50 59 47 65 47 c 0
 76 47 95 66 116 96 c 2
 198 212 l 1
 170 336 l 2
 156 396 149 404 124 404 c 0
 116 404 104 402 85 397 c 2
 67 392 l 1
 64 408 l 1
 75 412 l 2
 136 434 169 441 192 441 c 0
 217 441 229 423 243 355 c 2
EndSplineSet
EndChar

StartChar: y
Encoding: 121 121 89
Width: 444
Flags: MW
HStem: -206 55<12 82.5> 421 20<154 158 158 165.5 362.5 389>
VStem: 386 40<311 401>
LayerCount: 2
Fore
SplineSet
243 186 m 2
 264 76 l 1
 349 217 386 289 386 333 c 0
 386 347 379 353 360 365 c 0
 340 378 334 388 334 404 c 0
 334 426 351 441 374 441 c 0
 404 441 426 416 426 386 c 0
 426 329 378 219 295 81 c 0
 191 -91 84 -206 27 -206 c 0
 -3 -206 -24 -189 -24 -163 c 0
 -24 -141 -7 -123 15 -123 c 0
 50 -123 50 -151 76 -151 c 0
 89 -151 101 -143 124 -118 c 0
 142 -99 187 -40 195 -27 c 1
 201 -15 205 -3 205 8 c 0
 205 48 150 272 123 340 c 0
 104 389 86 404 46 404 c 0
 35 404 26 403 15 400 c 1
 15 417 l 1
 26 419 37 421 47 423 c 0
 67 427 100 433 154 441 c 1
 158 441 l 2
 173 441 226 275 243 186 c 2
EndSplineSet
EndChar

StartChar: z
Encoding: 122 122 90
Width: 389
Flags: MW
HStem: -81 21<268.5 289 268.5 298> 368 60<146 172 172 308>
VStem: 308 55<-49.5 6>
LayerCount: 2
Fore
SplineSet
380 417 m 1
 91 73 l 1
 149 60 171 49 211 -10 c 0
 237 -48 256 -60 281 -60 c 0
 297 -60 308 -54 308 -45 c 0
 308 -41 306 -36 303 -30 c 0
 297 -18 295 -10 295 -2 c 0
 296 15 312 32 328 32 c 0
 349 32 363 17 363 -5 c 0
 363 -45 326 -81 270 -81 c 0
 241 -81 207 -68 157 -37 c 0
 110 -8 78 5 52 5 c 0
 36 5 23 0 7 -13 c 1
 -2 -4 l 1
 308 368 l 1
 172 368 l 2
 120 368 101 359 81 308 c 1
 65 312 l 1
 97 428 l 1
 380 428 l 1
 380 417 l 1
EndSplineSet
EndChar

StartChar: braceleft
Encoding: 123 123 91
Width: 400
Flags: MW
VStem: 51 75<-118.5 -92 -118.5 -87> 117 75<186 205.5 183 212.5>
LayerCount: 2
Fore
SplineSet
407 687 m 1x40
 404 676 l 1
 342 660 316 631 295 552 c 2
 250 384 l 2
 228 301 201 272 136 255 c 1
 175 238 192 219 192 192 c 0x40
 192 174 174 96 148 2 c 0
 132 -59 126 -84 126 -100 c 0
 126 -137 141 -155 179 -166 c 1
 176 -177 l 1
 84 -174 51 -154 51 -99 c 0x80
 51 -75 61 -31 83 45 c 0
 105 120 117 174 117 198 c 0
 117 227 103 241 64 255 c 1
 128 272 150 296 170 369 c 2
 218 547 l 2
 247 653 294 687 407 687 c 1x40
EndSplineSet
EndChar

StartChar: bar
Encoding: 124 124 92
Width: 275
Flags: MW
HStem: -18 20 646 20<105 171 171 171>
VStem: 105 66<-18 666>
LayerCount: 2
Fore
SplineSet
171 -18 m 1
 105 -18 l 1
 105 666 l 1
 171 666 l 1
 171 -18 l 1
EndSplineSet
EndChar

StartChar: braceright
Encoding: 125 125 93
Width: 400
Flags: MW
VStem: 208 75<304 324 297.5 327> 274 75<602 627.5>
LayerCount: 2
Fore
SplineSet
221 676 m 1x40
 224 687 l 1
 316 684 349 664 349 609 c 0x40
 349 586 339 540 317 465 c 0
 295 389 283 336 283 312 c 0
 283 283 297 269 336 255 c 1
 272 238 250 214 230 141 c 2
 182 -37 l 2
 153 -143 105 -177 -7 -177 c 1
 -4 -166 l 1
 58 -150 84 -121 105 -42 c 2
 150 126 l 2
 172 209 198 238 264 255 c 1
 225 272 208 290 208 318 c 0x80
 208 336 226 414 252 508 c 0
 268 566 274 595 274 609 c 0
 274 646 259 665 221 676 c 1x40
EndSplineSet
EndChar

StartChar: asciitilde
Encoding: 126 126 94
Width: 541
Flags: MW
HStem: 187 64<358.5 392.5 358.5 400> 255 64<145.5 184.5 138.5 185.5>
LayerCount: 2
Fore
SplineSet
466 323 m 1
 502 273 l 1
 457 207 423 187 377 187 c 0
 332 187 307 201 274 220 c 0
 257 230 210 255 161 255 c 0
 130 255 94 233 76 183 c 1
 40 233 l 1
 71 293 115 319 162 319 c 0
 207 319 239 305 276 288 c 0
 294 280 344 251 373 251 c 0
 412 251 429 267 466 323 c 1
EndSplineSet
EndChar

StartChar: exclamdown
Encoding: 161 161 96
Width: 389
Flags: MW
HStem: 368 106<255 282.5>
VStem: 215 106<407.5 435 405.5 436>
LayerCount: 2
Fore
SplineSet
321 419 m 0
 321 392 296 368 269 368 c 0
 240 368 215 393 215 422 c 0
 215 450 240 474 270 474 c 0
 300 474 321 451 321 419 c 0
224 285 m 1
 241 281 l 1
 204 115 188 30 169 -89 c 0
 155 -172 135 -205 99 -205 c 0
 73 -205 59 -188 59 -155 c 0
 59 -123 68 -94 97 -31 c 0
 135 51 170 139 224 285 c 1
EndSplineSet
EndChar

StartChar: cent
Encoding: 162 162 97
Width: 500
Flags: MW
HStem: -11 36<247 262.5>
VStem: 77 86<119.5 180.5 119.5 191>
LayerCount: 2
Fore
SplineSet
414 560 m 1
 372 440 l 1
 407 437 423 432 442 418 c 0
 460 404 472 382 472 360 c 0
 472 333 452 312 424 312 c 0
 400 312 385 328 385 352 c 0
 385 362 387 368 394 381 c 0
 398 390 400 395 400 399 c 0
 400 412 389 419 365 420 c 1
 228 29 l 1
 236 26 242 25 252 25 c 0
 303 25 341 48 397 108 c 1
 413 98 l 1
 353 22 299 -11 226 -11 c 0
 221 -11 220 -11 215 -10 c 1
 168 -143 l 1
 137 -143 l 1
 185 -7 l 1
 157 -1 143 5 127 18 c 0
 95 43 77 78 77 140 c 0
 77 242 134 344 229 403 c 0
 265 425 292 432 342 440 c 1
 384 560 l 1
 414 560 l 1
202 41 m 1
 334 417 l 1
 301 410 273 393 249 369 c 0
 192 311 163 219 163 142 c 0
 163 97 175 64 202 41 c 1
EndSplineSet
EndChar

StartChar: sterling
Encoding: 163 163 98
Width: 500
Flags: MW
HStem: -8 74<335.5 348.5> -6 22<63 88.5 63 92.5> 98 28<70.5 95.5> 319 42<82 185 73 191 280 397> 641 29<397 414>
VStem: 10 22<42.5 66.5 42.5 76>
LayerCount: 2
Fore
SplineSet
82 361 m 1x74
 191 361 l 1
 211 474 235 540 287 602 c 0
 327 650 370 670 424 670 c 0
 479 670 517 639 517 594 c 0
 517 567 503 553 478 553 c 0
 461 553 447 562 442 597 c 0
 438 628 426 641 402 641 c 0
 345 641 326 588 280 361 c 1
 404 361 l 1
 397 319 l 1
 270 319 l 1
 244 209 238 193 197 104 c 1
 268 74 314 66 357 66 c 0
 393 66 409 75 436 94 c 2
 446 101 l 1
 457 92 l 1
 431 28 382 -8 315 -8 c 0x9c
 266 -8 238 4 171 57 c 1
 133 7 110 -6 75 -6 c 0
 34 -6 10 19 10 58 c 0
 10 94 43 126 98 126 c 0
 113 126 132 126 160 115 c 1
 185 319 l 1
 73 319 l 1
 82 361 l 1x74
146 73 m 1x64
 118 93 106 98 85 98 c 0
 54 98 32 80 32 53 c 0
 32 32 51 16 75 16 c 0
 102 16 131 39 146 73 c 1x64
EndSplineSet
EndChar

StartChar: currency
Encoding: 164 164 99
Width: 500
Flags: MW
HStem: -10 20 47 64<227.5 274.5> 413 64<227.5 275.5 227.5 292.5>
VStem: 35 68<238 286> 397 68<239.5 287 239.5 304>
LayerCount: 2
Fore
SplineSet
522 40 m 1
 474 -10 l 1
 376 88 l 1
 336 60 298 47 251 47 c 0
 204 47 166 59 124 88 c 1
 28 -10 l 1
 -22 40 l 1
 76 136 l 1
 47 178 35 214 35 262 c 0
 35 310 47 348 76 388 c 1
 -22 486 l 1
 28 534 l 1
 124 438 l 1
 167 466 204 477 251 477 c 0
 300 477 337 465 376 438 c 1
 474 534 l 1
 522 486 l 1
 426 388 l 1
 454 347 465 311 465 263 c 0
 465 216 454 179 426 136 c 1
 522 40 l 1
397 263 m 0
 397 345 332 413 253 413 c 0
 170 413 103 347 103 264 c 0
 103 179 169 111 251 111 c 0
 332 111 397 178 397 263 c 0
EndSplineSet
EndChar

StartChar: yen
Encoding: 165 165 100
Width: 500
Flags: MW
HStem: 0 20 182 40<40 192 28 203 288 454> 312 40<73 212 73 223 61 212 349 486> 633 20<61 298 298 298 416 605 605 605>
LayerCount: 2
Fore
SplineSet
605 653 m 1
 605 637 l 1
 573 623 562 616 530 576 c 2
 349 352 l 1
 498 352 l 1
 486 312 l 1
 318 312 l 1
 312 304 l 1
 288 222 l 1
 466 222 l 1
 454 182 l 1
 276 182 l 1
 253 112 245 86 245 64 c 0
 245 38 258 22 299 19 c 2
 335 16 l 1
 335 0 l 1
 52 0 l 1
 56 16 l 1
 126 23 149 36 167 98 c 2
 192 182 l 1
 28 182 l 1
 40 222 l 1
 203 222 l 1
 226 302 l 1
 223 312 l 1
 61 312 l 1
 73 352 l 1
 212 352 l 1
 149 568 l 2
 134 619 127 629 61 637 c 1
 61 653 l 1
 298 653 l 1
 298 637 l 1
 234 631 225 624 225 603 c 0
 225 587 235 543 264 447 c 0
 277 402 280 392 293 347 c 1
 307 363 313 370 321 380 c 0
 433 511 482 571 483 606 c 0
 483 623 470 631 441 634 c 2
 416 637 l 1
 416 653 l 1
 605 653 l 1
EndSplineSet
EndChar

StartChar: brokenbar
Encoding: 166 166 101
Width: 275
Flags: MW
HStem: -18 20 646 20<105 171 171 171>
VStem: 105 66<-18 257 391 666>
LayerCount: 2
Fore
SplineSet
171 391 m 1
 105 391 l 1
 105 666 l 1
 171 666 l 1
 171 391 l 1
171 -18 m 1
 105 -18 l 1
 105 257 l 1
 171 257 l 1
 171 -18 l 1
EndSplineSet
EndChar

StartChar: section
Encoding: 167 167 102
Width: 500
Flags: MW
HStem: -162 21<166.5 215 166.5 233.5> 100 21<310 330 283 352.5> 388 21<194.5 205 167 229.5> 645 21<308.5 354>
VStem: 53 61<-114 -36.5> 90 57<286.5 320> 184 61<549 577.5> 287 58<-64 -36> 377 58<188 209> 397 64<550 622.5>
LayerCount: 2
Fore
SplineSet
249 398 m 1xf5
 251 401 l 1
 201 463 184 497 184 541 c 0
 184 614 245 666 331 666 c 0
 407 666 461 625 461 567 c 0
 461 533 441 512 409 512 c 0
 382 512 363 531 363 557 c 0
 363 571 369 582 384 595 c 0
 393 603 397 608 397 614 c 0xf240
 397 631 371 645 337 645 c 0
 280 645 245 613 245 562 c 0
 245 536 254 511 271 490 c 2
 394 340 l 2
 420 308 435 267 435 226 c 0
 435 150 388 100 317 100 c 0
 303 100 296 101 284 107 c 1
 282 104 l 1
 335 37 345 15 345 -25 c 0
 345 -103 278 -162 189 -162 c 0
 113 -162 53 -115 53 -54 c 0
 53 -19 74 2 109 2 c 0
 139 2 156 -14 156 -41 c 0
 156 -63 149 -75 129 -87 c 0
 118 -94 114 -98 114 -104 c 0xfb80
 114 -124 148 -141 185 -141 c 0
 245 -141 287 -104 287 -51 c 0
 287 -21 275 2 237 46 c 2
 161 133 l 2
 114 187 90 239 90 286 c 0
 90 354 138 409 196 409 c 0
 214 409 231 405 249 398 c 1xf5
377 192 m 0xf480
 377 226 363 255 320 312 c 0
 281 364 246 388 213 388 c 0
 176 388 147 359 147 322 c 0
 147 251 254 121 312 121 c 0
 348 121 377 153 377 192 c 0xf480
EndSplineSet
EndChar

StartChar: dieresis
Encoding: 168 168 103
Width: 333
Flags: MW
HStem: 508 98<143 169.5 143 169.5 343 369.5>
VStem: 107 98<544 569.5 543.5 571.5> 307 98<544 569.5 543.5 571.5>
LayerCount: 2
Fore
SplineSet
405 557 m 0
 405 530 383 508 356 508 c 0
 328 508 307 530 307 558 c 0
 307 585 329 606 357 606 c 0
 382 606 405 582 405 557 c 0
205 557 m 0
 205 530 183 508 156 508 c 0
 128 508 107 530 107 558 c 0
 107 585 129 606 157 606 c 0
 182 606 205 582 205 557 c 0
EndSplineSet
EndChar

StartChar: copyright
Encoding: 169 169 104
Width: 760
Flags: MW
HStem: -18 42<303.5 457.5 303.5 475> 136 20<364 416.5> 503 20<361.5 425 344.5 437> 624 42<303.5 459.5>
VStem: 41 55<241.5 405 241.5 418> 191 77<275 382.5> 664 55<239.5 403.5>
LayerCount: 2
Fore
SplineSet
545 240 m 1
 530 172 l 2
 528 161 525 159 509 154 c 0
 459 140 435 136 398 136 c 0
 272 136 191 209 191 323 c 0
 191 442 280 523 409 523 c 0
 441 523 467 519 508 505 c 0
 521 501 529 493 529 484 c 2
 529 415 l 1
 513 415 l 1
 503 474 468 503 406 503 c 0
 317 503 268 442 268 331 c 0
 268 219 319 156 409 156 c 0
 466 156 501 181 529 240 c 1
 545 240 l 1
719 318 m 0
 719 132 568 -18 382 -18 c 0
 191 -18 41 132 41 323 c 0
 41 513 192 666 380 666 c 0
 572 666 719 516 719 318 c 0
664 319 m 0
 664 488 538 624 381 624 c 0
 226 624 96 487 96 323 c 0
 96 160 226 24 381 24 c 0
 534 24 664 160 664 319 c 0
EndSplineSet
EndChar

StartChar: ordfeminine
Encoding: 170 170 105
Width: 276
Flags: MW
HStem: 406 34<136.5 144.5> 423 20<297 300> 658 18<223.5 248 187 250>
VStem: 42 73<469.5 517 469.5 522.5> 229 65<423.5 451>
LayerCount: 2
Fore
SplineSet
299 673 m 1xb8
 352 675 l 1
 321 566 301 489 298 472 c 2
 295 457 l 2
 294 454 294 452 294 450 c 0
 294 446 296 443 298 443 c 0x58
 302 443 317 455 329 467 c 2
 343 482 l 1
 350 472 l 1
 301 417 286 406 260 406 c 0
 241 406 229 416 229 431 c 0
 229 448 232 458 246 493 c 1
 196 425 169 406 120 406 c 0
 72 406 42 432 42 476 c 0
 42 569 143 676 231 676 c 0
 265 676 284 665 290 641 c 1
 297 671 l 1
 299 673 l 1xb8
269 620 m 0xb8
 269 641 261 657 250 658 c 1
 197 658 115 554 115 480 c 0
 115 459 129 440 144 440 c 0
 169 440 197 461 223 500 c 0
 249 538 269 590 269 620 c 0xb8
EndSplineSet
EndChar

StartChar: guillemotleft
Encoding: 171 171 106
Width: 500
Flags: W
LayerCount: 2
Fore
SplineSet
215 216 m 1
 215 225 l 1
 304 294 317 304 342 326 c 0
 407 383 432 403 439 403 c 0
 442 403 445 400 445 396 c 0
 445 379 409 334 354 284 c 0
 332 264 310 241 289 217 c 1
 295 203 302 190 309 177 c 0
 346 108 371 54 371 44 c 0
 371 40 368 37 364 37 c 0
 351 37 308 103 282 132 c 0
 247 172 228 197 215 216 c 1
53 216 m 1
 53 225 l 1
 142 294 155 304 180 326 c 0
 245 383 270 403 277 403 c 0
 280 403 283 400 283 396 c 0
 283 379 247 334 192 284 c 0
 168 262 147 239 127 217 c 1
 133 203 140 190 147 177 c 0
 184 108 209 54 209 44 c 0
 209 40 206 37 202 37 c 0
 186 37 147 102 120 132 c 0
 85 172 66 197 53 216 c 1
EndSplineSet
EndChar

StartChar: logicalnot
Encoding: 172 172 107
Width: 675
Flags: MW
HStem: 320 66<86 524 86 590>
VStem: 524 66<108 320 320 320>
LayerCount: 2
Fore
SplineSet
590 108 m 1
 524 108 l 1
 524 320 l 1
 86 320 l 1
 86 386 l 1
 590 386 l 1
 590 108 l 1
EndSplineSet
EndChar

StartChar: uni00AD
Encoding: 173 173 108
Width: 333
Flags: MW
HStem: 192 63<63 269 49 282>
LayerCount: 2
Fore
SplineSet
282 255 m 1
 269 192 l 1
 49 192 l 1
 63 255 l 1
 282 255 l 1
EndSplineSet
EndChar

StartChar: registered
Encoding: 174 174 109
Width: 760
Flags: MW
HStem: -18 42<303.5 457.5 303.5 475> 307 18<333 375 375 380 333 375> 492 19<333 374 333 333> 624 42<303.5 459.5>
VStem: 41 55<241.5 405 241.5 418> 269 64<210 307 325 447 447 468.5> 443 67<396.5 439.5> 664 55<239.5 403.5>
LayerCount: 2
Fore
SplineSet
563 146 m 1
 500 146 l 2
 483 146 466 165 431 225 c 0
 414 255 404 271 380 307 c 1
 333 307 l 1
 333 210 l 2
 333 167 333 166 381 161 c 1
 381 146 l 1
 221 146 l 1
 221 161 l 1
 269 166 269 167 269 210 c 2
 269 447 l 2
 269 490 269 491 221 496 c 1
 221 511 l 1
 396 511 l 2
 466 511 510 476 510 420 c 0
 510 373 483 338 431 317 c 1
 488 239 l 2
 520 196 542 171 563 155 c 1
 563 146 l 1
333 325 m 1
 375 325 l 2
 419 325 443 357 443 414 c 0
 443 465 419 492 374 492 c 2
 333 492 l 1
 333 325 l 1
719 318 m 0
 719 132 568 -18 382 -18 c 0
 191 -18 41 132 41 323 c 0
 41 513 192 666 380 666 c 0
 572 666 719 516 719 318 c 0
664 319 m 0
 664 488 538 624 381 624 c 0
 226 624 96 487 96 323 c 0
 96 160 226 24 381 24 c 0
 534 24 664 160 664 319 c 0
EndSplineSet
EndChar

StartChar: macron
Encoding: 175 175 110
Width: 333
Flags: MW
HStem: 532 51<110 400 99 411>
LayerCount: 2
Fore
SplineSet
411 583 m 1
 400 532 l 1
 99 532 l 1
 110 583 l 1
 411 583 l 1
EndSplineSet
EndChar

StartChar: degree
Encoding: 176 176 111
Width: 400
Flags: MW
HStem: 390 34<215 272 215 283> 642 34<215.5 272.5>
VStem: 101 39<503.5 563 503.5 573> 348 39<503 562.5>
LayerCount: 2
Fore
SplineSet
387 533 m 0
 387 452 324 390 242 390 c 0
 164 390 101 454 101 533 c 0
 101 613 164 676 244 676 c 0
 324 676 387 613 387 533 c 0
348 533 m 0
 348 592 301 642 244 642 c 0
 187 642 140 593 140 533 c 0
 140 474 187 424 243 424 c 0
 301 424 348 473 348 533 c 0
EndSplineSet
EndChar

StartChar: plusminus
Encoding: 177 177 112
Width: 675
Flags: MW
HStem: 0 66<86 590 86 590> 282 66<86 305 86 305 371 590>
VStem: 305 66<122 282 122 282 348 568>
LayerCount: 2
Fore
SplineSet
590 282 m 1
 371 282 l 1
 371 122 l 1
 305 122 l 1
 305 282 l 1
 86 282 l 1
 86 348 l 1
 305 348 l 1
 305 568 l 1
 371 568 l 1
 371 348 l 1
 590 348 l 1
 590 282 l 1
590 0 m 1
 86 0 l 1
 86 66 l 1
 590 66 l 1
 590 0 l 1
EndSplineSet
EndChar

StartChar: twosuperior
Encoding: 178 178 113
Width: 300
Flags: MW
HStem: 271 53<113 221 221 239 113 264> 625 51<196 202.5>
VStem: 259 65<557.5 576.5>
LayerCount: 2
Fore
SplineSet
91 572 m 1
 78 580 l 1
 92 613 102 627 121 643 c 0
 146 664 179 676 213 676 c 0
 274 676 324 631 324 575 c 0
 324 540 312 523 225 439 c 2
 111 329 l 1
 113 324 l 1
 221 324 l 2
 257 324 270 331 286 358 c 1
 297 350 l 1
 264 271 l 1
 33 271 l 1
 33 289 l 1
 166 419 l 2
 228 480 259 526 259 558 c 0
 259 595 224 625 181 625 c 0
 145 625 120 610 91 572 c 1
EndSplineSet
EndChar

StartChar: threesuperior
Encoding: 179 179 114
Width: 300
Flags: MW
HStem: 268 31<148 170> 644 32<221.5 236>
VStem: 238 63<379 422.5> 272 67<580.5 607>
LayerCount: 2
Fore
SplineSet
149 608 m 1xd0
 139 615 l 1
 160 653 199 676 244 676 c 0
 298 676 339 643 339 600 c 0xd0
 339 561 315 540 238 513 c 1
 242 511 l 2
 270 497 271 496 280 487 c 0
 294 471 301 451 301 425 c 0
 301 333 224 268 116 268 c 0
 68 268 43 282 43 307 c 0
 43 323 56 335 73 335 c 0
 81 335 94 330 111 318 c 0
 130 305 142 299 154 299 c 0
 202 299 238 339 238 392 c 0xe0
 238 453 201 489 138 489 c 2
 125 489 l 1
 125 498 l 1
 225 517 272 547 272 592 c 0
 272 622 250 644 222 644 c 0
 196 644 179 636 149 608 c 1xd0
EndSplineSet
EndChar

StartChar: acute
Encoding: 180 180 115
Width: 333
Flags: MW
HStem: 644 20<362 377>
LayerCount: 2
Fore
SplineSet
180 494 m 1
 342 654 l 2
 349 661 357 664 367 664 c 0
 387 664 403 648 403 628 c 0
 403 616 398 607 386 600 c 2
 215 494 l 1
 180 494 l 1
EndSplineSet
EndChar

StartChar: mu
Encoding: 181 181 116
Width: 500
Flags: MW
HStem: -10 55<193 204.5>
VStem: 328 85<49 54>
LayerCount: 2
Fore
SplineSet
497 428 m 1
 419 92 l 2
 415 74 413 67 413 58 c 0
 413 40 422 30 439 30 c 0
 456 30 470 36 495 56 c 1
 492 47 l 1
 450 4 424 -10 385 -10 c 0
 347 -10 328 10 328 49 c 0
 328 59 329 66 332 80 c 1
 279 18 231 -10 178 -10 c 0
 125 -10 94 13 75 66 c 1
 73 45 73 36 73 18 c 0
 73 7 73 -7 74 -24 c 0
 75 -41 75 -59 75 -67 c 0
 75 -154 47 -209 4 -209 c 0
 -19 -209 -30 -195 -30 -164 c 0
 -30 -129 -22 -104 8 -46 c 1
 26 -1 36 27 42 54 c 2
 127 428 l 1
 215 428 l 1
 148 144 l 2
 146 137 145 124 145 114 c 0
 145 72 172 45 214 45 c 0
 257 45 301 70 336 115 c 1
 409 428 l 1
 497 428 l 1
EndSplineSet
EndChar

StartChar: paragraph
Encoding: 182 182 117
Width: 559
Flags: MW
HStem: 632 21<408 466 408 408 615 615>
VStem: 97 77<389.5 434.5>
LayerCount: 2
Fore
SplineSet
621 653 m 1
 615 632 l 1
 539 627 530 619 518 574 c 2
 358 -26 l 2
 353 -45 347 -64 347 -76 c 0
 347 -90 360 -97 396 -100 c 2
 419 -102 l 1
 414 -123 l 1
 266 -123 l 1
 466 632 l 1
 408 632 l 1
 208 -123 l 1
 60 -123 l 1
 65 -102 l 1
 111 -98 127 -95 139 -89 c 0
 146 -85 150 -81 152 -74 c 0
 160 -51 192 63 220 171 c 0
 232 218 238 239 250 283 c 1
 195 285 170 292 142 311 c 0
 113 331 97 364 97 403 c 0
 97 466 120 534 156 577 c 0
 201 631 262 653 364 653 c 2
 621 653 l 1
260 304 m 1
 339 632 l 1
 295 629 266 615 238 583 c 0
 201 541 174 467 174 406 c 0
 174 373 186 342 207 323 c 0
 219 311 232 307 260 304 c 1
EndSplineSet
EndChar

StartChar: periodcentered
Encoding: 183 183 118
Width: 250
Flags: MW
HStem: 199 111<110 139.5>
VStem: 70 111<238.5 268.5 238 269>
LayerCount: 2
Fore
SplineSet
181 253 m 0
 181 223 155 199 124 199 c 0
 95 199 70 224 70 253 c 0
 70 285 95 310 125 310 c 0
 155 310 181 284 181 253 c 0
EndSplineSet
EndChar

StartChar: cedilla
Encoding: 184 184 119
Width: 333
Flags: MW
HStem: -217 35<49 72 44.5 98> 0 20
VStem: 108 74<-154 -128>
LayerCount: 2
Fore
SplineSet
119 0 m 1
 75 -66 l 1
 85 -64 91 -63 100 -63 c 0
 150 -63 182 -89 182 -131 c 0
 182 -181 133 -217 63 -217 c 0
 35 -217 12 -212 -30 -196 c 1
 -13 -167 l 1
 17 -178 34 -182 55 -182 c 0
 89 -182 108 -167 108 -141 c 0
 108 -115 89 -97 62 -97 c 0
 52 -97 44 -99 30 -104 c 1
 21 -96 l 1
 81 0 l 1
 119 0 l 1
EndSplineSet
EndChar

StartChar: onesuperior
Encoding: 185 185 120
Width: 300
Flags: W
LayerCount: 2
Fore
SplineSet
270 676 m 1
 279 676 l 2
 282 676 284 674 284 671 c 0
 284 669 283 663 280 655 c 2
 194 381 l 2
 181 341 175 316 175 307 c 0
 175 292 186 288 224 287 c 1
 224 271 l 1
 43 271 l 1
 43 287 l 1
 90 292 103 297 108 312 c 2
 198 597 l 2
 202 609 203 613 203 618 c 0
 203 628 194 635 182 635 c 2
 148 635 l 1
 148 654 l 1
 175 658 192 661 270 676 c 1
EndSplineSet
EndChar

StartChar: ordmasculine
Encoding: 186 186 121
Width: 310
Flags: MW
HStem: 406 24<166.5 186.5 166.5 213> 654 22<258 268.5>
VStem: 67 73<464 518.5 462 537> 289 73<581 616.5 546 622.5>
LayerCount: 2
Fore
SplineSet
362 592 m 0
 362 500 262 406 164 406 c 0
 105 406 67 439 67 489 c 0
 67 585 164 676 265 676 c 0
 322 676 362 641 362 592 c 0
289 607 m 0
 289 638 279 654 258 654 c 0
 204 655 140 561 140 476 c 0
 140 448 155 430 178 430 c 0
 195 430 214 438 227 452 c 0
 263 490 289 555 289 607 c 0
EndSplineSet
EndChar

StartChar: guillemotright
Encoding: 187 187 122
Width: 500
Flags: W
LayerCount: 2
Fore
SplineSet
447 215 m 1
 411 188 l 2
 355 146 345 136 320 114 c 0
 253 55 230 37 223 37 c 0
 220 37 217 40 217 44 c 0
 217 61 253 106 308 156 c 0
 333 178 354 200 373 223 c 1
 366 237 360 250 353 263 c 0
 316 331 291 386 291 396 c 0
 291 400 294 403 298 403 c 0
 313 403 353 339 380 308 c 0
 414 268 434 243 447 224 c 1
 447 215 l 1
285 215 m 1
 249 188 l 2
 193 146 183 136 158 114 c 0
 91 55 68 37 61 37 c 0
 58 37 55 40 55 44 c 0
 55 61 93 102 146 156 c 2
 211 223 l 1
 204 237 198 250 191 263 c 0
 154 331 129 386 129 396 c 0
 129 400 132 403 136 403 c 0
 150 403 191 338 218 308 c 1
 252 268 272 243 285 224 c 1
 285 215 l 1
EndSplineSet
EndChar

StartChar: onequarter
Encoding: 188 188 123
Width: 750
Flags: MW
HStem: -10 20 0 20 105 42<429 429 464 584 416 429> 656 20<265.5 269.5 598 649 649 649>
LayerCount: 2
Fore
SplineSet
736 406 m 1x60
 657 147 l 1
 712 147 l 1
 703 104 l 1
 645 104 l 1
 615 0 l 1
 552 0 l 1
 584 105 l 1
 416 105 l 1
 429 147 l 1
 700 406 l 1
 736 406 l 1x60
653 333 m 1
 464 147 l 1
 593 147 l 1
 653 333 l 1
649 676 m 1x90
 194 -10 l 1
 143 -10 l 1
 598 676 l 1
 649 676 l 1x90
138 635 m 1
 138 654 l 1
 160 657 174 660 208 666 c 0
 239 672 263 676 268 676 c 0
 271 676 273 674 273 671 c 0
 273 667 272 661 270 655 c 2
 184 381 l 2
 171 341 165 316 165 307 c 0
 165 292 175 288 214 287 c 1
 214 271 l 1
 33 271 l 1
 33 287 l 1
 80 292 93 297 98 312 c 2
 188 597 l 2
 192 609 193 613 193 618 c 0
 193 628 183 635 168 635 c 2
 138 635 l 1
EndSplineSet
EndChar

StartChar: onehalf
Encoding: 189 189 124
Width: 750
Flags: MW
HStem: -10 20 0 53<538 646 646 664 538 689> 354 52<622 627.5> 656 20<266.5 270.5 584 635 635 635>
VStem: 684 65<286.5 305.5>
LayerCount: 2
Fore
SplineSet
516 301 m 1x68
 503 309 l 1
 517 342 527 356 546 372 c 0
 572 394 605 406 639 406 c 0
 699 406 749 360 749 304 c 0
 749 269 737 252 650 168 c 2
 536 58 l 1
 538 53 l 1
 646 53 l 2
 682 53 695 60 711 87 c 1
 722 79 l 1
 689 0 l 1
 458 0 l 1
 458 18 l 1
 591 148 l 2
 652 208 684 255 684 287 c 0
 684 324 649 354 606 354 c 0
 570 354 545 339 516 301 c 1x68
635 676 m 1x98
 180 -10 l 1
 129 -10 l 1
 584 676 l 1
 635 676 l 1x98
139 635 m 1
 139 654 l 1
 162 657 175 660 209 666 c 0
 240 672 264 676 269 676 c 0
 272 676 274 674 274 671 c 0
 274 667 273 661 271 655 c 2
 185 381 l 2
 172 340 166 316 166 307 c 0
 166 292 176 288 215 287 c 1
 215 271 l 1
 34 271 l 1
 34 287 l 1
 81 292 94 297 99 312 c 2
 189 597 l 2
 194 612 194 614 194 619 c 0
 194 631 185 635 170 635 c 2
 139 635 l 1
EndSplineSet
EndChar

StartChar: threequarters
Encoding: 190 190 125
Width: 750
Flags: MW
HStem: -10 20 0 20 105 42<429 429 464 584 416 429> 268 31<128 150> 644 32<201.5 216>
VStem: 218 63<379 422.5> 252 67<580.5 607>
LayerCount: 2
Fore
SplineSet
736 406 m 1x6a
 657 147 l 1
 712 147 l 1
 703 104 l 1
 645 104 l 1
 615 0 l 1
 552 0 l 1
 584 105 l 1
 416 105 l 1
 429 147 l 1
 700 406 l 1
 736 406 l 1x6a
653 333 m 1
 464 147 l 1
 593 147 l 1
 653 333 l 1
650 676 m 1
 195 -10 l 1
 144 -10 l 1x9a
 599 676 l 1
 650 676 l 1
129 608 m 1
 119 615 l 1
 139 653 179 676 224 676 c 0
 278 676 319 643 319 600 c 0x9a
 319 561 295 540 218 513 c 1
 218 510 l 1
 243 504 251 497 260 487 c 0
 274 471 281 451 281 425 c 0
 281 333 204 268 96 268 c 0
 48 268 23 282 23 307 c 0
 23 323 36 335 53 335 c 0
 61 335 74 330 91 318 c 0
 110 305 122 299 134 299 c 0
 182 299 218 339 218 392 c 0x9c
 218 453 181 489 118 489 c 2
 105 489 l 1
 105 498 l 1
 205 517 252 547 252 592 c 0
 252 622 230 644 202 644 c 0
 176 644 159 636 129 608 c 1
EndSplineSet
EndChar

StartChar: questiondown
Encoding: 191 191 126
Width: 500
Flags: MW
HStem: -205 22<156.5 203.5 156.5 216.5> 368 105<300 329 300 329.5>
VStem: 28 74<-125 -72.5 -126 -53.5> 252 64<-128 -126> 262 105<406.5 435>
LayerCount: 2
Fore
SplineSet
367 421 m 0xe8
 367 391 344 368 315 368 c 0
 284 368 262 392 262 421 c 0
 262 449 286 473 314 473 c 0
 344 473 367 450 367 421 c 0xe8
284 285 m 1
 301 283 l 1
 283 183 272 163 189 67 c 0
 126 -6 102 -46 102 -99 c 0
 102 -153 131 -183 182 -183 c 0
 225 -183 252 -165 252 -135 c 0
 252 -117 237 -108 237 -84 c 0
 237 -62 253 -46 277 -46 c 0
 301 -46 316 -66 316 -96 c 0xf0
 316 -160 258 -205 175 -205 c 0
 86 -205 28 -166 28 -84 c 0
 28 -23 48 12 162 105 c 0
 233 162 263 200 277 256 c 2
 284 285 l 1
EndSplineSet
EndChar

StartChar: Agrave
Encoding: 192 192 127
Width: 611
Flags: MW
HStem: 0 20 226 36<175 369 175 374 154 369>
LayerCount: 2
Fore
SplineSet
564 0 m 1
 319 0 l 1
 319 16 l 1
 382 19 396 35 396 69 c 0
 396 77 395 86 394 95 c 2
 374 226 l 1
 154 226 l 1
 95 115 l 2
 81 89 73 65 73 49 c 0
 73 30 88 18 135 16 c 1
 135 0 l 1
 -51 0 l 1
 -51 16 l 1
 -5 25 8 42 83 172 c 2
 368 668 l 1
 394 668 l 1
 486 115 l 2
 500 31 511 20 564 16 c 1
 564 0 l 1
369 262 m 1
 324 525 l 1
 175 262 l 1
 369 262 l 1
500 742 m 1
 468 742 l 1
 328 848 l 2
 315 858 309 868 309 880 c 0
 309 902 325 914 345 914 c 0
 360 914 372 908 385 891 c 2
 500 742 l 1
EndSplineSet
EndChar

StartChar: Aacute
Encoding: 193 193 128
Width: 611
Flags: MW
HStem: 0 20 226 36<175 369 175 374 154 369>
LayerCount: 2
Fore
SplineSet
564 0 m 1
 319 0 l 1
 319 16 l 1
 382 19 396 35 396 69 c 0
 396 77 395 86 394 95 c 2
 374 226 l 1
 154 226 l 1
 95 115 l 2
 81 89 73 65 73 49 c 0
 73 30 88 18 135 16 c 1
 135 0 l 1
 -51 0 l 1
 -51 16 l 1
 -5 25 8 42 83 172 c 2
 368 668 l 1
 394 668 l 1
 486 115 l 2
 500 31 511 20 564 16 c 1
 564 0 l 1
369 262 m 1
 324 525 l 1
 175 262 l 1
 369 262 l 1
292 744 m 1
 454 904 l 2
 461 911 469 914 479 914 c 0
 499 914 515 898 515 878 c 0
 515 866 510 857 498 850 c 2
 327 744 l 1
 292 744 l 1
EndSplineSet
EndChar

StartChar: Acircumflex
Encoding: 194 194 129
Width: 611
Flags: MW
HStem: 0 20 226 36<175 369 175 374 154 369>
LayerCount: 2
Fore
SplineSet
564 0 m 1
 319 0 l 1
 319 16 l 1
 382 19 396 35 396 69 c 0
 396 77 395 86 394 95 c 2
 374 226 l 1
 154 226 l 1
 95 115 l 2
 81 89 73 65 73 49 c 0
 73 30 88 18 135 16 c 1
 135 0 l 1
 -51 0 l 1
 -51 16 l 1
 -5 25 8 42 83 172 c 2
 368 668 l 1
 394 668 l 1
 486 115 l 2
 500 31 511 20 564 16 c 1
 564 0 l 1
369 262 m 1
 324 525 l 1
 175 262 l 1
 369 262 l 1
548 742 m 1
 512 742 l 1
 430 846 l 1
 293 742 l 1
 254 742 l 1
 411 911 l 1
 460 911 l 1
 548 742 l 1
EndSplineSet
EndChar

StartChar: Atilde
Encoding: 195 195 130
Width: 611
Flags: MW
HStem: 0 20 226 36<175 369 175 374 154 369> 770 60<485.5 501> 814 59<319 333.5>
LayerCount: 2
Fore
SplineSet
564 0 m 1xe0
 319 0 l 1
 319 16 l 1
 382 19 396 35 396 69 c 0
 396 77 395 86 394 95 c 2
 374 226 l 1
 154 226 l 1
 95 115 l 2
 81 89 73 65 73 49 c 0
 73 30 88 18 135 16 c 1
 135 0 l 1
 -51 0 l 1
 -51 16 l 1
 -5 25 8 42 83 172 c 2
 368 668 l 1
 394 668 l 1
 486 115 l 2
 500 31 511 20 564 16 c 1
 564 0 l 1xe0
369 262 m 1
 324 525 l 1
 175 262 l 1
 369 262 l 1
544 874 m 1
 572 874 l 1
 558 807 525 770 477 770 c 0x20
 464 770 446 775 420 785 c 0
 366 807 342 814 325 814 c 0
 300 814 284 799 274 767 c 1
 245 767 l 1
 265 844 293 873 345 873 c 0x10
 368 873 393 866 431 849 c 0
 461 835 478 830 493 830 c 0
 520 830 533 841 544 874 c 1
EndSplineSet
EndChar

StartChar: Adieresis
Encoding: 196 196 131
Width: 611
Flags: MW
HStem: 0 20 226 36<175 369 175 374 154 369> 758 98<292 318.5 292 318.5 492 518.5>
VStem: 256 98<794 819.5 793.5 821.5> 456 98<794 819.5 793.5 821.5>
LayerCount: 2
Fore
SplineSet
564 0 m 1
 319 0 l 1
 319 16 l 1
 382 19 396 35 396 69 c 0
 396 77 395 86 394 95 c 2
 374 226 l 1
 154 226 l 1
 95 115 l 2
 81 89 73 65 73 49 c 0
 73 30 88 18 135 16 c 1
 135 0 l 1
 -51 0 l 1
 -51 16 l 1
 -5 25 8 42 83 172 c 2
 368 668 l 1
 394 668 l 1
 486 115 l 2
 500 31 511 20 564 16 c 1
 564 0 l 1
369 262 m 1
 324 525 l 1
 175 262 l 1
 369 262 l 1
554 807 m 0
 554 780 532 758 505 758 c 0
 477 758 456 780 456 808 c 0
 456 835 478 856 506 856 c 0
 531 856 554 832 554 807 c 0
354 807 m 0
 354 780 332 758 305 758 c 0
 277 758 256 780 256 808 c 0
 256 835 278 856 306 856 c 0
 331 856 354 832 354 807 c 0
EndSplineSet
EndChar

StartChar: Aring
Encoding: 197 197 132
Width: 611
Flags: MW
HStem: 0 20 226 36<175 369 175 374 154 369> 758 34<385.5 423 385.5 432.5> 923 34<386.5 422.5>
VStem: 305 34<839.5 875.5 839.5 885> 471 34<838.5 875.5>
LayerCount: 2
Fore
SplineSet
564 0 m 1
 319 0 l 1
 319 16 l 1
 382 19 396 35 396 69 c 0
 396 77 395 86 394 95 c 2
 374 226 l 1
 154 226 l 1
 95 115 l 2
 81 89 73 65 73 49 c 0
 73 30 88 18 135 16 c 1
 135 0 l 1
 -51 0 l 1
 -51 16 l 1
 -5 25 8 42 83 172 c 2
 368 668 l 1
 394 668 l 1
 486 115 l 2
 500 31 511 20 564 16 c 1
 564 0 l 1
369 262 m 1
 324 525 l 1
 175 262 l 1
 369 262 l 1
505 857 m 0
 505 803 460 758 405 758 c 0
 348 758 305 802 305 858 c 0
 305 912 350 957 404 957 c 0
 460 957 505 912 505 857 c 0
471 857 m 0
 471 894 441 923 404 923 c 0
 369 923 339 893 339 858 c 0
 339 821 367 792 404 792 c 0
 442 792 471 820 471 857 c 0
EndSplineSet
EndChar

StartChar: AE
Encoding: 198 198 133
Width: 889
Flags: MW
HStem: 0 20 234 37<249 411 221 422> 620 33<646.5 752>
LayerCount: 2
Fore
SplineSet
911 653 m 1
 878 500 l 1
 861 502 l 1
 862 515 862 532 862 538 c 0
 862 608 834 620 670 620 c 0
 623 620 615 615 606 583 c 2
 545 361 l 1
 704 362 714 367 756 458 c 1
 774 454 l 1
 705 222 l 1
 688 226 l 1
 692 250 694 264 694 278 c 0
 694 319 673 328 576 328 c 2
 536 328 l 1
 475 111 465 75 465 62 c 0
 465 42 481 33 516 33 c 2
 546 33 l 2
 696 33 750 60 826 169 c 1
 844 164 l 1
 780 0 l 1
 282 0 l 1
 282 16 l 1
 343 22 353 32 362 64 c 2
 411 234 l 1
 221 234 l 1
 213 224 205 213 196 204 c 1
 135 131 96 70 96 47 c 0
 96 27 107 22 160 16 c 1
 160 0 l 1
 -27 0 l 1
 -27 16 l 1
 -2 22 9 32 57 92 c 2
 426 557 l 2
 456 595 458 598 458 610 c 0
 458 627 447 634 420 636 c 2
 394 638 l 1
 394 653 l 1
 911 653 l 1
517 613 m 1
 249 271 l 1
 422 271 l 1
 517 613 l 1
EndSplineSet
EndChar

StartChar: Ccedilla
Encoding: 199 199 134
Width: 667
Flags: MW
HStem: -217 35<216 239 211.5 265> -18 45<319 378.5> 630 36<448 488.5 365 527>
VStem: 275 74<-154 -128>
LayerCount: 2
Fore
SplineSet
689 664 m 1
 652 464 l 1
 634 467 l 1
 626 580 573 630 481 630 c 0
 415 630 342 591 286 532 c 0
 217 459 178 351 178 232 c 0
 178 93 240 27 353 27 c 0
 435 27 493 56 583 145 c 1
 600 131 l 1
 510 25 430 -18 327 -18 c 0
 311 -18 295 -17 277 -14 c 1
 242 -66 l 1
 252 -64 258 -63 267 -63 c 0
 317 -63 349 -89 349 -131 c 0
 349 -181 300 -217 230 -217 c 0
 202 -217 179 -212 137 -196 c 1
 154 -167 l 1
 184 -178 201 -182 222 -182 c 0
 256 -182 275 -167 275 -141 c 0
 275 -115 256 -97 229 -97 c 0
 219 -97 211 -99 197 -104 c 1
 188 -96 l 1
 244 -6 l 1
 135 18 66 118 66 243 c 0
 66 466 258 666 472 666 c 0
 505 666 545 660 589 649 c 0
 610 644 621 642 630 642 c 0
 650 642 660 648 668 664 c 1
 689 664 l 1
EndSplineSet
EndChar

StartChar: Egrave
Encoding: 200 200 135
Width: 611
Flags: MW
HStem: 0 33<227 304 227 506> 325 36<253 322 244 331> 620 33<363.5 470.5>
LayerCount: 2
Fore
SplineSet
634 653 m 1
 603 499 l 1
 581 501 l 1
 583 518 584 534 584 547 c 0
 584 607 549 620 392 620 c 0
 335 620 325 616 319 594 c 2
 253 361 l 1
 331 361 l 2
 421 361 432 373 470 458 c 1
 488 454 l 1
 420 222 l 1
 400 227 l 1
 405 249 407 261 407 279 c 0
 407 296 405 305 400 310 c 0
 389 320 362 325 322 325 c 2
 244 325 l 1
 212 213 l 2
 187 125 176 79 176 67 c 0
 176 43 199 33 255 33 c 0
 353 33 407 45 458 72 c 0
 490 89 514 117 552 170 c 1
 568 162 l 1
 506 0 l 1
 -1 0 l 1
 -1 16 l 1
 55 26 64 32 80 90 c 2
 203 532 l 2
 209 552 214 584 214 596 c 0
 214 623 199 631 137 637 c 1
 137 653 l 1
 634 653 l 1
526 742 m 1
 494 742 l 1
 354 848 l 2
 341 858 335 868 335 880 c 0
 335 902 351 914 371 914 c 0
 386 914 398 908 411 891 c 2
 526 742 l 1
EndSplineSet
EndChar

StartChar: Eacute
Encoding: 201 201 136
Width: 611
Flags: MW
HStem: 0 33<227 304 227 506> 325 36<253 322 244 331> 620 33<363.5 470.5>
LayerCount: 2
Fore
SplineSet
634 653 m 1
 603 499 l 1
 581 501 l 1
 583 518 584 534 584 547 c 0
 584 607 549 620 392 620 c 0
 335 620 325 616 319 594 c 2
 253 361 l 1
 331 361 l 2
 421 361 432 373 470 458 c 1
 488 454 l 1
 420 222 l 1
 400 227 l 1
 405 249 407 261 407 279 c 0
 407 296 405 305 400 310 c 0
 389 320 362 325 322 325 c 2
 244 325 l 1
 212 213 l 2
 187 125 176 79 176 67 c 0
 176 43 199 33 255 33 c 0
 353 33 407 45 458 72 c 0
 490 89 514 117 552 170 c 1
 568 162 l 1
 506 0 l 1
 -1 0 l 1
 -1 16 l 1
 55 26 64 32 80 90 c 2
 203 532 l 2
 209 552 214 584 214 596 c 0
 214 623 199 631 137 637 c 1
 137 653 l 1
 634 653 l 1
322 744 m 1
 484 904 l 2
 491 911 499 914 509 914 c 0
 529 914 545 898 545 878 c 0
 545 866 540 857 528 850 c 2
 357 744 l 1
 322 744 l 1
EndSplineSet
EndChar

StartChar: Ecircumflex
Encoding: 202 202 137
Width: 611
Flags: MW
HStem: 0 33<227 304 227 506> 325 36<253 322 244 331> 620 33<363.5 470.5>
LayerCount: 2
Fore
SplineSet
634 653 m 1
 603 499 l 1
 581 501 l 1
 583 518 584 534 584 547 c 0
 584 607 549 620 392 620 c 0
 335 620 325 616 319 594 c 2
 253 361 l 1
 331 361 l 2
 421 361 432 373 470 458 c 1
 488 454 l 1
 420 222 l 1
 400 227 l 1
 405 249 407 261 407 279 c 0
 407 296 405 305 400 310 c 0
 389 320 362 325 322 325 c 2
 244 325 l 1
 212 213 l 2
 187 125 176 79 176 67 c 0
 176 43 199 33 255 33 c 0
 353 33 407 45 458 72 c 0
 490 89 514 117 552 170 c 1
 568 162 l 1
 506 0 l 1
 -1 0 l 1
 -1 16 l 1
 55 26 64 32 80 90 c 2
 203 532 l 2
 209 552 214 584 214 596 c 0
 214 623 199 631 137 637 c 1
 137 653 l 1
 634 653 l 1
577 742 m 1
 541 742 l 1
 459 846 l 1
 322 742 l 1
 283 742 l 1
 440 911 l 1
 489 911 l 1
 577 742 l 1
EndSplineSet
EndChar

StartChar: Edieresis
Encoding: 203 203 138
Width: 611
Flags: MW
HStem: 0 33<227 304 227 506> 325 36<253 322 244 331> 620 33<363.5 470.5> 758 98<323 349.5 323 349.5 523 549.5>
VStem: 287 98<794 819.5 793.5 821.5> 487 98<794 819.5 793.5 821.5>
LayerCount: 2
Fore
SplineSet
634 653 m 1
 603 499 l 1
 581 501 l 1
 583 518 584 534 584 547 c 0
 584 607 549 620 392 620 c 0
 335 620 325 616 319 594 c 2
 253 361 l 1
 331 361 l 2
 421 361 432 373 470 458 c 1
 488 454 l 1
 420 222 l 1
 400 227 l 1
 405 249 407 261 407 279 c 0
 407 296 405 305 400 310 c 0
 389 320 362 325 322 325 c 2
 244 325 l 1
 212 213 l 2
 187 125 176 79 176 67 c 0
 176 43 199 33 255 33 c 0
 353 33 407 45 458 72 c 0
 490 89 514 117 552 170 c 1
 568 162 l 1
 506 0 l 1
 -1 0 l 1
 -1 16 l 1
 55 26 64 32 80 90 c 2
 203 532 l 2
 209 552 214 584 214 596 c 0
 214 623 199 631 137 637 c 1
 137 653 l 1
 634 653 l 1
585 807 m 0
 585 780 563 758 536 758 c 0
 508 758 487 780 487 808 c 0
 487 835 509 856 537 856 c 0
 562 856 585 832 585 807 c 0
385 807 m 0
 385 780 363 758 336 758 c 0
 308 758 287 780 287 808 c 0
 287 835 309 856 337 856 c 0
 362 856 385 832 385 807 c 0
EndSplineSet
EndChar

StartChar: Igrave
Encoding: 204 204 139
Width: 333
Flags: MW
HStem: 0 20 633 20<137 384 384 384>
LayerCount: 2
Fore
SplineSet
384 653 m 1
 384 637 l 1
 328 630 319 621 302 560 c 2
 182 131 l 2
 173 99 167 75 167 55 c 0
 167 27 179 23 236 16 c 1
 236 0 l 1
 -8 0 l 1
 -8 16 l 1
 47 26 61 35 76 91 c 2
 196 532 l 2
 203 557 209 578 209 594 c 0
 209 619 193 634 137 637 c 1
 137 653 l 1
 384 653 l 1
398 742 m 1
 366 742 l 1
 226 848 l 2
 213 858 207 868 207 880 c 0
 207 902 223 914 243 914 c 0
 258 914 270 908 283 891 c 2
 398 742 l 1
EndSplineSet
EndChar

StartChar: Iacute
Encoding: 205 205 140
Width: 333
Flags: MW
HStem: 0 20 633 20<137 384 384 384>
LayerCount: 2
Fore
SplineSet
384 653 m 1
 384 637 l 1
 328 630 319 621 302 560 c 2
 182 131 l 2
 173 99 167 75 167 55 c 0
 167 27 179 23 236 16 c 1
 236 0 l 1
 -8 0 l 1
 -8 16 l 1
 47 26 61 35 76 91 c 2
 196 532 l 2
 203 557 209 578 209 594 c 0
 209 619 193 634 137 637 c 1
 137 653 l 1
 384 653 l 1
191 744 m 1
 353 904 l 2
 360 911 368 914 378 914 c 0
 398 914 414 898 414 878 c 0
 414 866 409 857 397 850 c 2
 226 744 l 1
 191 744 l 1
EndSplineSet
EndChar

StartChar: Icircumflex
Encoding: 206 206 141
Width: 333
Flags: MW
HStem: 0 20 633 20<137 384 384 384>
LayerCount: 2
Fore
SplineSet
384 653 m 1
 384 637 l 1
 328 630 319 621 302 560 c 2
 182 131 l 2
 173 99 167 75 167 55 c 0
 167 27 179 23 236 16 c 1
 236 0 l 1
 -8 0 l 1
 -8 16 l 1
 47 26 61 35 76 91 c 2
 196 532 l 2
 203 557 209 578 209 594 c 0
 209 619 193 634 137 637 c 1
 137 653 l 1
 384 653 l 1
450 742 m 1
 414 742 l 1
 332 846 l 1
 195 742 l 1
 156 742 l 1
 313 911 l 1
 362 911 l 1
 450 742 l 1
EndSplineSet
EndChar

StartChar: Idieresis
Encoding: 207 207 142
Width: 333
Flags: MW
HStem: 0 20 633 20<137 384 384 384> 758 98<195 221.5 195 221.5 395 421.5>
VStem: 159 98<794 819.5 793.5 821.5> 359 98<794 819.5 793.5 821.5>
LayerCount: 2
Fore
SplineSet
384 653 m 1
 384 637 l 1
 328 630 319 621 302 560 c 2
 182 131 l 2
 173 99 167 75 167 55 c 0
 167 27 179 23 236 16 c 1
 236 0 l 1
 -8 0 l 1
 -8 16 l 1
 47 26 61 35 76 91 c 2
 196 532 l 2
 203 557 209 578 209 594 c 0
 209 619 193 634 137 637 c 1
 137 653 l 1
 384 653 l 1
457 807 m 0
 457 780 435 758 408 758 c 0
 380 758 359 780 359 808 c 0
 359 835 381 856 409 856 c 0
 434 856 457 832 457 807 c 0
257 807 m 0
 257 780 235 758 208 758 c 0
 180 758 159 780 159 808 c 0
 159 835 181 856 209 856 c 0
 234 856 257 832 257 807 c 0
EndSplineSet
EndChar

StartChar: Eth
Encoding: 208 208 143
Width: 722
Flags: MW
HStem: 0 20 326 42<60 138 48 150 250 391> 623 30<353.5 406 406 445.5>
LayerCount: 2
Fore
SplineSet
130 653 m 1
 406 653 l 2
 589 653 700 562 700 384 c 0
 700 266 637 156 540 83 c 0
 466 27 365 0 237 0 c 2
 -8 0 l 1
 -8 16 l 1
 48 26 57 31 73 90 c 2
 138 326 l 1
 48 326 l 1
 60 368 l 1
 150 368 l 1
 196 532 l 2
 203 557 207 580 207 596 c 0
 207 623 193 631 130 637 c 1
 130 653 l 1
238 326 m 1
 192 162 l 2
 176 104 170 80 170 67 c 0
 170 41 193 30 239 30 c 0
 336 30 420 60 479 120 c 0
 547 188 589 295 589 404 c 0
 589 548 516 623 375 623 c 0
 332 623 319 616 313 594 c 2
 250 368 l 1
 403 368 l 1
 391 326 l 1
 238 326 l 1
EndSplineSet
EndChar

StartChar: Ntilde
Encoding: 209 209 144
Width: 667
Flags: MW
HStem: -15 20 0 20 633 20<117 277 277 277 529 727 727 727> 770 60<550.5 566> 814 59<384 398.5>
LayerCount: 2
Fore
SplineSet
727 653 m 1x60
 727 637 l 1
 664 623 662 621 625 492 c 2
 479 -15 l 1
 461 -15 l 1xb0
 231 535 l 1
 117 113 l 2
 111 92 108 72 108 59 c 0
 108 31 126 20 178 16 c 1
 178 0 l 1
 -20 0 l 1
 -20 16 l 1
 36 24 50 40 86 168 c 2
 203 583 l 1
 188 618 164 637 117 637 c 1
 117 653 l 1
 277 653 l 1
 484 154 l 1
 590 542 l 2
 596 563 598 574 598 586 c 0
 598 622 586 632 529 637 c 1
 529 653 l 1
 727 653 l 1x60
609 874 m 1
 637 874 l 1
 623 807 590 770 542 770 c 0x10
 529 770 511 775 485 785 c 0
 431 807 407 814 390 814 c 0
 365 814 349 799 339 767 c 1
 310 767 l 1
 330 844 358 873 410 873 c 0x08
 433 873 458 866 496 849 c 0
 526 835 543 830 558 830 c 0
 585 830 598 841 609 874 c 1
EndSplineSet
EndChar

StartChar: Ograve
Encoding: 210 210 145
Width: 722
Flags: MW
HStem: -18 33<253 315> 633 33<431.5 474 431.5 505>
LayerCount: 2
Fore
SplineSet
699 418 m 0
 699 272 611 133 492 53 c 0
 427 9 352 -18 278 -18 c 0
 148 -18 60 67 60 216 c 0
 60 338 133 478 237 569 c 0
 306 629 389 666 474 666 c 0
 618 667 699 570 699 418 c 0
594 481 m 0
 594 575 545 633 465 633 c 0
 391 633 328 582 279 516 c 0
 206 417 165 284 165 184 c 0
 165 75 211 15 295 15 c 0
 362 15 419 54 465 110 c 0
 549 214 594 379 594 481 c 0
587 742 m 1
 555 742 l 1
 415 848 l 2
 402 858 396 868 396 880 c 0
 396 902 412 914 432 914 c 0
 447 914 459 908 472 891 c 2
 587 742 l 1
EndSplineSet
EndChar

StartChar: Oacute
Encoding: 211 211 146
Width: 722
Flags: MW
HStem: -18 33<253 315> 633 33<431.5 474 431.5 505>
LayerCount: 2
Fore
SplineSet
699 418 m 0
 699 272 611 133 492 53 c 0
 427 9 352 -18 278 -18 c 0
 148 -18 60 67 60 216 c 0
 60 338 133 478 237 569 c 0
 306 629 389 666 474 666 c 0
 618 667 699 570 699 418 c 0
594 481 m 0
 594 575 545 633 465 633 c 0
 391 633 328 582 279 516 c 0
 206 417 165 284 165 184 c 0
 165 75 211 15 295 15 c 0
 362 15 419 54 465 110 c 0
 549 214 594 379 594 481 c 0
383 744 m 1
 545 904 l 2
 552 911 560 914 570 914 c 0
 590 914 606 898 606 878 c 0
 606 866 601 857 589 850 c 2
 418 744 l 1
 383 744 l 1
EndSplineSet
EndChar

StartChar: Ocircumflex
Encoding: 212 212 147
Width: 722
Flags: MW
HStem: -18 33<253 315> 633 33<431.5 474 431.5 505>
LayerCount: 2
Fore
SplineSet
699 418 m 0
 699 272 611 133 492 53 c 0
 427 9 352 -18 278 -18 c 0
 148 -18 60 67 60 216 c 0
 60 338 133 478 237 569 c 0
 306 629 389 666 474 666 c 0
 618 667 699 570 699 418 c 0
594 481 m 0
 594 575 545 633 465 633 c 0
 391 633 328 582 279 516 c 0
 206 417 165 284 165 184 c 0
 165 75 211 15 295 15 c 0
 362 15 419 54 465 110 c 0
 549 214 594 379 594 481 c 0
638 742 m 1
 602 742 l 1
 520 846 l 1
 383 742 l 1
 344 742 l 1
 501 911 l 1
 550 911 l 1
 638 742 l 1
EndSplineSet
EndChar

StartChar: Otilde
Encoding: 213 213 148
Width: 722
Flags: MW
HStem: -18 33<253 315> 633 33<431.5 474 431.5 505> 770 60<575.5 591> 814 59<409 423.5>
LayerCount: 2
Fore
SplineSet
699 418 m 0xe0
 699 272 611 133 492 53 c 0
 427 9 352 -18 278 -18 c 0
 148 -18 60 67 60 216 c 0
 60 338 133 478 237 569 c 0
 306 629 389 666 474 666 c 0
 618 667 699 570 699 418 c 0xe0
594 481 m 0
 594 575 545 633 465 633 c 0
 391 633 328 582 279 516 c 0
 206 417 165 284 165 184 c 0
 165 75 211 15 295 15 c 0
 362 15 419 54 465 110 c 0
 549 214 594 379 594 481 c 0
634 874 m 1
 662 874 l 1
 648 807 615 770 567 770 c 0x20
 554 770 536 775 510 785 c 0
 456 807 432 814 415 814 c 0
 390 814 374 799 364 767 c 1
 335 767 l 1
 355 844 383 873 435 873 c 0x10
 458 873 483 866 521 849 c 0
 551 835 568 830 583 830 c 0
 610 830 623 841 634 874 c 1
EndSplineSet
EndChar

StartChar: Odieresis
Encoding: 214 214 149
Width: 722
Flags: MW
HStem: -18 33<253 315> 633 33<431.5 474 431.5 505> 758 98<381 407.5 381 407.5 581 607.5>
VStem: 345 98<794 819.5 793.5 821.5> 545 98<794 819.5 793.5 821.5>
LayerCount: 2
Fore
SplineSet
699 418 m 0
 699 272 611 133 492 53 c 0
 427 9 352 -18 278 -18 c 0
 148 -18 60 67 60 216 c 0
 60 338 133 478 237 569 c 0
 306 629 389 666 474 666 c 0
 618 667 699 570 699 418 c 0
594 481 m 0
 594 575 545 633 465 633 c 0
 391 633 328 582 279 516 c 0
 206 417 165 284 165 184 c 0
 165 75 211 15 295 15 c 0
 362 15 419 54 465 110 c 0
 549 214 594 379 594 481 c 0
643 807 m 0
 643 780 621 758 594 758 c 0
 566 758 545 780 545 808 c 0
 545 835 567 856 595 856 c 0
 620 856 643 832 643 807 c 0
443 807 m 0
 443 780 421 758 394 758 c 0
 366 758 345 780 345 808 c 0
 345 835 367 856 395 856 c 0
 420 856 443 832 443 807 c 0
EndSplineSet
EndChar

StartChar: multiply
Encoding: 215 215 150
Width: 675
Flags: W
LayerCount: 2
Fore
SplineSet
582 56 m 1
 534 8 l 1
 337 205 l 1
 141 8 l 1
 93 56 l 1
 289 253 l 1
 93 449 l 1
 141 497 l 1
 337 300 l 1
 534 497 l 1
 582 449 l 1
 385 253 l 1
 582 56 l 1
EndSplineSet
EndChar

StartChar: Oslash
Encoding: 216 216 151
Width: 722
Flags: MW
HStem: -18 33<278 331.5 278 386> 633 33<431 481>
LayerCount: 2
Fore
SplineSet
669 722 m 1
 605 626 l 1
 639 599 652 585 668 557 c 0
 688 521 699 475 699 431 c 0
 699 205 491 -18 281 -18 c 0
 250 -18 225 -12 187 3 c 1
 113 -105 l 1
 69 -105 l 1
 155 22 l 1
 89 70 60 131 60 222 c 0
 60 344 125 472 234 565 c 0
 311 630 394 666 468 666 c 0
 505 666 535 660 573 644 c 1
 625 722 l 1
 669 722 l 1
190 74 m 1
 546 607 l 1
 521 626 498 633 464 633 c 0
 391 633 327 592 271 508 c 0
 210 417 165 277 165 176 c 0
 165 138 172 108 190 74 c 1
570 574 m 1
 215 44 l 1
 238 23 261 15 295 15 c 0
 368 15 431 55 487 138 c 0
 548 230 594 374 594 475 c 0
 594 514 587 545 570 574 c 1
EndSplineSet
EndChar

StartChar: Ugrave
Encoding: 217 217 152
Width: 722
Flags: MW
HStem: -18 41<291 355.5> 633 20<127 399 399 399 567 765 765 765>
VStem: 102 90<105.5 152 105.5 173>
LayerCount: 2
Fore
SplineSet
765 653 m 1
 765 637 l 1
 703 623 699 618 661 488 c 2
 578 203 l 2
 556 128 524 70 481 34 c 0
 438 -3 388 -18 323 -18 c 0
 192 -18 102 51 102 146 c 0
 102 200 120 267 146 362 c 2
 198 551 l 2
 203 569 207 584 207 596 c 0
 207 622 189 635 127 637 c 1
 127 653 l 1
 399 653 l 1
 399 637 l 1
 331 630 314 615 295 546 c 2
 232 320 l 2
 205 225 192 163 192 141 c 0
 192 70 252 23 330 23 c 0
 443 23 505 91 550 255 c 2
 614 488 l 2
 630 547 637 582 637 591 c 0
 637 621 620 632 567 637 c 1
 567 653 l 1
 765 653 l 1
588 742 m 1
 556 742 l 1
 416 848 l 2
 403 858 397 868 397 880 c 0
 397 902 413 914 433 914 c 0
 448 914 460 908 473 891 c 2
 588 742 l 1
EndSplineSet
EndChar

StartChar: Uacute
Encoding: 218 218 153
Width: 722
Flags: MW
HStem: -18 41<291 355.5> 633 20<127 399 399 399 567 765 765 765>
VStem: 102 90<105.5 152 105.5 173>
LayerCount: 2
Fore
SplineSet
765 653 m 1
 765 637 l 1
 703 623 699 618 661 488 c 2
 578 203 l 2
 556 128 524 70 481 34 c 0
 438 -3 388 -18 323 -18 c 0
 192 -18 102 51 102 146 c 0
 102 200 120 267 146 362 c 2
 198 551 l 2
 203 569 207 584 207 596 c 0
 207 622 189 635 127 637 c 1
 127 653 l 1
 399 653 l 1
 399 637 l 1
 331 630 314 615 295 546 c 2
 232 320 l 2
 205 225 192 163 192 141 c 0
 192 70 252 23 330 23 c 0
 443 23 505 91 550 255 c 2
 614 488 l 2
 630 547 637 582 637 591 c 0
 637 621 620 632 567 637 c 1
 567 653 l 1
 765 653 l 1
383 744 m 1
 545 904 l 2
 552 911 560 914 570 914 c 0
 590 914 606 898 606 878 c 0
 606 866 601 857 589 850 c 2
 418 744 l 1
 383 744 l 1
EndSplineSet
EndChar

StartChar: Ucircumflex
Encoding: 219 219 154
Width: 722
Flags: MW
HStem: -18 41<291 355.5> 633 20<127 399 399 399 567 765 765 765>
VStem: 102 90<105.5 152 105.5 173>
LayerCount: 2
Fore
SplineSet
765 653 m 1
 765 637 l 1
 703 623 699 618 661 488 c 2
 578 203 l 2
 556 128 524 70 481 34 c 0
 438 -3 388 -18 323 -18 c 0
 192 -18 102 51 102 146 c 0
 102 200 120 267 146 362 c 2
 198 551 l 2
 203 569 207 584 207 596 c 0
 207 622 189 635 127 637 c 1
 127 653 l 1
 399 653 l 1
 399 637 l 1
 331 630 314 615 295 546 c 2
 232 320 l 2
 205 225 192 163 192 141 c 0
 192 70 252 23 330 23 c 0
 443 23 505 91 550 255 c 2
 614 488 l 2
 630 547 637 582 637 591 c 0
 637 621 620 632 567 637 c 1
 567 653 l 1
 765 653 l 1
635 742 m 1
 599 742 l 1
 517 846 l 1
 380 742 l 1
 341 742 l 1
 498 911 l 1
 547 911 l 1
 635 742 l 1
EndSplineSet
EndChar

StartChar: Udieresis
Encoding: 220 220 155
Width: 722
Flags: MW
HStem: -18 41<291 355.5> 633 20<127 399 399 399 567 765 765 765> 758 98<383 409.5 383 409.5 583 609.5>
VStem: 102 90<105.5 152 105.5 173> 347 98<794 819.5 793.5 821.5> 547 98<794 819.5 793.5 821.5>
LayerCount: 2
Fore
SplineSet
765 653 m 1
 765 637 l 1
 703 623 699 618 661 488 c 2
 578 203 l 2
 556 128 524 70 481 34 c 0
 438 -3 388 -18 323 -18 c 0
 192 -18 102 51 102 146 c 0
 102 200 120 267 146 362 c 2
 198 551 l 2
 203 569 207 584 207 596 c 0
 207 622 189 635 127 637 c 1
 127 653 l 1
 399 653 l 1
 399 637 l 1
 331 630 314 615 295 546 c 2
 232 320 l 2
 205 225 192 163 192 141 c 0
 192 70 252 23 330 23 c 0
 443 23 505 91 550 255 c 2
 614 488 l 2
 630 547 637 582 637 591 c 0
 637 621 620 632 567 637 c 1
 567 653 l 1
 765 653 l 1
645 807 m 0
 645 780 623 758 596 758 c 0
 568 758 547 780 547 808 c 0
 547 835 569 856 597 856 c 0
 622 856 645 832 645 807 c 0
445 807 m 0
 445 780 423 758 396 758 c 0
 368 758 347 780 347 808 c 0
 347 835 369 856 397 856 c 0
 422 856 445 832 445 807 c 0
EndSplineSet
EndChar

StartChar: Yacute
Encoding: 221 221 156
Width: 556
Flags: MW
HStem: 0 20 633 20<91 330 330 330 444 633 633 633>
LayerCount: 2
Fore
SplineSet
633 653 m 1
 633 637 l 1
 604 627 596 617 563 576 c 2
 344 306 l 1
 308 183 l 2
 285 104 278 77 278 56 c 0
 278 31 292 22 331 19 c 2
 367 16 l 1
 367 0 l 1
 78 0 l 1
 78 16 l 1
 144 20 167 33 185 97 c 2
 244 302 l 1
 168 569 l 2
 153 621 147 629 91 637 c 1
 91 653 l 1
 330 653 l 1
 330 637 l 1
 270 631 258 623 258 601 c 0
 258 586 270 542 294 457 c 2
 325 347 l 1
 364 393 l 2
 469 517 513 579 513 606 c 0
 513 623 502 631 473 634 c 2
 444 637 l 1
 444 653 l 1
 633 653 l 1
301 744 m 1
 463 904 l 2
 470 911 478 914 488 914 c 0
 508 914 524 898 524 878 c 0
 524 866 519 857 507 850 c 2
 336 744 l 1
 301 744 l 1
EndSplineSet
EndChar

StartChar: Thorn
Encoding: 222 222 157
Width: 611
Flags: MW
HStem: 0 20 170 36<274 328.5 258 336> 488 30<318 358 358 379> 633 20<150 385 385 385>
LayerCount: 2
Fore
SplineSet
302 518 m 1
 358 518 l 2
 494 518 569 474 569 374 c 0
 569 314 539 252 487 216 c 0
 445 186 377 170 295 170 c 0
 253 170 231 172 206 180 c 1
 189 120 l 2
 179 85 177 75 177 63 c 0
 177 28 180 25 243 16 c 1
 243 0 l 1
 0 0 l 1
 0 16 l 1
 57 24 65 29 82 90 c 2
 200 515 l 2
 213 563 217 580 217 595 c 0
 217 622 207 630 150 637 c 1
 150 653 l 1
 385 653 l 1
 385 637 l 1
 345 632 331 625 322 591 c 2
 302 518 l 1
286 459 m 2
 215 211 l 1
 245 206 249 206 267 206 c 0
 390 206 466 248 466 374 c 0
 466 448 426 488 332 488 c 0
 304 488 292 480 286 459 c 2
EndSplineSet
EndChar

StartChar: germandbls
Encoding: 223 223 158
Width: 500
Flags: MW
HStem: -207 24<-89 -59 -89 -50> -13 22<244 262.5 244 264> 656 23<321.5 371>
VStem: -168 67<-177.5 -132> 161 70<18.5 67.5> 367 87<228 266.5 209.5 297> 413 80<524 587.5 511.5 602.5>
LayerCount: 2
Fore
SplineSet
23 -4 m 2xf2
 95 315 l 2
 153 571 229 679 354 679 c 0
 437 679 493 627 493 548 c 0xe2
 493 475 449 429 338 387 c 2
 330 384 l 1
 330 381 l 1
 362 377 378 372 397 359 c 0
 431 335 454 289 454 244 c 0
 454 175 421 97 370 44 c 0
 336 8 287 -13 241 -13 c 0
 193 -13 161 14 161 53 c 0
 161 82 178 100 205 100 c 0
 228 100 243 84 243 60 c 0
 243 51 241 43 235 33 c 0
 233 29 231 24 231 22 c 0
 231 15 239 9 249 9 c 0
 276 9 300 28 320 63 c 0
 348 114 367 194 367 262 c 0xec
 367 332 341 367 286 369 c 0
 266 370 260 374 260 384 c 0
 260 394 264 397 277 397 c 0
 357 397 413 471 413 577 c 0
 413 628 391 656 351 656 c 0
 292 656 244 582 206 438 c 2
 95 12 l 2
 59 -126 -10 -207 -90 -207 c 0
 -137 -207 -168 -182 -168 -145 c 0
 -168 -119 -153 -103 -129 -103 c 0
 -106 -103 -89 -118 -89 -139 c 0
 -89 -146 -92 -156 -97 -165 c 0
 -100 -169 -101 -172 -101 -175 c 0
 -101 -180 -94 -183 -84 -183 c 0
 -34 -183 -7 -139 23 -4 c 2xf2
EndSplineSet
EndChar

StartChar: agrave
Encoding: 224 224 159
Width: 501
Flags: MW
HStem: -11 49<143 152> -10 20 419 22<286.5 324.5 236.5 326.5> 644 20<281 298.5>
VStem: 17 84<84.5 143.5 84.5 182.5> 297 73<16.5 64>
LayerCount: 2
Fore
SplineSet
463 111 m 1xac
 476 100 l 1
 401 9 377 -10 337 -10 c 0x4c
 309 -10 297 2 297 31 c 0
 297 56 299 64 320 146 c 1
 245 33 187 -11 117 -11 c 0
 61 -11 17 29 17 105 c 0
 17 260 170 441 303 441 c 0
 346 441 375 420 383 383 c 1
 394 431 l 1
 397 434 l 1
 458 441 l 1
 465 438 l 1
 463 429 462 427 459 417 c 0
 412 246 370 74 370 54 c 0
 370 47 376 41 384 41 c 0
 393 41 406 49 436 82 c 2
 463 111 l 1xac
365 361 m 0xbc
 365 396 344 419 309 419 c 0
 264 419 220 388 178 327 c 1
 136 264 101 175 101 112 c 0
 101 57 125 38 161 38 c 0
 211 38 258 93 288 136 c 0
 335 204 365 290 365 361 c 0xbc
446 492 m 1
 414 492 l 1
 274 598 l 2
 261 608 255 618 255 630 c 0
 255 652 271 664 291 664 c 0
 306 664 318 658 331 641 c 2
 446 492 l 1
EndSplineSet
EndChar

StartChar: aacute
Encoding: 225 225 160
Width: 501
Flags: MW
HStem: -11 49<143 152> -10 20 419 22<286.5 324.5 236.5 326.5> 644 20<425 440>
VStem: 17 84<84.5 143.5 84.5 182.5> 297 73<16.5 64>
LayerCount: 2
Fore
SplineSet
463 111 m 1xac
 476 100 l 1
 401 9 377 -10 337 -10 c 0x4c
 309 -10 297 2 297 31 c 0
 297 56 299 64 320 146 c 1
 245 33 187 -11 117 -11 c 0
 61 -11 17 29 17 105 c 0
 17 260 170 441 303 441 c 0
 346 441 375 420 383 383 c 1
 394 431 l 1
 397 434 l 1
 458 441 l 1
 465 438 l 1
 463 429 462 427 459 417 c 0
 412 246 370 74 370 54 c 0
 370 47 376 41 384 41 c 0
 393 41 406 49 436 82 c 2
 463 111 l 1xac
365 361 m 0xbc
 365 396 344 419 309 419 c 0
 264 419 220 388 178 327 c 1
 136 264 101 175 101 112 c 0
 101 57 125 38 161 38 c 0
 211 38 258 93 288 136 c 0
 335 204 365 290 365 361 c 0xbc
243 494 m 1
 405 654 l 2
 412 661 420 664 430 664 c 0
 450 664 466 648 466 628 c 0
 466 616 461 607 449 600 c 2
 278 494 l 1
 243 494 l 1
EndSplineSet
EndChar

StartChar: acircumflex
Encoding: 226 226 161
Width: 501
Flags: MW
HStem: -11 49<143 152> -10 20 419 22<286.5 324.5 236.5 326.5> 641 20<360 409 409 409>
VStem: 17 84<84.5 143.5 84.5 182.5> 297 73<16.5 64>
LayerCount: 2
Fore
SplineSet
463 111 m 1xac
 476 100 l 1
 401 9 377 -10 337 -10 c 0x4c
 309 -10 297 2 297 31 c 0
 297 56 299 64 320 146 c 1
 245 33 187 -11 117 -11 c 0
 61 -11 17 29 17 105 c 0
 17 260 170 441 303 441 c 0
 346 441 375 420 383 383 c 1
 394 431 l 1
 397 434 l 1
 458 441 l 1
 465 438 l 1
 463 429 462 427 459 417 c 0
 412 246 370 74 370 54 c 0
 370 47 376 41 384 41 c 0
 393 41 406 49 436 82 c 2
 463 111 l 1xac
365 361 m 0xbc
 365 396 344 419 309 419 c 0
 264 419 220 388 178 327 c 1
 136 264 101 175 101 112 c 0
 101 57 125 38 161 38 c 0
 211 38 258 93 288 136 c 0
 335 204 365 290 365 361 c 0xbc
497 492 m 1
 461 492 l 1
 379 596 l 1
 242 492 l 1
 203 492 l 1
 360 661 l 1
 409 661 l 1
 497 492 l 1
EndSplineSet
EndChar

StartChar: atilde
Encoding: 227 227 162
Width: 501
Flags: MW
HStem: -11 49<143 152> -10 20 419 22<286.5 324.5 236.5 326.5> 520 60<434.5 450> 564 59<268 282.5>
VStem: 17 84<84.5 143.5 84.5 182.5> 297 73<16.5 64>
LayerCount: 2
Fore
SplineSet
463 111 m 1xa6
 476 100 l 1
 401 9 377 -10 337 -10 c 0x46
 309 -10 297 2 297 31 c 0
 297 56 299 64 320 146 c 1
 245 33 187 -11 117 -11 c 0
 61 -11 17 29 17 105 c 0
 17 260 170 441 303 441 c 0
 346 441 375 420 383 383 c 1
 394 431 l 1
 397 434 l 1
 458 441 l 1
 465 438 l 1
 463 429 462 427 459 417 c 0
 412 246 370 74 370 54 c 0
 370 47 376 41 384 41 c 0
 393 41 406 49 436 82 c 2
 463 111 l 1xa6
365 361 m 0xb6
 365 396 344 419 309 419 c 0
 264 419 220 388 178 327 c 1
 136 264 101 175 101 112 c 0
 101 57 125 38 161 38 c 0
 211 38 258 93 288 136 c 0
 335 204 365 290 365 361 c 0xb6
493 624 m 1
 521 624 l 1
 507 557 474 520 426 520 c 0x16
 413 520 395 525 369 535 c 0
 315 557 291 564 274 564 c 0
 249 564 233 549 223 517 c 1
 194 517 l 1
 214 594 242 623 294 623 c 0x0e
 317 623 342 616 380 599 c 0
 410 585 427 580 442 580 c 0
 469 580 482 591 493 624 c 1
EndSplineSet
EndChar

StartChar: adieresis
Encoding: 228 228 163
Width: 501
Flags: MW
HStem: -11 49<143 152> -10 20 419 22<286.5 324.5 236.5 326.5> 508 98<241 267.5 241 267.5 441 467.5>
VStem: 17 84<84.5 143.5 84.5 182.5> 205 98<544 569.5 543.5 571.5> 297 73<16.5 64> 405 98<544 569.5 543.5 571.5>
LayerCount: 2
Fore
SplineSet
463 111 m 1xa2
 476 100 l 1
 401 9 377 -10 337 -10 c 0
 309 -10 297 2 297 31 c 0x4b
 297 56 299 64 320 146 c 1
 245 33 187 -11 117 -11 c 0
 61 -11 17 29 17 105 c 0
 17 260 170 441 303 441 c 0xac
 346 441 375 420 383 383 c 1
 394 431 l 1
 397 434 l 1
 458 441 l 1
 465 438 l 1
 463 429 462 427 459 417 c 0
 412 246 370 74 370 54 c 0
 370 47 376 41 384 41 c 0
 393 41 406 49 436 82 c 2
 463 111 l 1xa2
365 361 m 0xbb
 365 396 344 419 309 419 c 0
 264 419 220 388 178 327 c 1
 136 264 101 175 101 112 c 0
 101 57 125 38 161 38 c 0
 211 38 258 93 288 136 c 0
 335 204 365 290 365 361 c 0xbb
503 557 m 0
 503 530 481 508 454 508 c 0
 426 508 405 530 405 558 c 0
 405 585 427 606 455 606 c 0
 480 606 503 582 503 557 c 0
303 557 m 0xb4
 303 530 281 508 254 508 c 0
 226 508 205 530 205 558 c 0
 205 585 227 606 255 606 c 0
 280 606 303 582 303 557 c 0xb4
EndSplineSet
EndChar

StartChar: aring
Encoding: 229 229 164
Width: 501
Flags: MW
HStem: -11 49<143 152> -10 20 419 22<286.5 324.5 236.5 326.5> 510 34<333.5 371 333.5 380.5> 675 34<334.5 370.5>
VStem: 17 84<84.5 143.5 84.5 182.5> 253 34<591.5 627.5 591.5 637> 297 73<16.5 64> 419 34<590.5 627.5>
LayerCount: 2
Fore
SplineSet
463 111 m 1xa780
 476 100 l 1
 401 9 377 -10 337 -10 c 0x4780
 309 -10 297 2 297 31 c 0
 297 56 299 64 320 146 c 1
 245 33 187 -11 117 -11 c 0
 61 -11 17 29 17 105 c 0
 17 260 170 441 303 441 c 0
 346 441 375 420 383 383 c 1
 394 431 l 1
 397 434 l 1
 458 441 l 1
 465 438 l 1
 463 429 462 427 459 417 c 0
 412 246 370 74 370 54 c 0
 370 47 376 41 384 41 c 0
 393 41 406 49 436 82 c 2
 463 111 l 1xa780
365 361 m 0xbf80
 365 396 344 419 309 419 c 0
 264 419 220 388 178 327 c 1
 136 264 101 175 101 112 c 0
 101 57 125 38 161 38 c 0
 211 38 258 93 288 136 c 0
 335 204 365 290 365 361 c 0xbf80
453 609 m 0
 453 555 408 510 353 510 c 0
 296 510 253 554 253 610 c 0
 253 664 298 709 352 709 c 0
 408 709 453 664 453 609 c 0
419 609 m 0
 419 646 389 675 352 675 c 0
 317 675 287 645 287 610 c 0
 287 573 315 544 352 544 c 0
 390 544 419 572 419 609 c 0
EndSplineSet
EndChar

StartChar: ae
Encoding: 230 230 165
Width: 667
Flags: MW
HStem: -11 47<422 431.5> -11 50<131 139> 416 25<538.5 550.5> 421 20<305 318.5>
VStem: 23 86<80 136 80 169> 296 80<101 118.5> 574 66<369.5 391.5>
LayerCount: 2
Fore
SplineSet
459 439 m 1x5e
 437 377 l 1
 483 427 518 441 559 441 c 0
 609 441 640 414 640 371 c 0
 640 333 617 298 574 270 c 0
 536 246 490 228 384 198 c 1
 377 168 376 160 376 138 c 0
 376 64 398 36 446 36 c 0
 489 36 528 57 588 113 c 1
 598 101 l 1
 542 33 463 -11 400 -11 c 0xae
 337 -11 296 36 296 111 c 0
 296 126 297 134 302 151 c 1
 221 25 171 -11 107 -11 c 0
 58 -11 23 22 23 87 c 0
 23 251 182 441 303 441 c 0
 337 441 360 429 369 394 c 1
 388 439 l 1
 459 439 l 1x5e
574 380 m 0
 574 403 562 416 539 416 c 0
 516 416 493 402 474 381 c 0
 439 343 420 312 390 223 c 1
 483 250 524 277 556 320 c 0
 570 339 574 359 574 380 c 0
350 370 m 0x5e
 350 400 332 421 305 421 c 0
 268 422 230 390 192 335 c 0
 143 264 109 173 109 99 c 0
 109 61 119 39 143 39 c 0
 169 39 200 55 223 80 c 0
 295 158 350 284 350 370 c 0x5e
EndSplineSet
EndChar

StartChar: ccedilla
Encoding: 231 231 166
Width: 444
Flags: MW
HStem: -217 35<105 128 100.5 154> 420 21<296 327.5>
VStem: 30 86<103 181.5 103 217> 164 74<-154 -128> 353 72<346.5 406>
LayerCount: 2
Fore
SplineSet
77 -96 m 1
 133 -6 l 1
 66 10 30 60 30 139 c 0
 30 295 170 441 320 441 c 0
 381 441 425 407 425 360 c 0
 425 333 405 314 377 314 c 0
 353 314 338 328 338 352 c 0
 338 362 340 368 347 381 c 0
 352 390 353 395 353 400 c 0
 353 412 339 420 316 420 c 0
 276 420 236 402 207 372 c 0
 151 314 116 224 116 139 c 0
 116 67 150 25 207 25 c 0
 256 25 295 47 350 106 c 1
 366 96 l 1
 305 19 252 -11 176 -11 c 2
 168 -11 l 1
 131 -66 l 1
 141 -64 147 -63 156 -63 c 0
 206 -63 238 -89 238 -131 c 0
 238 -181 189 -217 119 -217 c 0
 91 -217 68 -212 26 -196 c 1
 43 -167 l 1
 73 -178 90 -182 111 -182 c 0
 145 -182 164 -167 164 -141 c 0
 164 -115 145 -97 118 -97 c 0
 108 -97 100 -99 86 -104 c 1
 77 -96 l 1
EndSplineSet
EndChar

StartChar: egrave
Encoding: 232 232 167
Width: 444
Flags: MW
HStem: -11 45<183 207.5> 418 23<282.5 325> 644 20<249 266.5>
VStem: 31 87<97.5 132.5 97.5 203.5> 346 66<363.5 391>
LayerCount: 2
Fore
SplineSet
358 109 m 1
 370 97 l 1
 313 27 249 -11 166 -11 c 0
 85 -11 31 43 31 126 c 0
 31 281 180 441 330 441 c 0
 383 441 412 415 412 373 c 0
 412 287 307 209 128 186 c 1
 118 166 118 140 118 125 c 0
 118 70 155 34 211 34 c 0
 255 34 286 50 358 109 c 1
152 252 m 2
 135 208 l 1
 221 229 259 247 296 282 c 0
 327 312 346 348 346 379 c 0
 346 403 339 418 311 418 c 0
 254 418 186 341 152 252 c 2
414 492 m 1
 382 492 l 1
 242 598 l 2
 229 608 223 618 223 630 c 0
 223 652 239 664 259 664 c 0
 274 664 286 658 299 641 c 2
 414 492 l 1
EndSplineSet
EndChar

StartChar: eacute
Encoding: 233 233 168
Width: 444
Flags: MW
HStem: -11 45<183 207.5> 418 23<282.5 325> 644 20<390 405>
VStem: 31 87<97.5 132.5 97.5 203.5> 346 66<363.5 391>
LayerCount: 2
Fore
SplineSet
358 109 m 1
 370 97 l 1
 313 27 249 -11 166 -11 c 0
 85 -11 31 43 31 126 c 0
 31 281 180 441 330 441 c 0
 383 441 412 415 412 373 c 0
 412 287 307 209 128 186 c 1
 118 166 118 140 118 125 c 0
 118 70 155 34 211 34 c 0
 255 34 286 50 358 109 c 1
152 252 m 2
 135 208 l 1
 221 229 259 247 296 282 c 0
 327 312 346 348 346 379 c 0
 346 403 339 418 311 418 c 0
 254 418 186 341 152 252 c 2
208 494 m 1
 370 654 l 2
 377 661 385 664 395 664 c 0
 415 664 431 648 431 628 c 0
 431 616 426 607 414 600 c 2
 243 494 l 1
 208 494 l 1
EndSplineSet
EndChar

StartChar: ecircumflex
Encoding: 234 234 169
Width: 444
Flags: MW
HStem: -11 45<183 207.5> 418 23<282.5 325> 641 20<329 378 378 378>
VStem: 31 87<97.5 132.5 97.5 203.5> 346 66<363.5 391>
LayerCount: 2
Fore
SplineSet
358 109 m 1
 370 97 l 1
 313 27 249 -11 166 -11 c 0
 85 -11 31 43 31 126 c 0
 31 281 180 441 330 441 c 0
 383 441 412 415 412 373 c 0
 412 287 307 209 128 186 c 1
 118 166 118 140 118 125 c 0
 118 70 155 34 211 34 c 0
 255 34 286 50 358 109 c 1
152 252 m 2
 135 208 l 1
 221 229 259 247 296 282 c 0
 327 312 346 348 346 379 c 0
 346 403 339 418 311 418 c 0
 254 418 186 341 152 252 c 2
466 492 m 1
 430 492 l 1
 348 596 l 1
 211 492 l 1
 172 492 l 1
 329 661 l 1
 378 661 l 1
 466 492 l 1
EndSplineSet
EndChar

StartChar: edieresis
Encoding: 235 235 170
Width: 444
Flags: MW
HStem: -11 45<183 207.5> 418 23<282.5 325> 508 98<213 239.5 213 239.5 413 439.5>
VStem: 31 87<97.5 132.5 97.5 203.5> 177 98<544 569.5 543.5 571.5> 346 66<363.5 391> 377 98<544 569.5 543.5 571.5>
LayerCount: 2
Fore
SplineSet
358 109 m 1xf4
 370 97 l 1
 313 27 249 -11 166 -11 c 0
 85 -11 31 43 31 126 c 0
 31 281 180 441 330 441 c 0
 383 441 412 415 412 373 c 0
 412 287 307 209 128 186 c 1
 118 166 118 140 118 125 c 0
 118 70 155 34 211 34 c 0
 255 34 286 50 358 109 c 1xf4
152 252 m 2
 135 208 l 1
 221 229 259 247 296 282 c 0
 327 312 346 348 346 379 c 0
 346 403 339 418 311 418 c 0
 254 418 186 341 152 252 c 2
475 557 m 0xea
 475 530 453 508 426 508 c 0
 398 508 377 530 377 558 c 0
 377 585 399 606 427 606 c 0
 452 606 475 582 475 557 c 0xea
275 557 m 0
 275 530 253 508 226 508 c 0
 198 508 177 530 177 558 c 0
 177 585 199 606 227 606 c 0
 252 606 275 582 275 557 c 0
EndSplineSet
EndChar

StartChar: igrave
Encoding: 236 236 171
Width: 278
Flags: MW
HStem: -11 47<82 148.5> 644 20<137 154.5>
VStem: 47 77<47 56 47 56>
LayerCount: 2
Fore
SplineSet
221 115 m 1
 235 103 l 1
 182 21 148 -11 97 -11 c 0
 67 -11 47 8 47 46 c 0
 47 66 55 96 71 156 c 2
 119 331 l 2
 124 350 128 368 128 376 c 0
 128 396 119 399 65 400 c 1
 65 416 l 1
 104 419 123 422 224 441 c 1
 229 438 l 1
 133 96 l 2
 128 77 124 61 124 51 c 0
 124 43 132 36 140 36 c 0
 157 36 178 58 221 115 c 1
302 492 m 1
 270 492 l 1
 130 598 l 2
 117 608 111 618 111 630 c 0
 111 652 127 664 147 664 c 0
 162 664 174 658 187 641 c 2
 302 492 l 1
EndSplineSet
EndChar

StartChar: iacute
Encoding: 237 237 172
Width: 278
Flags: MW
HStem: -11 47<82 148.5> 644 20<277 292>
VStem: 47 77<47 56 47 56>
LayerCount: 2
Fore
SplineSet
221 115 m 1
 235 103 l 1
 182 21 148 -11 97 -11 c 0
 67 -11 47 8 47 46 c 0
 47 66 55 96 71 156 c 2
 119 331 l 2
 124 350 128 368 128 376 c 0
 128 396 119 399 65 400 c 1
 65 416 l 1
 104 419 123 422 224 441 c 1
 229 438 l 1
 133 96 l 2
 128 77 124 61 124 51 c 0
 124 43 132 36 140 36 c 0
 157 36 178 58 221 115 c 1
95 494 m 1
 257 654 l 2
 264 661 272 664 282 664 c 0
 302 664 318 648 318 628 c 0
 318 616 313 607 301 600 c 2
 130 494 l 1
 95 494 l 1
EndSplineSet
EndChar

StartChar: icircumflex
Encoding: 238 238 173
Width: 278
Flags: MW
HStem: -11 47<82 148.5> 641 20<214 263 263 263>
VStem: 47 77<47 56 47 56>
LayerCount: 2
Fore
SplineSet
221 115 m 1
 235 103 l 1
 182 21 148 -11 97 -11 c 0
 67 -11 47 8 47 46 c 0
 47 66 55 96 71 156 c 2
 119 331 l 2
 124 350 128 368 128 376 c 0
 128 396 119 399 65 400 c 1
 65 416 l 1
 104 419 123 422 224 441 c 1
 229 438 l 1
 133 96 l 2
 128 77 124 61 124 51 c 0
 124 43 132 36 140 36 c 0
 157 36 178 58 221 115 c 1
351 492 m 1
 315 492 l 1
 233 596 l 1
 96 492 l 1
 57 492 l 1
 214 661 l 1
 263 661 l 1
 351 492 l 1
EndSplineSet
EndChar

StartChar: idieresis
Encoding: 239 239 174
Width: 278
Flags: MW
HStem: -11 47<82 148.5> 508 98<99 125.5 99 125.5 299 325.5>
VStem: 47 77<47 56 47 56> 63 98<544 569.5 543.5 571.5> 263 98<544 569.5 543.5 571.5>
LayerCount: 2
Fore
SplineSet
221 115 m 1xe8
 235 103 l 1
 182 21 148 -11 97 -11 c 0
 67 -11 47 8 47 46 c 0
 47 66 55 96 71 156 c 2
 119 331 l 2
 124 350 128 368 128 376 c 0
 128 396 119 399 65 400 c 1
 65 416 l 1
 104 419 123 422 224 441 c 1
 229 438 l 1
 133 96 l 2
 128 77 124 61 124 51 c 0
 124 43 132 36 140 36 c 0
 157 36 178 58 221 115 c 1xe8
361 557 m 0
 361 530 339 508 312 508 c 0
 284 508 263 530 263 558 c 0
 263 585 285 606 313 606 c 0
 338 606 361 582 361 557 c 0
161 557 m 0xd0
 161 530 139 508 112 508 c 0
 84 508 63 530 63 558 c 0
 63 585 85 606 113 606 c 0
 138 606 161 582 161 557 c 0xd0
EndSplineSet
EndChar

StartChar: eth
Encoding: 240 240 175
Width: 500
Flags: MW
HStem: -11 21<165.5 211 165.5 257> 420 21<291 329 235 334.5>
VStem: 27 84<82 147.5 79.5 205> 384 83<290.5 354.5>
LayerCount: 2
Fore
SplineSet
482 637 m 1
 381 592 l 1
 443 521 467 452 467 359 c 0
 467 164 340 -11 174 -11 c 0
 83 -11 27 35 27 129 c 0
 27 281 163 441 307 441 c 0
 351 441 376 424 394 392 c 1
 396 393 l 1
 386 462 364 515 324 567 c 1
 207 516 l 1
 174 545 l 1
 297 599 l 1
 262 632 236 649 194 666 c 1
 229 683 l 1
 274 673 311 655 351 622 c 1
 450 665 l 1
 482 637 l 1
384 326 m 0
 384 383 356 420 313 420 c 0
 269 420 223 390 181 331 c 0
 132 263 111 188 111 107 c 0
 111 52 142 10 189 10 c 0
 233 10 276 36 313 92 c 0
 357 157 384 255 384 326 c 0
EndSplineSet
EndChar

StartChar: ntilde
Encoding: 241 241 176
Width: 500
Flags: MW
HStem: -9 47<321.5 385> 0 20 390 51 520 60<401.5 417> 564 59<235 249.5>
VStem: 287 75<26 60> 361 81<355 398>
LayerCount: 2
Fore
SplineSet
460 117 m 1xa4
 474 104 l 1
 406 11 381 -9 334 -9 c 0
 309 -9 287 7 287 45 c 0x94
 287 55 289 68 303 120 c 2
 347 282 l 2
 355 313 361 349 361 361 c 0
 361 379 352 390 337 390 c 0
 297 390 252 341 189 248 c 0
 144 181 136 158 89 0 c 1
 14 0 l 1x62
 110 350 l 2
 111 355 112 361 112 367 c 0
 112 387 98 393 47 394 c 1
 47 410 l 1
 128 426 156 430 209 441 c 1
 213 439 l 1
 146 221 l 1
 246 381 313 441 377 441 c 0
 420 441 442 416 442 380 c 0xa2
 442 362 438 341 432 320 c 2
 376 117 l 2
 366 81 362 64 362 56 c 0
 362 47 366 38 378 38 c 0
 392 38 410 54 439 91 c 0
 446 99 453 108 460 117 c 1xa4
460 624 m 1
 488 624 l 1
 474 557 441 520 393 520 c 0x14
 380 520 362 525 336 535 c 0
 282 557 258 564 241 564 c 0
 216 564 200 549 190 517 c 1
 161 517 l 1
 181 594 209 623 261 623 c 0x0c
 284 623 309 616 347 599 c 0
 377 585 394 580 409 580 c 0
 436 580 449 591 460 624 c 1
EndSplineSet
EndChar

StartChar: ograve
Encoding: 242 242 177
Width: 500
Flags: MW
HStem: -11 21<165.5 207> 420 21<306.5 334.5> 644 20<253 270.5>
VStem: 27 84<84.5 140.5 71 184> 384 84<288 345 263 356.5>
LayerCount: 2
Fore
SplineSet
468 301 m 0
 468 225 428 137 362 72 c 0
 304 14 240 -11 174 -11 c 0
 80 -11 27 41 27 128 c 0
 27 240 102 355 207 411 c 0
 246 432 286 441 327 441 c 0
 408 441 468 389 468 301 c 0
384 326 m 0
 384 387 356 420 313 420 c 0
 269 420 225 389 185 329 c 0
 139 259 111 180 111 101 c 0
 111 41 142 10 189 10 c 0
 233 10 271 39 310 93 c 0
 356 156 384 250 384 326 c 0
418 492 m 1
 386 492 l 1
 246 598 l 2
 233 608 227 618 227 630 c 0
 227 652 243 664 263 664 c 0
 278 664 290 658 303 641 c 2
 418 492 l 1
EndSplineSet
EndChar

StartChar: oacute
Encoding: 243 243 178
Width: 500
Flags: MW
HStem: -11 21<165.5 207> 420 21<306.5 334.5> 644 20<397 412>
VStem: 27 84<84.5 140.5 71 184> 384 84<288 345 263 356.5>
LayerCount: 2
Fore
SplineSet
468 301 m 0
 468 225 428 137 362 72 c 0
 304 14 240 -11 174 -11 c 0
 80 -11 27 41 27 128 c 0
 27 240 102 355 207 411 c 0
 246 432 286 441 327 441 c 0
 408 441 468 389 468 301 c 0
384 326 m 0
 384 387 356 420 313 420 c 0
 269 420 225 389 185 329 c 0
 139 259 111 180 111 101 c 0
 111 41 142 10 189 10 c 0
 233 10 271 39 310 93 c 0
 356 156 384 250 384 326 c 0
215 494 m 1
 377 654 l 2
 384 661 392 664 402 664 c 0
 422 664 438 648 438 628 c 0
 438 616 433 607 421 600 c 2
 250 494 l 1
 215 494 l 1
EndSplineSet
EndChar

StartChar: ocircumflex
Encoding: 244 244 179
Width: 500
Flags: MW
HStem: -11 21<165.5 207> 420 21<306.5 334.5> 641 20<331 380 380 380>
VStem: 27 84<84.5 140.5 71 184> 384 84<288 345 263 356.5>
LayerCount: 2
Fore
SplineSet
468 301 m 0
 468 225 428 137 362 72 c 0
 304 14 240 -11 174 -11 c 0
 80 -11 27 41 27 128 c 0
 27 240 102 355 207 411 c 0
 246 432 286 441 327 441 c 0
 408 441 468 389 468 301 c 0
384 326 m 0
 384 387 356 420 313 420 c 0
 269 420 225 389 185 329 c 0
 139 259 111 180 111 101 c 0
 111 41 142 10 189 10 c 0
 233 10 271 39 310 93 c 0
 356 156 384 250 384 326 c 0
468 492 m 1
 432 492 l 1
 350 596 l 1
 213 492 l 1
 174 492 l 1
 331 661 l 1
 380 661 l 1
 468 492 l 1
EndSplineSet
EndChar

StartChar: otilde
Encoding: 245 245 180
Width: 500
Flags: MW
HStem: -11 21<165.5 207> 420 21<306.5 334.5> 520 60<407.5 423> 564 59<241 255.5>
VStem: 27 84<84.5 140.5 71 184> 384 84<288 345 263 356.5>
LayerCount: 2
Fore
SplineSet
468 301 m 0xec
 468 225 428 137 362 72 c 0
 304 14 240 -11 174 -11 c 0
 80 -11 27 41 27 128 c 0
 27 240 102 355 207 411 c 0
 246 432 286 441 327 441 c 0
 408 441 468 389 468 301 c 0xec
384 326 m 0
 384 387 356 420 313 420 c 0
 269 420 225 389 185 329 c 0
 139 259 111 180 111 101 c 0
 111 41 142 10 189 10 c 0
 233 10 271 39 310 93 c 0
 356 156 384 250 384 326 c 0
466 624 m 1
 494 624 l 1
 480 557 447 520 399 520 c 0x2c
 386 520 368 525 342 535 c 0
 288 557 264 564 247 564 c 0
 222 564 206 549 196 517 c 1
 167 517 l 1
 187 594 215 623 267 623 c 0x1c
 290 623 315 616 353 599 c 0
 383 585 400 580 415 580 c 0
 442 580 455 591 466 624 c 1
EndSplineSet
EndChar

StartChar: odieresis
Encoding: 246 246 181
Width: 500
Flags: MW
HStem: -11 21<165.5 207> 420 21<306.5 334.5> 508 98<212 238.5 212 238.5 412 438.5>
VStem: 27 84<84.5 140.5 71 184> 176 98<544 569.5 543.5 571.5> 376 98<544 569.5 543.5 571.5> 384 84<288 345 263 356.5>
LayerCount: 2
Fore
SplineSet
468 301 m 0xf2
 468 225 428 137 362 72 c 0
 304 14 240 -11 174 -11 c 0
 80 -11 27 41 27 128 c 0
 27 240 102 355 207 411 c 0
 246 432 286 441 327 441 c 0
 408 441 468 389 468 301 c 0xf2
384 326 m 0
 384 387 356 420 313 420 c 0
 269 420 225 389 185 329 c 0
 139 259 111 180 111 101 c 0
 111 41 142 10 189 10 c 0
 233 10 271 39 310 93 c 0
 356 156 384 250 384 326 c 0
474 557 m 0xec
 474 530 452 508 425 508 c 0
 397 508 376 530 376 558 c 0
 376 585 398 606 426 606 c 0
 451 606 474 582 474 557 c 0xec
274 557 m 0
 274 530 252 508 225 508 c 0
 197 508 176 530 176 558 c 0
 176 585 198 606 226 606 c 0
 251 606 274 582 274 557 c 0
EndSplineSet
EndChar

StartChar: divide
Encoding: 247 247 182
Width: 675
Flags: MW
HStem: -11 111<323 352> 220 66<86 590 86 590> 406 111<323 352.5>
VStem: 283 111<28.5 58.5 28 59 445.5 475.5>
CounterMasks: 1 e0
LayerCount: 2
Fore
SplineSet
394 460 m 0
 394 430 368 406 337 406 c 0
 308 406 283 431 283 460 c 0
 283 492 308 517 338 517 c 0
 368 517 394 491 394 460 c 0
590 220 m 1
 86 220 l 1
 86 286 l 1
 590 286 l 1
 590 220 l 1
394 43 m 0
 394 13 368 -11 336 -11 c 0
 308 -11 283 14 283 43 c 0
 283 75 308 100 338 100 c 0
 368 100 394 74 394 43 c 0
EndSplineSet
EndChar

StartChar: oslash
Encoding: 248 248 183
Width: 500
Flags: MW
HStem: -11 21<184.5 205> 420 21<301.5 319.5>
VStem: 28 84<110.5 144.5 83 206.5> 385 84<289 311 258 342.5>
LayerCount: 2
Fore
SplineSet
428 554 m 1
 370 435 l 1
 412 423 432 408 449 376 c 0
 461 355 469 324 469 298 c 0
 469 218 420 124 345 60 c 0
 290 13 234 -11 176 -11 c 0
 168 -11 162 -10 156 -9 c 1
 95 -135 l 1
 60 -135 l 1
 124 -4 l 1
 93 6 80 14 65 30 c 0
 41 55 28 91 28 130 c 0
 28 283 178 441 322 441 c 0
 329 441 333 441 339 440 c 1
 394 554 l 1
 428 554 l 1
357 406 m 1
 167 14 l 1
 175 11 180 10 189 10 c 0
 235 10 273 36 311 92 c 0
 354 157 385 253 385 325 c 0
 385 360 376 385 357 406 c 1
140 29 m 1
 328 418 l 1
 323 419 321 420 318 420 c 0
 285 420 250 403 223 374 c 0
 158 304 112 192 112 97 c 0
 112 69 121 48 140 29 c 1
EndSplineSet
EndChar

StartChar: ugrave
Encoding: 249 249 184
Width: 500
Flags: MW
HStem: -11 53<77.5 156> -9 47<322 386> 644 20<250 267.5>
VStem: 42 77<23.5 69> 289 78<49.5 50>
LayerCount: 2
Fore
SplineSet
461 119 m 1x58
 475 110 l 1
 410 11 384 -9 337 -9 c 0x78
 307 -9 289 8 289 39 c 0
 289 61 302 128 334 236 c 1
 216 42 166 -11 95 -11 c 0
 60 -11 42 5 42 42 c 0
 42 61 51 97 69 170 c 2
 104 309 l 2
 112 342 118 368 118 376 c 0
 118 383 113 391 107 394 c 0
 98 399 95 400 57 400 c 1
 57 414 l 1
 114 421 150 428 207 441 c 1
 211 438 l 1
 122 83 l 2
 121 80 119 71 119 67 c 0
 119 52 124 42 139 42 c 0x98
 173 42 219 95 281 189 c 0
 328 260 342 298 391 432 c 1
 465 432 l 1
 386 133 l 2
 381 114 367 67 367 55 c 0
 367 44 371 38 378 38 c 0
 394 38 410 52 461 119 c 1x58
415 492 m 1
 383 492 l 1
 243 598 l 2
 230 608 224 618 224 630 c 0
 224 652 240 664 260 664 c 0
 275 664 287 658 300 641 c 2
 415 492 l 1
EndSplineSet
EndChar

StartChar: uacute
Encoding: 250 250 185
Width: 500
Flags: MW
HStem: -11 53<77.5 156> -9 47<322 386> 644 20<392 407>
VStem: 42 77<23.5 69> 289 78<49.5 50>
LayerCount: 2
Fore
SplineSet
461 119 m 1x58
 475 110 l 1
 410 11 384 -9 337 -9 c 0x78
 307 -9 289 8 289 39 c 0
 289 61 302 128 334 236 c 1
 216 42 166 -11 95 -11 c 0
 60 -11 42 5 42 42 c 0
 42 61 51 97 69 170 c 2
 104 309 l 2
 112 342 118 368 118 376 c 0
 118 383 113 391 107 394 c 0
 98 399 95 400 57 400 c 1
 57 414 l 1
 114 421 150 428 207 441 c 1
 211 438 l 1
 122 83 l 2
 121 80 119 71 119 67 c 0
 119 52 124 42 139 42 c 0x98
 173 42 219 95 281 189 c 0
 328 260 342 298 391 432 c 1
 465 432 l 1
 386 133 l 2
 381 114 367 67 367 55 c 0
 367 44 371 38 378 38 c 0
 394 38 410 52 461 119 c 1x58
210 494 m 1
 372 654 l 2
 379 661 387 664 397 664 c 0
 417 664 433 648 433 628 c 0
 433 616 428 607 416 600 c 2
 245 494 l 1
 210 494 l 1
EndSplineSet
EndChar

StartChar: ucircumflex
Encoding: 251 251 186
Width: 500
Flags: MW
HStem: -11 53<77.5 156> -9 47<322 386> 641 20<328 377 377 377>
VStem: 42 77<23.5 69> 289 78<49.5 50>
LayerCount: 2
Fore
SplineSet
461 119 m 1x58
 475 110 l 1
 410 11 384 -9 337 -9 c 0x78
 307 -9 289 8 289 39 c 0
 289 61 302 128 334 236 c 1
 216 42 166 -11 95 -11 c 0
 60 -11 42 5 42 42 c 0
 42 61 51 97 69 170 c 2
 104 309 l 2
 112 342 118 368 118 376 c 0
 118 383 113 391 107 394 c 0
 98 399 95 400 57 400 c 1
 57 414 l 1
 114 421 150 428 207 441 c 1
 211 438 l 1
 122 83 l 2
 121 80 119 71 119 67 c 0
 119 52 124 42 139 42 c 0x98
 173 42 219 95 281 189 c 0
 328 260 342 298 391 432 c 1
 465 432 l 1
 386 133 l 2
 381 114 367 67 367 55 c 0
 367 44 371 38 378 38 c 0
 394 38 410 52 461 119 c 1x58
465 492 m 1
 429 492 l 1
 347 596 l 1
 210 492 l 1
 171 492 l 1
 328 661 l 1
 377 661 l 1
 465 492 l 1
EndSplineSet
EndChar

StartChar: udieresis
Encoding: 252 252 187
Width: 500
Flags: MW
HStem: -11 53<77.5 156> -9 47<322 386> 508 98<207 233.5 207 233.5 407 433.5>
VStem: 42 77<23.5 69> 171 98<544 569.5 543.5 571.5> 289 78<49.5 50> 371 98<544 569.5 543.5 571.5>
LayerCount: 2
Fore
SplineSet
461 119 m 1x5e
 475 110 l 1
 410 11 384 -9 337 -9 c 0x7e
 307 -9 289 8 289 39 c 0
 289 61 302 128 334 236 c 1
 216 42 166 -11 95 -11 c 0
 60 -11 42 5 42 42 c 0
 42 61 51 97 69 170 c 2
 104 309 l 2
 112 342 118 368 118 376 c 0
 118 383 113 391 107 394 c 0
 98 399 95 400 57 400 c 1
 57 414 l 1
 114 421 150 428 207 441 c 1
 211 438 l 1
 122 83 l 2
 121 80 119 71 119 67 c 0
 119 52 124 42 139 42 c 0x9e
 173 42 219 95 281 189 c 0
 328 260 342 298 391 432 c 1
 465 432 l 1
 386 133 l 2
 381 114 367 67 367 55 c 0
 367 44 371 38 378 38 c 0
 394 38 410 52 461 119 c 1x5e
469 557 m 0
 469 530 447 508 420 508 c 0
 392 508 371 530 371 558 c 0
 371 585 393 606 421 606 c 0
 446 606 469 582 469 557 c 0
269 557 m 0
 269 530 247 508 220 508 c 0
 192 508 171 530 171 558 c 0
 171 585 193 606 221 606 c 0
 246 606 269 582 269 557 c 0
EndSplineSet
EndChar

StartChar: yacute
Encoding: 253 253 188
Width: 444
Flags: MW
HStem: -206 55<12 82.5> 421 20<154 158 158 165.5 362.5 389> 644 20<360 375>
VStem: 386 40<311 401>
LayerCount: 2
Fore
SplineSet
243 186 m 2
 264 76 l 1
 349 217 386 289 386 333 c 0
 386 347 379 353 360 365 c 0
 340 378 334 388 334 404 c 0
 334 426 351 441 374 441 c 0
 404 441 426 416 426 386 c 0
 426 329 378 219 295 81 c 0
 191 -91 84 -206 27 -206 c 0
 -3 -206 -24 -189 -24 -163 c 0
 -24 -141 -7 -123 15 -123 c 0
 50 -123 50 -151 76 -151 c 0
 89 -151 101 -143 124 -118 c 0
 142 -99 187 -40 195 -27 c 1
 201 -15 205 -3 205 8 c 0
 205 48 150 272 123 340 c 0
 104 389 86 404 46 404 c 0
 35 404 26 403 15 400 c 1
 15 417 l 1
 26 419 37 421 47 423 c 0
 67 427 100 433 154 441 c 1
 158 441 l 2
 173 441 226 275 243 186 c 2
178 494 m 1
 340 654 l 2
 347 661 355 664 365 664 c 0
 385 664 401 648 401 628 c 0
 401 616 396 607 384 600 c 2
 213 494 l 1
 178 494 l 1
EndSplineSet
EndChar

StartChar: thorn
Encoding: 254 254 189
Width: 500
Flags: MW
HStem: -11 19<157.5 191.5 151 242> 398 43<321.5 338>
VStem: 379 90<280 341.5>
LayerCount: 2
Fore
SplineSet
189 335 m 1
 191 333 l 1
 237 406 290 441 353 441 c 0
 426 441 469 394 469 315 c 0
 469 156 315 -11 169 -11 c 0
 146 -11 128 -7 103 6 c 1
 82 -75 66 -145 66 -159 c 0
 66 -182 83 -190 130 -190 c 1
 130 -205 l 1
 -75 -205 l 1
 -75 -189 l 1
 -32 -188 -20 -175 -8 -130 c 2
 106 304 l 2
 145 453 165 521 174 554 c 2
 179 573 l 2
 185 596 188 607 188 616 c 0
 188 638 182 641 123 643 c 1
 123 660 l 1
 190 668 226 674 275 683 c 1
 280 678 l 1
 219 442 201 376 189 335 c 1
379 313 m 0
 379 370 359 398 317 398 c 0
 263 398 209 352 182 284 c 0
 152 209 117 79 117 45 c 0
 117 23 137 8 165 8 c 0
 218 8 268 40 310 103 c 1
 352 164 379 247 379 313 c 0
EndSplineSet
EndChar

StartChar: ydieresis
Encoding: 255 255 190
Width: 444
Flags: MW
HStem: -206 55<12 82.5> 421 20<154 158 158 165.5 362.5 389> 508 98<180 206.5 180 206.5 380 406.5>
VStem: 144 98<544 569.5 543.5 571.5> 344 98<544 569.5 543.5 571.5> 386 40<311 401>
LayerCount: 2
Fore
SplineSet
243 186 m 2xe4
 264 76 l 1
 349 217 386 289 386 333 c 0
 386 347 379 353 360 365 c 0
 340 378 334 388 334 404 c 0
 334 426 351 441 374 441 c 0
 404 441 426 416 426 386 c 0
 426 329 378 219 295 81 c 0
 191 -91 84 -206 27 -206 c 0
 -3 -206 -24 -189 -24 -163 c 0
 -24 -141 -7 -123 15 -123 c 0
 50 -123 50 -151 76 -151 c 0
 89 -151 101 -143 124 -118 c 0
 142 -99 187 -40 195 -27 c 1
 201 -15 205 -3 205 8 c 0
 205 48 150 272 123 340 c 0
 104 389 86 404 46 404 c 0
 35 404 26 403 15 400 c 1
 15 417 l 1
 26 419 37 421 47 423 c 0
 67 427 100 433 154 441 c 1
 158 441 l 2
 173 441 226 275 243 186 c 2xe4
442 557 m 0xf8
 442 530 420 508 393 508 c 0
 365 508 344 530 344 558 c 0
 344 585 366 606 394 606 c 0
 419 606 442 582 442 557 c 0xf8
242 557 m 0
 242 530 220 508 193 508 c 0
 165 508 144 530 144 558 c 0
 144 585 166 606 194 606 c 0
 219 606 242 582 242 557 c 0
EndSplineSet
EndChar

StartChar: uni0100
Encoding: 256 256 191
Width: 611
Flags: MW
HStem: 0 20 226 36<175 369 175 374 154 369> 706 51<235 525 224 536>
LayerCount: 2
Fore
SplineSet
536 757 m 1
 525 706 l 1
 224 706 l 1
 235 757 l 1
 536 757 l 1
564 0 m 1
 319 0 l 1
 319 16 l 1
 382 19 396 35 396 69 c 0
 396 77 395 86 394 95 c 2
 374 226 l 1
 154 226 l 1
 95 115 l 2
 81 89 73 65 73 49 c 0
 73 30 88 18 135 16 c 1
 135 0 l 1
 -51 0 l 1
 -51 16 l 1
 -5 25 8 42 83 172 c 2
 368 668 l 1
 394 668 l 1
 486 115 l 2
 500 31 511 20 564 16 c 1
 564 0 l 1
369 262 m 1
 324 525 l 1
 175 262 l 1
 369 262 l 1
EndSplineSet
EndChar

StartChar: uni0101
Encoding: 257 257 192
Width: 501
Flags: MW
HStem: -11 49<143 152> -10 20 419 22<286.5 324.5 236.5 326.5> 492 51<180 470 169 481>
VStem: 17 84<84.5 143.5 84.5 182.5> 297 73<16.5 64>
LayerCount: 2
Fore
SplineSet
481 543 m 1xbc
 470 492 l 1
 169 492 l 1
 180 543 l 1
 481 543 l 1xbc
463 111 m 1
 476 100 l 1
 401 9 377 -10 337 -10 c 0x4c
 309 -10 297 2 297 31 c 0
 297 56 299 64 320 146 c 1
 245 33 187 -11 117 -11 c 0
 61 -11 17 29 17 105 c 0
 17 260 170 441 303 441 c 0
 346 441 375 420 383 383 c 1
 394 431 l 1
 397 434 l 1
 458 441 l 1
 465 438 l 1
 463 429 462 427 459 417 c 0
 412 246 370 74 370 54 c 0
 370 47 376 41 384 41 c 0
 393 41 406 49 436 82 c 2
 463 111 l 1
365 361 m 0xac
 365 396 344 419 309 419 c 0
 264 419 220 388 178 327 c 1
 136 264 101 175 101 112 c 0
 101 57 125 38 161 38 c 0
 211 38 258 93 288 136 c 0
 335 204 365 290 365 361 c 0xac
EndSplineSet
EndChar

StartChar: uni0102
Encoding: 258 258 193
Width: 611
Flags: MW
HStem: 0 20 226 36<175 369 175 374 154 369> 704 59<332 396.5 332 401.5>
LayerCount: 2
Fore
SplineSet
502 862 m 1
 531 862 l 1
 517 774 445 704 358 704 c 0
 267 704 230 759 230 862 c 1
 259 862 l 1
 264 799 298 763 366 763 c 0
 427 763 480 800 502 862 c 1
564 0 m 1
 319 0 l 1
 319 16 l 1
 382 19 396 35 396 69 c 0
 396 77 395 86 394 95 c 2
 374 226 l 1
 154 226 l 1
 95 115 l 2
 81 89 73 65 73 49 c 0
 73 30 88 18 135 16 c 1
 135 0 l 1
 -51 0 l 1
 -51 16 l 1
 -5 25 8 42 83 172 c 2
 368 668 l 1
 394 668 l 1
 486 115 l 2
 500 31 511 20 564 16 c 1
 564 0 l 1
369 262 m 1
 324 525 l 1
 175 262 l 1
 369 262 l 1
EndSplineSet
EndChar

StartChar: uni0103
Encoding: 259 259 194
Width: 501
Flags: MW
HStem: -11 49<143 152> -10 20 419 22<286.5 324.5 236.5 326.5> 492 59<282 346.5 282 351.5>
VStem: 17 84<84.5 143.5 84.5 182.5> 297 73<16.5 64>
LayerCount: 2
Fore
SplineSet
452 650 m 1xbc
 481 650 l 1
 467 562 395 492 308 492 c 0
 217 492 180 547 180 650 c 1
 209 650 l 1
 214 587 248 551 316 551 c 0
 377 551 430 588 452 650 c 1xbc
463 111 m 1
 476 100 l 1
 401 9 377 -10 337 -10 c 0x4c
 309 -10 297 2 297 31 c 0
 297 56 299 64 320 146 c 1
 245 33 187 -11 117 -11 c 0
 61 -11 17 29 17 105 c 0
 17 260 170 441 303 441 c 0
 346 441 375 420 383 383 c 1
 394 431 l 1
 397 434 l 1
 458 441 l 1
 465 438 l 1
 463 429 462 427 459 417 c 0
 412 246 370 74 370 54 c 0
 370 47 376 41 384 41 c 0
 393 41 406 49 436 82 c 2
 463 111 l 1
365 361 m 0xac
 365 396 344 419 309 419 c 0
 264 419 220 388 178 327 c 1
 136 264 101 175 101 112 c 0
 101 57 125 38 161 38 c 0
 211 38 258 93 288 136 c 0
 335 204 365 290 365 361 c 0xac
EndSplineSet
EndChar

StartChar: uni0104
Encoding: 260 260 195
Width: 611
Flags: MW
HStem: -169 63<508.5 525.5> 0 20 226 36<175 369 175 374 154 369> 648 20<368 394 394 394>
VStem: 406 61<-68 -60>
LayerCount: 2
Fore
SplineSet
433 0 m 1
 319 0 l 1
 319 16 l 1
 382 19 396 35 396 69 c 0
 396 77 395 86 394 95 c 2
 374 226 l 1
 154 226 l 1
 95 115 l 2
 81 89 73 65 73 49 c 0
 73 30 88 18 135 16 c 1
 135 0 l 1
 -51 0 l 1
 -51 16 l 1
 -5 25 8 42 83 172 c 2
 368 668 l 1
 394 668 l 1
 486 115 l 2
 500 31 511 20 564 16 c 1
 564 0 l 1
 477 0 l 1
 470 -18 467 -36 467 -53 c 0
 467 -83 491 -106 526 -106 c 0
 558 -106 584 -96 609 -74 c 1
 626 -92 l 1
 591 -144 550 -169 501 -169 c 0
 449 -169 406 -131 406 -74 c 0
 406 -46 414 -23 433 0 c 1
369 262 m 1
 324 525 l 1
 175 262 l 1
 369 262 l 1
EndSplineSet
EndChar

StartChar: uni0105
Encoding: 261 261 196
Width: 501
Flags: MW
HStem: -169 63<411.5 428.5> -11 49<143 152> 419 22<286.5 324.5 236.5 326.5>
VStem: 17 84<84.5 143.5 84.5 182.5> 297 73<-68 43.5> 309 61<-68 -62>
LayerCount: 2
Fore
SplineSet
512 -74 m 1xe4
 529 -92 l 1
 494 -144 453 -169 404 -169 c 0
 352 -169 309 -131 309 -74 c 0xf4
 309 -50 315 -29 329 -10 c 1
 307 -7 297 5 297 31 c 0
 297 56 299 64 320 146 c 1
 245 33 187 -11 117 -11 c 0
 61 -11 17 29 17 105 c 0
 17 260 170 441 303 441 c 0
 346 441 375 420 383 383 c 1
 394 431 l 1
 397 434 l 1
 458 441 l 1
 465 438 l 1
 463 429 462 427 459 417 c 0
 412 246 370 74 370 54 c 0xf8
 370 47 376 41 384 41 c 0
 393 41 406 49 436 82 c 2
 463 111 l 1
 476 100 l 1
 431 45 404 16 381 2 c 1
 373 -17 370 -35 370 -53 c 0
 370 -83 394 -106 429 -106 c 0
 461 -106 487 -96 512 -74 c 1xe4
365 361 m 0
 365 396 344 419 309 419 c 0
 264 419 220 388 178 327 c 1
 136 264 101 175 101 112 c 0
 101 57 125 38 161 38 c 0
 211 38 258 93 288 136 c 0
 335 204 365 290 365 361 c 0
EndSplineSet
EndChar

StartChar: uni0106
Encoding: 262 262 197
Width: 667
Flags: MW
HStem: -18 45<297.5 378.5> 630 36<448 488.5 432.5 529>
LayerCount: 2
Fore
SplineSet
389 706 m 1
 551 866 l 2
 558 873 566 876 576 876 c 0
 596 876 612 860 612 840 c 0
 612 828 607 819 595 812 c 2
 424 706 l 1
 389 706 l 1
689 664 m 1
 652 464 l 1
 634 467 l 1
 622 574 573 630 485 630 c 0
 411 630 341 592 286 533 c 0
 214 456 178 342 178 232 c 0
 178 92 242 27 353 27 c 0
 435 27 495 56 582 146 c 1
 600 131 l 1
 510 25 430 -18 327 -18 c 0
 174 -18 66 78 66 243 c 0
 66 384 143 515 253 593 c 0
 317 639 393 666 472 666 c 0
 505 666 547 664 589 649 c 0
 609 642 621 642 630 642 c 0
 650 642 660 648 668 664 c 1
 689 664 l 1
EndSplineSet
EndChar

StartChar: uni0107
Encoding: 263 263 198
Width: 444
Flags: MW
HStem: -11 36<176.5 214.5> 420 21<296 327.5> 644 20<390 405>
VStem: 30 86<103 183.5 103 189.5> 353 72<346.5 406>
LayerCount: 2
Fore
SplineSet
208 494 m 1
 370 654 l 2
 377 661 385 664 395 664 c 0
 415 664 431 648 431 628 c 0
 431 616 426 607 414 600 c 2
 243 494 l 1
 208 494 l 1
350 107 m 1
 366 97 l 1
 305 20 252 -11 177 -11 c 0
 84 -11 30 41 30 143 c 0
 30 236 82 323 153 380 c 0
 202 419 259 441 320 441 c 0
 381 441 425 407 425 360 c 0
 425 333 403 312 377 312 c 0
 349 312 338 332 338 352 c 0
 338 370 353 381 353 400 c 0
 353 412 339 420 316 420 c 0
 276 420 236 402 207 372 c 0
 151 313 116 228 116 139 c 0
 116 67 148 25 205 25 c 0
 258 25 296 50 350 107 c 1
EndSplineSet
EndChar

StartChar: uni0108
Encoding: 264 264 199
Width: 667
Flags: MW
HStem: -18 45<297.5 378.5> 630 36<448 488.5 432.5 529>
LayerCount: 2
Fore
SplineSet
647 706 m 1
 611 706 l 1
 529 810 l 1
 392 706 l 1
 353 706 l 1
 510 875 l 1
 559 875 l 1
 647 706 l 1
689 664 m 1
 652 464 l 1
 634 467 l 1
 622 574 573 630 485 630 c 0
 411 630 341 592 286 533 c 0
 214 456 178 342 178 232 c 0
 178 92 242 27 353 27 c 0
 435 27 495 56 582 146 c 1
 600 131 l 1
 510 25 430 -18 327 -18 c 0
 174 -18 66 78 66 243 c 0
 66 384 143 515 253 593 c 0
 317 639 393 666 472 666 c 0
 505 666 547 664 589 649 c 0
 609 642 621 642 630 642 c 0
 650 642 660 648 668 664 c 1
 689 664 l 1
EndSplineSet
EndChar

StartChar: uni0109
Encoding: 265 265 200
Width: 444
Flags: MW
HStem: -11 36<176.5 214.5> 420 21<296 327.5> 641 20<290 339 339 339>
VStem: 30 86<103 183.5 103 189.5> 353 72<346.5 406>
LayerCount: 2
Fore
SplineSet
427 492 m 1
 391 492 l 1
 309 596 l 1
 172 492 l 1
 133 492 l 1
 290 661 l 1
 339 661 l 1
 427 492 l 1
350 107 m 1
 366 97 l 1
 305 20 252 -11 177 -11 c 0
 84 -11 30 41 30 143 c 0
 30 236 82 323 153 380 c 0
 202 419 259 441 320 441 c 0
 381 441 425 407 425 360 c 0
 425 333 403 312 377 312 c 0
 349 312 338 332 338 352 c 0
 338 370 353 381 353 400 c 0
 353 412 339 420 316 420 c 0
 276 420 236 402 207 372 c 0
 151 313 116 228 116 139 c 0
 116 67 148 25 205 25 c 0
 258 25 296 50 350 107 c 1
EndSplineSet
EndChar

StartChar: uni010A
Encoding: 266 266 201
Width: 667
Flags: MW
HStem: -18 45<297.5 378.5> 630 36<448 488.5 432.5 529> 720 98<487 513.5 487 513.5>
VStem: 451 98<756 781.5 755.5 783.5>
LayerCount: 2
Fore
SplineSet
549 769 m 0
 549 742 527 720 500 720 c 0
 472 720 451 742 451 770 c 0
 451 797 473 818 501 818 c 0
 526 818 549 794 549 769 c 0
689 664 m 1
 652 464 l 1
 634 467 l 1
 622 574 573 630 485 630 c 0
 411 630 341 592 286 533 c 0
 214 456 178 342 178 232 c 0
 178 92 242 27 353 27 c 0
 435 27 495 56 582 146 c 1
 600 131 l 1
 510 25 430 -18 327 -18 c 0
 174 -18 66 78 66 243 c 0
 66 384 143 515 253 593 c 0
 317 639 393 666 472 666 c 0
 505 666 547 664 589 649 c 0
 609 642 621 642 630 642 c 0
 650 642 660 648 668 664 c 1
 689 664 l 1
EndSplineSet
EndChar

StartChar: uni010B
Encoding: 267 267 202
Width: 444
Flags: MW
HStem: -11 36<176.5 214.5> 420 21<296 327.5> 508 98<307 333.5 307 333.5>
VStem: 30 86<103 183.5 103 189.5> 271 98<544 569.5 543.5 571.5> 353 72<346.5 406>
LayerCount: 2
Fore
SplineSet
369 557 m 0xf8
 369 530 347 508 320 508 c 0
 292 508 271 530 271 558 c 0
 271 585 293 606 321 606 c 0
 346 606 369 582 369 557 c 0xf8
350 107 m 1
 366 97 l 1
 305 20 252 -11 177 -11 c 0
 84 -11 30 41 30 143 c 0
 30 236 82 323 153 380 c 0
 202 419 259 441 320 441 c 0
 381 441 425 407 425 360 c 0
 425 333 403 312 377 312 c 0
 349 312 338 332 338 352 c 0
 338 370 353 381 353 400 c 0xf4
 353 412 339 420 316 420 c 0
 276 420 236 402 207 372 c 0
 151 313 116 228 116 139 c 0
 116 67 148 25 205 25 c 0
 258 25 296 50 350 107 c 1
EndSplineSet
EndChar

StartChar: uni010C
Encoding: 268 268 203
Width: 667
Flags: MW
HStem: -18 45<297.5 378.5> 630 36<448 488.5 432.5 529>
LayerCount: 2
Fore
SplineSet
647 875 m 1
 485 706 l 1
 437 706 l 1
 342 875 l 1
 380 875 l 1
 469 770 l 1
 610 875 l 1
 647 875 l 1
689 664 m 1
 652 464 l 1
 634 467 l 1
 622 574 573 630 485 630 c 0
 411 630 341 592 286 533 c 0
 214 456 178 342 178 232 c 0
 178 92 242 27 353 27 c 0
 435 27 495 56 582 146 c 1
 600 131 l 1
 510 25 430 -18 327 -18 c 0
 174 -18 66 78 66 243 c 0
 66 384 143 515 253 593 c 0
 317 639 393 666 472 666 c 0
 505 666 547 664 589 649 c 0
 609 642 621 642 630 642 c 0
 650 642 660 648 668 664 c 1
 689 664 l 1
EndSplineSet
EndChar

StartChar: uni010D
Encoding: 269 269 204
Width: 444
Flags: MW
HStem: -11 36<176.5 214.5> 420 21<296 327.5> 641 20<168 206 206 206 436 473 473 473>
VStem: 30 86<103 183.5 103 189.5> 353 72<346.5 406>
LayerCount: 2
Fore
SplineSet
473 661 m 1
 311 492 l 1
 263 492 l 1
 168 661 l 1
 206 661 l 1
 295 556 l 1
 436 661 l 1
 473 661 l 1
350 107 m 1
 366 97 l 1
 305 20 252 -11 177 -11 c 0
 84 -11 30 41 30 143 c 0
 30 236 82 323 153 380 c 0
 202 419 259 441 320 441 c 0
 381 441 425 407 425 360 c 0
 425 333 403 312 377 312 c 0
 349 312 338 332 338 352 c 0
 338 370 353 381 353 400 c 0
 353 412 339 420 316 420 c 0
 276 420 236 402 207 372 c 0
 151 313 116 228 116 139 c 0
 116 67 148 25 205 25 c 0
 258 25 296 50 350 107 c 1
EndSplineSet
EndChar

StartChar: uni010E
Encoding: 270 270 205
Width: 722
Flags: MW
HStem: 0 30<215 249> 623 30<361 408 408 409>
LayerCount: 2
Fore
SplineSet
603 875 m 1
 441 706 l 1
 393 706 l 1
 298 875 l 1
 336 875 l 1
 425 770 l 1
 566 875 l 1
 603 875 l 1
131 653 m 1
 408 653 l 2
 583 653 700 559 700 384 c 0
 700 260 638 159 540 83 c 0
 467 26 366 0 249 0 c 2
 -8 0 l 1
 -8 16 l 1
 48 26 58 33 74 92 c 2
 196 537 l 2
 203 562 207 581 207 596 c 0
 207 623 192 635 131 637 c 1
 131 653 l 1
310 584 m 2
 192 162 l 2
 175 100 170 80 170 67 c 0
 170 41 192 30 238 30 c 0
 339 30 417 60 479 120 c 0
 550 189 589 307 589 408 c 0
 589 488 560 551 511 588 c 0
 480 611 438 623 380 623 c 0
 342 623 320 619 310 584 c 2
EndSplineSet
EndChar

StartChar: uni010F
Encoding: 271 271 206
Width: 609
Flags: MW
HStem: -13 53<315 389.5> -11 48<142.5 156> 418 23<295 320.5>
VStem: 15 87<87 151.5 87 187> 287 76<18.5 68> 633 64<553 640>
LayerCount: 2
Fore
SplineSet
567 461 m 1x7c
 558 478 l 1
 610 513 633 540 633 566 c 0
 633 577 628 585 613 599 c 0
 594 616 588 626 588 645 c 0
 588 671 610 691 639 691 c 0
 672 691 697 660 697 620 c 0
 697 563 651 508 567 461 c 1x7c
521 683 m 1
 527 677 l 1
 511 616 502 577 488 525 c 2
 428 306 l 2
 397 192 363 76 363 60 c 0
 363 48 368 40 381 40 c 0
 398 40 409 49 463 111 c 1
 475 101 l 1
 426 28 378 -13 328 -13 c 0x9c
 302 -13 287 5 287 32 c 0
 287 55 289 71 300 121 c 1
 241 22 190 -11 122 -11 c 0
 57 -11 15 30 15 106 c 0
 15 268 177 441 307 441 c 0
 349 441 366 422 372 383 c 1
 373 383 l 1
 418 546 l 2
 433 599 432 603 432 617 c 0
 432 638 423 641 368 643 c 1
 368 660 l 1
 432 666 468 672 521 683 c 1
356 361 m 0x7c
 356 397 332 418 309 418 c 0
 281 418 246 401 218 372 c 0
 152 302 102 193 102 110 c 0
 102 64 125 37 160 37 c 0
 252 37 356 209 356 361 c 0x7c
EndSplineSet
EndChar

StartChar: uni0110
Encoding: 272 272 207
Width: 722
Flags: MW
HStem: 0 20 326 42<60 138 48 150 250 391> 623 30<353.5 406 406 445.5>
LayerCount: 2
Fore
SplineSet
130 653 m 1
 406 653 l 2
 589 653 700 562 700 384 c 0
 700 266 637 156 540 83 c 0
 466 27 365 0 237 0 c 2
 -8 0 l 1
 -8 16 l 1
 48 26 57 31 73 90 c 2
 138 326 l 1
 48 326 l 1
 60 368 l 1
 150 368 l 1
 196 532 l 2
 203 557 207 580 207 596 c 0
 207 623 193 631 130 637 c 1
 130 653 l 1
238 326 m 1
 192 162 l 2
 176 104 170 80 170 67 c 0
 170 41 193 30 239 30 c 0
 336 30 420 60 479 120 c 0
 547 188 589 295 589 404 c 0
 589 548 516 623 375 623 c 0
 332 623 319 616 313 594 c 2
 250 368 l 1
 403 368 l 1
 391 326 l 1
 238 326 l 1
EndSplineSet
EndChar

StartChar: uni0111
Encoding: 273 273 208
Width: 500
Flags: MW
HStem: -13 53<315 389.5> -11 48<142.5 156> 418 23<295 320.5> 521 39<235 410 228 422 497 570>
VStem: 15 87<87 151.5 87 187> 287 76<18.5 68>
LayerCount: 2
Fore
SplineSet
580 560 m 1x7c
 570 521 l 1
 486 521 l 1
 428 306 l 2
 397 192 363 76 363 60 c 0
 363 48 368 40 381 40 c 0
 398 40 409 49 463 111 c 1
 475 101 l 1
 426 28 378 -13 328 -13 c 0x9c
 302 -13 287 5 287 32 c 0
 287 55 289 71 300 121 c 1
 241 22 190 -11 122 -11 c 0
 57 -11 15 30 15 106 c 0
 15 268 177 441 307 441 c 0
 349 441 366 422 372 383 c 1
 373 383 l 1
 410 521 l 1
 228 521 l 1
 235 560 l 1
 422 560 l 1
 432 600 432 604 432 617 c 0
 432 638 423 641 368 643 c 1
 368 660 l 1
 432 666 468 672 521 683 c 1
 527 677 l 1
 497 560 l 1
 580 560 l 1x7c
356 361 m 0x6c
 356 397 332 418 309 418 c 0
 281 418 246 401 218 372 c 0
 152 302 102 193 102 110 c 0
 102 64 125 37 160 37 c 0
 252 37 356 209 356 361 c 0x6c
EndSplineSet
EndChar

StartChar: uni0112
Encoding: 274 274 209
Width: 611
Flags: MW
HStem: 0 33<227 304 227 506> 325 36<253 322 244 331> 620 33<363.5 470.5> 706 51<295 585 284 596>
LayerCount: 2
Fore
SplineSet
596 757 m 1
 585 706 l 1
 284 706 l 1
 295 757 l 1
 596 757 l 1
634 653 m 1
 603 499 l 1
 581 501 l 1
 583 518 584 534 584 547 c 0
 584 607 549 620 392 620 c 0
 335 620 325 616 319 594 c 2
 253 361 l 1
 331 361 l 2
 421 361 432 373 470 458 c 1
 488 454 l 1
 420 222 l 1
 400 227 l 1
 405 249 407 261 407 279 c 0
 407 296 405 305 400 310 c 0
 389 320 362 325 322 325 c 2
 244 325 l 1
 212 213 l 2
 187 125 176 79 176 67 c 0
 176 43 199 33 255 33 c 0
 353 33 407 45 458 72 c 0
 490 89 514 117 552 170 c 1
 568 162 l 1
 506 0 l 1
 -1 0 l 1
 -1 16 l 1
 55 26 64 32 80 90 c 2
 203 532 l 2
 209 552 214 584 214 596 c 0
 214 623 199 631 137 637 c 1
 137 653 l 1
 634 653 l 1
EndSplineSet
EndChar

StartChar: uni0113
Encoding: 275 275 210
Width: 444
Flags: MW
HStem: -11 45<183 207.5> 418 23<282.5 325> 491 51<165 455 154 466>
VStem: 31 87<97.5 132.5 97.5 203.5> 346 66<363.5 391>
LayerCount: 2
Fore
SplineSet
466 542 m 1
 455 491 l 1
 154 491 l 1
 165 542 l 1
 466 542 l 1
358 109 m 1
 370 97 l 1
 313 27 249 -11 166 -11 c 0
 85 -11 31 43 31 126 c 0
 31 281 180 441 330 441 c 0
 383 441 412 415 412 373 c 0
 412 287 307 209 128 186 c 1
 118 166 118 140 118 125 c 0
 118 70 155 34 211 34 c 0
 255 34 286 50 358 109 c 1
152 252 m 2
 135 208 l 1
 221 229 259 247 296 282 c 0
 327 312 346 348 346 379 c 0
 346 403 339 418 311 418 c 0
 254 418 186 341 152 252 c 2
EndSplineSet
EndChar

StartChar: uni0114
Encoding: 276 276 211
Width: 611
Flags: MW
HStem: 0 33<227 304 227 506> 325 36<253 322 244 331> 620 33<363.5 470.5> 708 59<402 466.5 402 471.5>
LayerCount: 2
Fore
SplineSet
572 866 m 1
 601 866 l 1
 587 778 515 708 428 708 c 0
 337 708 300 763 300 866 c 1
 329 866 l 1
 334 803 368 767 436 767 c 0
 497 767 550 804 572 866 c 1
634 653 m 1
 603 499 l 1
 581 501 l 1
 583 518 584 534 584 547 c 0
 584 607 549 620 392 620 c 0
 335 620 325 616 319 594 c 2
 253 361 l 1
 331 361 l 2
 421 361 432 373 470 458 c 1
 488 454 l 1
 420 222 l 1
 400 227 l 1
 405 249 407 261 407 279 c 0
 407 296 405 305 400 310 c 0
 389 320 362 325 322 325 c 2
 244 325 l 1
 212 213 l 2
 187 125 176 79 176 67 c 0
 176 43 199 33 255 33 c 0
 353 33 407 45 458 72 c 0
 490 89 514 117 552 170 c 1
 568 162 l 1
 506 0 l 1
 -1 0 l 1
 -1 16 l 1
 55 26 64 32 80 90 c 2
 203 532 l 2
 209 552 214 584 214 596 c 0
 214 623 199 631 137 637 c 1
 137 653 l 1
 634 653 l 1
EndSplineSet
EndChar

StartChar: uni0115
Encoding: 277 277 212
Width: 444
Flags: MW
HStem: -11 45<183 207.5> 418 23<282.5 325> 492 59<272 336.5 272 341.5>
VStem: 31 87<97.5 132.5 97.5 203.5> 346 66<363.5 391>
LayerCount: 2
Fore
SplineSet
442 650 m 1
 471 650 l 1
 457 562 385 492 298 492 c 0
 207 492 170 547 170 650 c 1
 199 650 l 1
 204 587 238 551 306 551 c 0
 367 551 420 588 442 650 c 1
358 109 m 1
 370 97 l 1
 313 27 249 -11 166 -11 c 0
 85 -11 31 43 31 126 c 0
 31 281 180 441 330 441 c 0
 383 441 412 415 412 373 c 0
 412 287 307 209 128 186 c 1
 118 166 118 140 118 125 c 0
 118 70 155 34 211 34 c 0
 255 34 286 50 358 109 c 1
152 252 m 2
 135 208 l 1
 221 229 259 247 296 282 c 0
 327 312 346 348 346 379 c 0
 346 403 339 418 311 418 c 0
 254 418 186 341 152 252 c 2
EndSplineSet
EndChar

StartChar: uni0116
Encoding: 278 278 213
Width: 611
Flags: MW
HStem: 0 33<227 304 227 506> 325 36<253 322 244 331> 620 33<363.5 470.5> 720 98<437 463.5 437 463.5>
VStem: 401 98<756 781.5 755.5 783.5>
LayerCount: 2
Fore
SplineSet
499 769 m 0
 499 742 477 720 450 720 c 0
 422 720 401 742 401 770 c 0
 401 797 423 818 451 818 c 0
 476 818 499 794 499 769 c 0
634 653 m 1
 603 499 l 1
 581 501 l 1
 583 518 584 534 584 547 c 0
 584 607 549 620 392 620 c 0
 335 620 325 616 319 594 c 2
 253 361 l 1
 331 361 l 2
 421 361 432 373 470 458 c 1
 488 454 l 1
 420 222 l 1
 400 227 l 1
 405 249 407 261 407 279 c 0
 407 296 405 305 400 310 c 0
 389 320 362 325 322 325 c 2
 244 325 l 1
 212 213 l 2
 187 125 176 79 176 67 c 0
 176 43 199 33 255 33 c 0
 353 33 407 45 458 72 c 0
 490 89 514 117 552 170 c 1
 568 162 l 1
 506 0 l 1
 -1 0 l 1
 -1 16 l 1
 55 26 64 32 80 90 c 2
 203 532 l 2
 209 552 214 584 214 596 c 0
 214 623 199 631 137 637 c 1
 137 653 l 1
 634 653 l 1
EndSplineSet
EndChar

StartChar: uni0117
Encoding: 279 279 214
Width: 444
Flags: MW
HStem: -11 45<183 207.5> 418 23<282.5 325> 508 98<297 323.5 297 323.5>
VStem: 31 87<97.5 132.5 97.5 203.5> 261 98<544 569.5 543.5 571.5> 346 66<363.5 391>
LayerCount: 2
Fore
SplineSet
359 557 m 0xf8
 359 530 337 508 310 508 c 0
 282 508 261 530 261 558 c 0
 261 585 283 606 311 606 c 0
 336 606 359 582 359 557 c 0xf8
358 109 m 1
 370 97 l 1
 313 27 249 -11 166 -11 c 0
 85 -11 31 43 31 126 c 0
 31 281 180 441 330 441 c 0
 383 441 412 415 412 373 c 0xf4
 412 287 307 209 128 186 c 1
 118 166 118 140 118 125 c 0
 118 70 155 34 211 34 c 0
 255 34 286 50 358 109 c 1
152 252 m 2
 135 208 l 1
 221 229 259 247 296 282 c 0
 327 312 346 348 346 379 c 0
 346 403 339 418 311 418 c 0
 254 418 186 341 152 252 c 2
EndSplineSet
EndChar

StartChar: uni0118
Encoding: 280 280 215
Width: 611
Flags: MW
HStem: -175 63<369.5 386.5> 0 33<227 299> 325 36<253 322 244 331> 620 33<363.5 470.5>
VStem: 267 61<-74 -65>
LayerCount: 2
Fore
SplineSet
299 0 m 1
 -1 0 l 1
 -1 16 l 1
 55 26 64 32 80 90 c 2
 203 532 l 2
 209 552 214 584 214 596 c 0
 214 623 199 631 137 637 c 1
 137 653 l 1
 634 653 l 1
 603 499 l 1
 581 501 l 1
 583 518 584 534 584 547 c 0
 584 607 549 620 392 620 c 0
 335 620 325 616 319 594 c 2
 253 361 l 1
 331 361 l 2
 421 361 432 373 470 458 c 1
 488 454 l 1
 420 222 l 1
 400 227 l 1
 405 249 407 261 407 279 c 0
 407 296 405 305 400 310 c 0
 389 320 362 325 322 325 c 2
 244 325 l 1
 212 213 l 2
 187 125 176 79 176 67 c 0
 176 43 199 33 255 33 c 0
 353 33 407 45 458 72 c 0
 490 89 514 117 552 170 c 1
 568 162 l 1
 506 0 l 1
 341 0 l 1
 332 -20 328 -40 328 -59 c 0
 328 -89 352 -112 387 -112 c 0
 419 -112 445 -102 470 -80 c 1
 487 -98 l 1
 452 -150 411 -175 362 -175 c 0
 310 -175 267 -137 267 -80 c 0
 267 -50 277 -25 299 0 c 1
EndSplineSet
EndChar

StartChar: uni0119
Encoding: 281 281 216
Width: 444
Flags: MW
HStem: -175 63<242.5 259.5> 418 23<282.5 325>
VStem: 31 87<97.5 132.5 97.5 203.5> 140 61<-74 -67> 346 66<363.5 391>
LayerCount: 2
Fore
SplineSet
343 -80 m 1
 360 -98 l 1
 325 -150 284 -175 235 -175 c 0
 183 -175 140 -137 140 -80 c 0
 140 -54 147 -32 163 -11 c 1
 84 -10 31 44 31 126 c 0
 31 281 180 441 330 441 c 0
 383 441 412 415 412 373 c 0
 412 287 307 209 128 186 c 1
 118 166 118 140 118 125 c 0
 118 70 155 34 211 34 c 0
 255 34 286 50 358 109 c 1
 370 97 l 1
 324 40 273 4 211 -7 c 1
 204 -25 201 -42 201 -59 c 0
 201 -89 225 -112 260 -112 c 0
 292 -112 318 -102 343 -80 c 1
152 252 m 2
 135 208 l 1
 221 229 259 247 296 282 c 0
 327 312 346 348 346 379 c 0
 346 403 339 418 311 418 c 0
 254 418 186 341 152 252 c 2
EndSplineSet
EndChar

StartChar: uni011A
Encoding: 282 282 217
Width: 611
Flags: MW
HStem: 0 33<227 304 227 506> 325 36<253 322 244 331> 620 33<363.5 470.5>
LayerCount: 2
Fore
SplineSet
603 875 m 1
 441 706 l 1
 393 706 l 1
 298 875 l 1
 336 875 l 1
 425 770 l 1
 566 875 l 1
 603 875 l 1
634 653 m 1
 603 499 l 1
 581 501 l 1
 583 518 584 534 584 547 c 0
 584 607 549 620 392 620 c 0
 335 620 325 616 319 594 c 2
 253 361 l 1
 331 361 l 2
 421 361 432 373 470 458 c 1
 488 454 l 1
 420 222 l 1
 400 227 l 1
 405 249 407 261 407 279 c 0
 407 296 405 305 400 310 c 0
 389 320 362 325 322 325 c 2
 244 325 l 1
 212 213 l 2
 187 125 176 79 176 67 c 0
 176 43 199 33 255 33 c 0
 353 33 407 45 458 72 c 0
 490 89 514 117 552 170 c 1
 568 162 l 1
 506 0 l 1
 -1 0 l 1
 -1 16 l 1
 55 26 64 32 80 90 c 2
 203 532 l 2
 209 552 214 584 214 596 c 0
 214 623 199 631 137 637 c 1
 137 653 l 1
 634 653 l 1
EndSplineSet
EndChar

StartChar: uni011B
Encoding: 283 283 218
Width: 444
Flags: MW
HStem: -11 45<183 207.5> 418 23<282.5 325> 641 20<197 235 235 235 465 502 502 502>
VStem: 31 87<97.5 132.5 97.5 203.5> 346 66<363.5 391>
LayerCount: 2
Fore
SplineSet
502 661 m 1
 340 492 l 1
 292 492 l 1
 197 661 l 1
 235 661 l 1
 324 556 l 1
 465 661 l 1
 502 661 l 1
358 109 m 1
 370 97 l 1
 313 27 249 -11 166 -11 c 0
 85 -11 31 43 31 126 c 0
 31 281 180 441 330 441 c 0
 383 441 412 415 412 373 c 0
 412 287 307 209 128 186 c 1
 118 166 118 140 118 125 c 0
 118 70 155 34 211 34 c 0
 255 34 286 50 358 109 c 1
152 252 m 2
 135 208 l 1
 221 229 259 247 296 282 c 0
 327 312 346 348 346 379 c 0
 346 403 339 418 311 418 c 0
 254 418 186 341 152 252 c 2
EndSplineSet
EndChar

StartChar: uni011C
Encoding: 284 284 219
Width: 722
Flags: MW
HStem: -18 37<299.5 383> 632 34<423.5 475.5 415.5 494>
LayerCount: 2
Fore
SplineSet
653 708 m 1
 617 708 l 1
 535 812 l 1
 398 708 l 1
 359 708 l 1
 516 877 l 1
 565 877 l 1
 653 708 l 1
722 319 m 1
 722 303 l 1
 657 299 640 288 625 231 c 2
 576 44 l 1
 499 1 427 -18 339 -18 c 0
 252 -18 177 7 126 58 c 0
 79 106 52 183 52 251 c 0
 52 392 127 519 235 594 c 0
 300 639 376 666 455 666 c 0
 496 666 545 659 589 642 c 0
 612 633 622 632 633 632 c 0
 659 632 676 642 693 666 c 1
 708 661 l 1
 659 464 l 1
 641 467 l 1
 639 510 626 546 604 573 c 0
 573 611 525 632 463 632 c 0
 384 632 316 594 268 533 c 0
 203 450 162 339 162 228 c 0
 162 97 235 19 364 19 c 0
 409 19 447 31 469 53 c 0
 481 65 486 77 508 154 c 0
 528 221 534 245 534 267 c 0
 534 285 520 297 487 300 c 2
 455 303 l 1
 455 319 l 1
 722 319 l 1
EndSplineSet
EndChar

StartChar: uni011D
Encoding: 285 285 220
Width: 500
Flags: MW
HStem: -206 22<150 230.5 150 241.5> 151 21<240.5 251 215 292.5> 366 39<422 471 422 422> 419 22<265 314.5> 641 20<310 359 359 359>
VStem: 8 55<-117 -72.5> 96 78<244 296.5 223.5 321> 98 74<71.5 124.5> 325 60<-98.5 -67> 352 79<273 374.5>
LayerCount: 2
Fore
SplineSet
447 492 m 1xfa
 411 492 l 1
 329 596 l 1
 192 492 l 1
 153 492 l 1
 310 661 l 1
 359 661 l 1
 447 492 l 1xfa
471 366 m 1
 422 366 l 1
 431 348 431 332 431 315 c 0xfa40
 431 231 339 151 246 151 c 0
 235 151 224 152 215 154 c 0
 212 155 210 155 208 155 c 0
 191 155 172 135 172 114 c 0
 172 96 199 83 243 72 c 0
 339 49 385 5 385 -55 c 0
 385 -142 308 -206 175 -206 c 0
 73 -206 8 -170 8 -98 c 0
 8 -47 27 -20 125 39 c 1
 107 50 98 65 98 78 c 0xfd80
 98 107 121 137 175 162 c 1
 119 182 96 218 96 270 c 0
 96 372 196 441 297 441 c 0
 335 441 368 432 395 413 c 0
 403 407 408 405 411 405 c 2
 471 405 l 1
 471 366 l 1
352 348 m 0
 352 401 333 419 296 419 c 0
 234 419 174 346 174 247 c 0
 174 200 196 172 234 172 c 0
 268 172 295 190 319 231 c 0
 339 265 352 306 352 348 c 0
325 -90 m 0xfc80
 325 -44 289 -16 182 17 c 0
 169 21 159 24 148 28 c 1
 139 28 97 -6 83 -24 c 0
 68 -43 63 -59 63 -82 c 0
 63 -152 110 -184 190 -184 c 0
 271 -184 325 -141 325 -90 c 0xfc80
EndSplineSet
EndChar

StartChar: uni011E
Encoding: 286 286 221
Width: 722
Flags: MW
HStem: -18 37<299.5 383> 632 34<423.5 475.5 415.5 494> 708 59<462 526.5 462 531.5>
LayerCount: 2
Fore
SplineSet
632 866 m 1
 661 866 l 1
 647 778 575 708 488 708 c 0
 397 708 360 763 360 866 c 1
 389 866 l 1
 394 803 428 767 496 767 c 0
 557 767 610 804 632 866 c 1
722 319 m 1
 722 303 l 1
 657 299 640 288 625 231 c 2
 576 44 l 1
 499 1 427 -18 339 -18 c 0
 252 -18 177 7 126 58 c 0
 79 106 52 183 52 251 c 0
 52 392 127 519 235 594 c 0
 300 639 376 666 455 666 c 0
 496 666 545 659 589 642 c 0
 612 633 622 632 633 632 c 0
 659 632 676 642 693 666 c 1
 708 661 l 1
 659 464 l 1
 641 467 l 1
 639 510 626 546 604 573 c 0
 573 611 525 632 463 632 c 0
 384 632 316 594 268 533 c 0
 203 450 162 339 162 228 c 0
 162 97 235 19 364 19 c 0
 409 19 447 31 469 53 c 0
 481 65 486 77 508 154 c 0
 528 221 534 245 534 267 c 0
 534 285 520 297 487 300 c 2
 455 303 l 1
 455 319 l 1
 722 319 l 1
EndSplineSet
EndChar

StartChar: uni011F
Encoding: 287 287 222
Width: 500
Flags: MW
HStem: -206 22<150 230.5 150 241.5> 151 21<240.5 251 215 292.5> 366 39<422 471 422 422> 419 22<265 314.5> 492 59<277 341.5 277 346.5>
VStem: 8 55<-117 -72.5> 96 78<244 296.5 223.5 321> 98 74<71.5 124.5> 325 60<-98.5 -67> 352 79<273 374.5>
LayerCount: 2
Fore
SplineSet
447 650 m 1xfa
 476 650 l 1
 462 562 390 492 303 492 c 0
 212 492 175 547 175 650 c 1
 204 650 l 1
 209 587 243 551 311 551 c 0
 372 551 425 588 447 650 c 1xfa
471 366 m 1
 422 366 l 1
 431 348 431 332 431 315 c 0xfa40
 431 231 339 151 246 151 c 0
 235 151 224 152 215 154 c 0
 212 155 210 155 208 155 c 0
 191 155 172 135 172 114 c 0
 172 96 199 83 243 72 c 0
 339 49 385 5 385 -55 c 0
 385 -142 308 -206 175 -206 c 0
 73 -206 8 -170 8 -98 c 0
 8 -47 27 -20 125 39 c 1
 107 50 98 65 98 78 c 0xfd80
 98 107 121 137 175 162 c 1
 119 182 96 218 96 270 c 0
 96 372 196 441 297 441 c 0
 335 441 368 432 395 413 c 0
 403 407 408 405 411 405 c 2
 471 405 l 1
 471 366 l 1
352 348 m 0
 352 401 333 419 296 419 c 0
 234 419 174 346 174 247 c 0
 174 200 196 172 234 172 c 0
 268 172 295 190 319 231 c 0
 339 265 352 306 352 348 c 0
325 -90 m 0xfc80
 325 -44 289 -16 182 17 c 0
 169 21 159 24 148 28 c 1
 139 28 97 -6 83 -24 c 0
 68 -43 63 -59 63 -82 c 0
 63 -152 110 -184 190 -184 c 0
 271 -184 325 -141 325 -90 c 0xfc80
EndSplineSet
EndChar

StartChar: uni0120
Encoding: 288 288 223
Width: 722
Flags: MW
HStem: -18 37<299.5 383> 632 34<423.5 475.5 415.5 494> 720 98<477 503.5 477 503.5>
VStem: 441 98<756 781.5 755.5 783.5>
LayerCount: 2
Fore
SplineSet
539 769 m 0
 539 742 517 720 490 720 c 0
 462 720 441 742 441 770 c 0
 441 797 463 818 491 818 c 0
 516 818 539 794 539 769 c 0
722 319 m 1
 722 303 l 1
 657 299 640 288 625 231 c 2
 576 44 l 1
 499 1 427 -18 339 -18 c 0
 252 -18 177 7 126 58 c 0
 79 106 52 183 52 251 c 0
 52 392 127 519 235 594 c 0
 300 639 376 666 455 666 c 0
 496 666 545 659 589 642 c 0
 612 633 622 632 633 632 c 0
 659 632 676 642 693 666 c 1
 708 661 l 1
 659 464 l 1
 641 467 l 1
 639 510 626 546 604 573 c 0
 573 611 525 632 463 632 c 0
 384 632 316 594 268 533 c 0
 203 450 162 339 162 228 c 0
 162 97 235 19 364 19 c 0
 409 19 447 31 469 53 c 0
 481 65 486 77 508 154 c 0
 528 221 534 245 534 267 c 0
 534 285 520 297 487 300 c 2
 455 303 l 1
 455 319 l 1
 722 319 l 1
EndSplineSet
EndChar

StartChar: uni0121
Encoding: 289 289 224
Width: 500
Flags: MW
HStem: -206 22<150 230.5 150 241.5> 151 21<240.5 251 215 292.5> 366 39<422 471 422 422> 419 22<265 314.5> 508 98<288 314.5 288 314.5>
VStem: 8 55<-117 -72.5> 96 78<244 296.5 223.5 321> 98 74<71.5 124.5> 252 98<544 569.5 543.5 571.5> 325 60<-98.5 -67> 352 79<273 374.5>
LayerCount: 2
Fore
SplineSet
350 557 m 0xfa80
 350 530 328 508 301 508 c 0
 273 508 252 530 252 558 c 0
 252 585 274 606 302 606 c 0
 327 606 350 582 350 557 c 0xfa80
471 366 m 1
 422 366 l 1
 431 348 431 332 431 315 c 0xfa20
 431 231 339 151 246 151 c 0
 235 151 224 152 215 154 c 0
 212 155 210 155 208 155 c 0
 191 155 172 135 172 114 c 0
 172 96 199 83 243 72 c 0
 339 49 385 5 385 -55 c 0
 385 -142 308 -206 175 -206 c 0
 73 -206 8 -170 8 -98 c 0
 8 -47 27 -20 125 39 c 1
 107 50 98 65 98 78 c 0xfd40
 98 107 121 137 175 162 c 1
 119 182 96 218 96 270 c 0
 96 372 196 441 297 441 c 0
 335 441 368 432 395 413 c 0
 403 407 408 405 411 405 c 2
 471 405 l 1
 471 366 l 1
352 348 m 0
 352 401 333 419 296 419 c 0
 234 419 174 346 174 247 c 0
 174 200 196 172 234 172 c 0
 268 172 295 190 319 231 c 0
 339 265 352 306 352 348 c 0
325 -90 m 0xfc40
 325 -44 289 -16 182 17 c 0
 169 21 159 24 148 28 c 1
 139 28 97 -6 83 -24 c 0
 68 -43 63 -59 63 -82 c 0
 63 -152 110 -184 190 -184 c 0
 271 -184 325 -141 325 -90 c 0xfc40
EndSplineSet
EndChar

StartChar: uni0122
Encoding: 290 290 225
Width: 722
Flags: MW
HStem: -18 37<299.5 383> 632 34<423.5 475.5 415.5 494>
VStem: 325 64<-174.5 -88>
LayerCount: 2
Fore
SplineSet
722 319 m 1
 722 303 l 1
 657 299 640 288 625 231 c 2
 576 44 l 1
 499 1 427 -18 339 -18 c 0
 252 -18 177 7 126 58 c 0
 79 106 52 183 52 251 c 0
 52 392 127 519 235 594 c 0
 300 639 376 666 455 666 c 0
 496 666 545 659 589 642 c 0
 612 633 622 632 633 632 c 0
 659 632 676 642 693 666 c 1
 708 661 l 1
 659 464 l 1
 641 467 l 1
 639 510 626 546 604 573 c 0
 573 611 525 632 463 632 c 0
 384 632 316 594 268 533 c 0
 203 450 162 339 162 228 c 0
 162 97 235 19 364 19 c 0
 409 19 447 31 469 53 c 0
 481 65 486 77 508 154 c 0
 528 221 534 245 534 267 c 0
 534 285 520 297 487 300 c 2
 455 303 l 1
 455 319 l 1
 722 319 l 1
259 -267 m 1
 250 -249 l 1
 303 -214 325 -188 325 -161 c 0
 325 -151 319 -144 304 -130 c 0
 285 -113 280 -102 280 -83 c 0
 280 -57 302 -37 331 -37 c 0
 364 -37 389 -68 389 -108 c 0
 389 -164 344 -220 259 -267 c 1
EndSplineSet
EndChar

StartChar: uni0123
Encoding: 291 291 226
Width: 500
Flags: MW
HStem: -206 22<150 230.5 150 241.5> 151 21<240.5 251 215 292.5> 366 39<422 471 422 422> 419 22<265 314.5>
VStem: 8 55<-117 -72.5> 96 78<244 296.5 223.5 321> 98 74<71.5 124.5> 256 64<544.5 631.5> 325 60<-98.5 -67> 352 79<273 374.5>
LayerCount: 2
Fore
SplineSet
386 724 m 1xf5
 395 707 l 1
 342 672 320 645 320 618 c 0
 320 608 325 600 340 586 c 0
 359 569 365 558 365 541 c 0
 365 514 343 494 314 494 c 0
 281 494 256 524 256 565 c 0
 256 622 301 677 386 724 c 1xf5
471 366 m 1
 422 366 l 1
 431 348 431 332 431 315 c 0xf440
 431 231 339 151 246 151 c 0
 235 151 224 152 215 154 c 0
 212 155 210 155 208 155 c 0
 191 155 172 135 172 114 c 0
 172 96 199 83 243 72 c 0
 339 49 385 5 385 -55 c 0
 385 -142 308 -206 175 -206 c 0
 73 -206 8 -170 8 -98 c 0
 8 -47 27 -20 125 39 c 1
 107 50 98 65 98 78 c 0xfa80
 98 107 121 137 175 162 c 1
 119 182 96 218 96 270 c 0
 96 372 196 441 297 441 c 0
 335 441 368 432 395 413 c 0
 403 407 408 405 411 405 c 2
 471 405 l 1
 471 366 l 1
352 348 m 0
 352 401 333 419 296 419 c 0
 234 419 174 346 174 247 c 0
 174 200 196 172 234 172 c 0
 268 172 295 190 319 231 c 0
 339 265 352 306 352 348 c 0
325 -90 m 0xf880
 325 -44 289 -16 182 17 c 0
 169 21 159 24 148 28 c 1
 139 28 97 -6 83 -24 c 0
 68 -43 63 -59 63 -82 c 0
 63 -152 110 -184 190 -184 c 0
 271 -184 325 -141 325 -90 c 0xf880
EndSplineSet
EndChar

StartChar: uni0124
Encoding: 292 292 227
Width: 722
Flags: MW
HStem: 0 20 326 42<248 521 236 533> 633 20<131 402 402 402 521 769 769 769>
LayerCount: 2
Fore
SplineSet
627 706 m 1
 591 706 l 1
 509 810 l 1
 372 706 l 1
 333 706 l 1
 490 875 l 1
 539 875 l 1
 627 706 l 1
769 653 m 1
 769 637 l 1
 712 627 701 621 685 563 c 2
 553 82 l 2
 551 74 550 66 550 58 c 0
 550 30 564 23 629 16 c 1
 629 0 l 1
 355 0 l 1
 355 16 l 1
 426 21 444 44 457 93 c 2
 521 326 l 1
 236 326 l 1
 170 82 l 2
 168 75 167 67 167 60 c 0
 167 31 177 24 237 16 c 1
 237 0 l 1
 -8 0 l 1
 -8 16 l 1
 48 22 60 37 78 102 c 2
 196 532 l 2
 203 559 208 581 208 596 c 0
 208 625 194 631 131 637 c 1
 131 653 l 1
 402 653 l 1
 402 637 l 1
 342 633 315 614 302 566 c 2
 248 368 l 1
 533 368 l 1
 579 532 l 2
 586 558 593 579 593 595 c 0
 593 619 577 633 521 637 c 1
 521 653 l 1
 769 653 l 1
EndSplineSet
EndChar

StartChar: uni0125
Encoding: 293 293 228
Width: 500
Flags: MW
HStem: -9 47<318.5 391> 0 20 390 51<352 353.5>
VStem: 288 79<20 61.5> 370 78<363 372.5>
LayerCount: 2
Fore
SplineSet
447 706 m 1xb8
 411 706 l 1
 329 810 l 1
 192 706 l 1
 153 706 l 1
 310 875 l 1
 359 875 l 1
 447 706 l 1xb8
465 118 m 1
 478 105 l 1
 417 18 383 -9 332 -9 c 0x98
 305 -9 288 7 288 33 c 0
 288 45 295 76 308 125 c 2
 363 332 l 2
 367 348 370 361 370 365 c 0
 370 380 365 390 342 390 c 0
 306 390 242 329 190 250 c 0
 150 189 134 154 94 0 c 1
 19 0 l 1x78
 165 554 l 2
 173 585 178 602 178 616 c 0
 178 633 155 641 137 641 c 2
 110 641 l 1
 110 656 l 1
 170 663 209 670 267 683 c 1
 274 677 l 1
 153 230 l 1
 243 376 321 441 383 441 c 0
 429 441 448 411 448 374 c 0
 448 349 430 275 400 181 c 0
 383 129 367 67 367 56 c 0
 367 46 374 38 383 38 c 0
 399 38 411 50 465 118 c 1
EndSplineSet
EndChar

StartChar: uni0126
Encoding: 294 294 229
Width: 722
Flags: MW
HStem: 0 20 326 42<248 521 236 533> 476 44<89 180 77 192 289 563 673 749> 633 20<131 402 402 402 521 769 769 769>
LayerCount: 2
Fore
SplineSet
769 653 m 1
 769 637 l 1
 712 627 701 621 685 563 c 2
 673 520 l 1
 761 520 l 1
 749 476 l 1
 661 476 l 1
 553 82 l 2
 551 74 550 66 550 58 c 0
 550 30 564 23 629 16 c 1
 629 0 l 1
 355 0 l 1
 355 16 l 1
 426 21 444 44 457 93 c 2
 521 326 l 1
 236 326 l 1
 170 82 l 2
 168 75 167 67 167 60 c 0
 167 31 177 24 237 16 c 1
 237 0 l 1
 -8 0 l 1
 -8 16 l 1
 48 22 60 37 78 102 c 2
 180 476 l 1
 77 476 l 1
 89 520 l 1
 192 520 l 1
 203 559 208 581 208 596 c 0
 208 625 194 631 131 637 c 1
 131 653 l 1
 402 653 l 1
 402 637 l 1
 342 633 316 614 302 566 c 2
 289 520 l 1
 575 520 l 1
 586 558 593 579 593 595 c 0
 593 619 577 633 521 637 c 1
 521 653 l 1
 769 653 l 1
563 476 m 1
 277 476 l 1
 248 368 l 1
 533 368 l 1
 563 476 l 1
EndSplineSet
EndChar

StartChar: uni0127
Encoding: 295 295 230
Width: 500
Flags: MW
HStem: -9 47<318.5 391> 0 20 390 51<352 353.5> 500 54<103 151 88 165 241 385>
VStem: 288 79<20 61.5> 370 78<363 372.5>
LayerCount: 2
Fore
SplineSet
465 118 m 1xbc
 478 105 l 1
 417 18 383 -9 332 -9 c 0x8c
 305 -9 288 7 288 33 c 0
 288 45 295 76 308 125 c 2
 363 332 l 2
 367 348 370 361 370 365 c 0
 370 380 365 390 342 390 c 0
 306 390 242 329 190 250 c 0
 150 189 134 154 94 0 c 1
 19 0 l 1x6c
 151 500 l 1
 88 500 l 1
 103 554 l 1
 165 554 l 1
 173 585 178 602 178 616 c 0
 178 633 155 641 137 641 c 2
 110 641 l 1
 110 656 l 1
 170 663 209 670 267 683 c 1
 274 677 l 1
 241 554 l 1
 400 554 l 1
 385 500 l 1
 226 500 l 1
 153 230 l 1
 243 376 321 441 383 441 c 0
 429 441 448 411 448 374 c 0
 448 349 430 275 400 181 c 0
 383 129 367 67 367 56 c 0
 367 46 374 38 383 38 c 0
 399 38 411 50 465 118 c 1xbc
EndSplineSet
EndChar

StartChar: uni0128
Encoding: 296 296 231
Width: 333
Flags: MW
HStem: 0 20 633 20<137 384 384 384> 732 60<357.5 373> 776 59<191 205.5>
LayerCount: 2
Fore
SplineSet
416 836 m 1x20
 444 836 l 1
 430 769 397 732 349 732 c 0xe0
 336 732 318 737 292 747 c 0
 238 769 214 776 197 776 c 0
 172 776 156 761 146 729 c 1
 117 729 l 1
 137 806 165 835 217 835 c 0x10
 240 835 265 828 303 811 c 0
 333 797 350 792 365 792 c 0
 392 792 405 803 416 836 c 1x20
384 653 m 1
 384 637 l 1
 328 630 319 621 302 560 c 2
 182 131 l 2
 173 99 167 75 167 55 c 0
 167 27 179 23 236 16 c 1
 236 0 l 1
 -8 0 l 1
 -8 16 l 1
 47 26 61 35 76 91 c 2
 196 532 l 2
 203 557 209 578 209 594 c 0
 209 619 193 634 137 637 c 1
 137 653 l 1
 384 653 l 1
EndSplineSet
EndChar

StartChar: uni0129
Encoding: 297 297 232
Width: 278
Flags: MW
HStem: -11 47<82 148.5> 520 60<270.5 286> 564 59<104 118.5>
VStem: 47 77<47 56 47 56>
LayerCount: 2
Fore
SplineSet
329 624 m 1x50
 357 624 l 1
 343 557 310 520 262 520 c 0xd0
 249 520 231 525 205 535 c 0
 151 557 127 564 110 564 c 0
 85 564 69 549 59 517 c 1
 30 517 l 1
 50 594 78 623 130 623 c 0x30
 153 623 178 616 216 599 c 0
 246 585 263 580 278 580 c 0
 305 580 318 591 329 624 c 1x50
221 115 m 1
 235 103 l 1
 182 21 148 -11 97 -11 c 0
 67 -11 47 8 47 46 c 0
 47 66 55 96 71 156 c 2
 119 331 l 2
 124 350 128 368 128 376 c 0
 128 396 119 399 65 400 c 1
 65 416 l 1
 104 419 123 422 224 441 c 1
 229 438 l 1
 133 96 l 2
 128 77 124 61 124 51 c 0
 124 43 130 36 140 36 c 0
 157 36 178 58 221 115 c 1
EndSplineSet
EndChar

StartChar: uni012A
Encoding: 298 298 233
Width: 333
Flags: MW
HStem: 0 20 633 20<137 384 384 384> 706 51<138 428 127 439>
LayerCount: 2
Fore
SplineSet
439 757 m 1
 428 706 l 1
 127 706 l 1
 138 757 l 1
 439 757 l 1
384 653 m 1
 384 637 l 1
 328 630 319 621 302 560 c 2
 182 131 l 2
 173 99 167 75 167 55 c 0
 167 27 179 23 236 16 c 1
 236 0 l 1
 -8 0 l 1
 -8 16 l 1
 47 26 61 35 76 91 c 2
 196 532 l 2
 203 557 209 578 209 594 c 0
 209 619 193 634 137 637 c 1
 137 653 l 1
 384 653 l 1
EndSplineSet
EndChar

StartChar: uni012B
Encoding: 299 299 234
Width: 278
Flags: MW
HStem: -11 47<82 148.5> 492 51<40 330 29 341>
VStem: 47 77<47 56 47 56>
LayerCount: 2
Fore
SplineSet
341 543 m 1
 330 492 l 1
 29 492 l 1
 40 543 l 1
 341 543 l 1
221 115 m 1
 235 103 l 1
 182 21 148 -11 97 -11 c 0
 67 -11 47 8 47 46 c 0
 47 66 55 96 71 156 c 2
 119 331 l 2
 124 350 128 368 128 376 c 0
 128 396 119 399 65 400 c 1
 65 416 l 1
 104 419 123 422 224 441 c 1
 229 438 l 1
 133 96 l 2
 128 77 124 61 124 51 c 0
 124 43 130 36 140 36 c 0
 157 36 178 58 221 115 c 1
EndSplineSet
EndChar

StartChar: uni012C
Encoding: 300 300 235
Width: 333
Flags: MW
HStem: 0 20 633 20<137 384 384 384> 708 59<249 313.5 249 318.5>
LayerCount: 2
Fore
SplineSet
419 866 m 1
 448 866 l 1
 434 778 362 708 275 708 c 0
 184 708 147 763 147 866 c 1
 176 866 l 1
 181 803 215 767 283 767 c 0
 344 767 397 804 419 866 c 1
384 653 m 1
 384 637 l 1
 328 630 319 621 302 560 c 2
 182 131 l 2
 173 99 167 75 167 55 c 0
 167 27 179 23 236 16 c 1
 236 0 l 1
 -8 0 l 1
 -8 16 l 1
 47 26 61 35 76 91 c 2
 196 532 l 2
 203 557 209 578 209 594 c 0
 209 619 193 634 137 637 c 1
 137 653 l 1
 384 653 l 1
EndSplineSet
EndChar

StartChar: uni012D
Encoding: 301 301 236
Width: 278
Flags: MW
HStem: -11 47<82 148.5> 492 59<148 212.5 148 217.5>
VStem: 47 77<47 56 47 56>
LayerCount: 2
Fore
SplineSet
318 650 m 1
 347 650 l 1
 333 562 261 492 174 492 c 0
 83 492 46 547 46 650 c 1
 75 650 l 1
 80 587 114 551 182 551 c 0
 243 551 296 588 318 650 c 1
221 115 m 1
 235 103 l 1
 182 21 148 -11 97 -11 c 0
 67 -11 47 8 47 46 c 0
 47 66 55 96 71 156 c 2
 119 331 l 2
 124 350 128 368 128 376 c 0
 128 396 119 399 65 400 c 1
 65 416 l 1
 104 419 123 422 224 441 c 1
 229 438 l 1
 133 96 l 2
 128 77 124 61 124 51 c 0
 124 43 130 36 140 36 c 0
 157 36 178 58 221 115 c 1
EndSplineSet
EndChar

StartChar: uni012E
Encoding: 302 302 237
Width: 333
Flags: MW
HStem: -169 63<169.5 186.5> 0 20 633 20<137 384 384 384>
VStem: 67 61<-68 -60>
LayerCount: 2
Fore
SplineSet
94 0 m 1
 -8 0 l 1
 -8 16 l 1
 47 26 61 35 76 91 c 2
 196 532 l 2
 203 557 209 578 209 594 c 0
 209 619 193 634 137 637 c 1
 137 653 l 1
 384 653 l 1
 384 637 l 1
 328 630 319 621 302 560 c 2
 182 131 l 2
 173 99 167 75 167 55 c 0
 167 27 179 23 236 16 c 1
 236 0 l 1
 138 0 l 1
 131 -18 128 -36 128 -53 c 0
 128 -83 152 -106 187 -106 c 0
 219 -106 245 -96 270 -74 c 1
 287 -92 l 1
 252 -144 211 -169 162 -169 c 0
 110 -169 67 -131 67 -74 c 0
 67 -46 75 -23 94 0 c 1
EndSplineSet
EndChar

StartChar: uni012F
Encoding: 303 303 238
Width: 278
Flags: MW
HStem: -169 63<185.5 202.5> 634 20<200.5 227.5>
VStem: 49 75<46 54> 83 61<-68 -62>
LayerCount: 2
Fore
SplineSet
102 -11 m 1xd0
 98 -11 l 2
 65 -11 49 7 49 44 c 0
 49 64 56 99 71 155 c 2
 119 332 l 2
 124 350 128 368 128 376 c 0
 128 396 118 399 64 400 c 1
 64 416 l 1
 103 419 123 422 224 441 c 1
 228 438 l 1
 134 95 l 2
 129 78 124 65 124 51 c 0xe0
 124 41 130 36 138 36 c 0
 155 36 179 57 222 114 c 1
 235 103 l 1
 205 57 182 27 159 10 c 1
 148 -12 144 -32 144 -53 c 0
 144 -83 168 -106 203 -106 c 0
 235 -106 261 -96 286 -74 c 1
 303 -92 l 1
 268 -144 227 -169 178 -169 c 0
 126 -169 83 -131 83 -74 c 0
 83 -50 89 -30 102 -11 c 1xd0
264 599 m 0
 264 571 241 548 215 548 c 0
 186 548 167 569 167 601 c 0
 167 632 187 654 214 654 c 0
 241 654 264 628 264 599 c 0
EndSplineSet
EndChar

StartChar: uni0130
Encoding: 304 304 239
Width: 333
Flags: MW
HStem: 0 20 633 20<137 384 384 384> 720 98<282 308.5 282 308.5>
VStem: 246 98<756 781.5 755.5 783.5>
LayerCount: 2
Fore
SplineSet
344 769 m 0
 344 742 322 720 295 720 c 0
 267 720 246 742 246 770 c 0
 246 797 268 818 296 818 c 0
 321 818 344 794 344 769 c 0
384 653 m 1
 384 637 l 1
 328 630 319 621 302 560 c 2
 182 131 l 2
 173 99 167 75 167 55 c 0
 167 27 179 23 236 16 c 1
 236 0 l 1
 -8 0 l 1
 -8 16 l 1
 47 26 61 35 76 91 c 2
 196 532 l 2
 203 557 209 578 209 594 c 0
 209 619 193 634 137 637 c 1
 137 653 l 1
 384 653 l 1
EndSplineSet
EndChar

StartChar: dotlessi
Encoding: 305 305 240
Width: 278
Flags: MW
HStem: -11 47<82 148.5> 421 20<224 224>
VStem: 47 77<47 56 47 56>
LayerCount: 2
Fore
SplineSet
221 115 m 1
 235 103 l 1
 182 21 148 -11 97 -11 c 0
 67 -11 47 8 47 46 c 0
 47 66 55 96 71 156 c 2
 119 331 l 2
 124 350 128 368 128 376 c 0
 128 396 119 399 65 400 c 1
 65 416 l 1
 104 419 123 422 224 441 c 1
 229 438 l 1
 133 96 l 2
 128 77 124 61 124 51 c 0
 124 43 130 36 140 36 c 0
 157 36 178 58 221 115 c 1
EndSplineSet
EndChar

StartChar: uni0132
Encoding: 306 306 241
Width: 750
Flags: MW
HStem: -18 32<402 426 402 428.5> 0 20 633 20<137 384 384 384 529 783 783 783>
VStem: 286 93<43.5 57.5 39 86>
LayerCount: 2
Fore
SplineSet
783 653 m 1xb0
 783 637 l 1
 726 629 718 623 701 563 c 2
 598 196 l 2
 577 120 553 71 527 37 c 0
 498 -1 454 -18 403 -18 c 0
 333 -18 286 17 286 70 c 0
 286 102 304 126 331 126 c 0
 358 126 382 105 382 80 c 0
 382 68 379 62 379 53 c 0
 379 25 390 14 414 14 c 0
 438 14 456 38 467 78 c 2
 594 532 l 2
 602 561 606 581 606 596 c 0
 606 623 592 631 529 637 c 1
 529 653 l 1
 783 653 l 1xb0
384 653 m 1
 384 637 l 1
 328 630 319 621 302 560 c 2
 182 131 l 2
 173 99 167 75 167 55 c 0
 167 27 179 23 236 16 c 1
 236 0 l 1
 -8 0 l 1x70
 -8 16 l 1
 47 26 61 35 76 91 c 2
 196 532 l 2
 203 557 209 578 209 594 c 0
 209 619 193 634 137 637 c 1
 137 653 l 1
 384 653 l 1
EndSplineSet
EndChar

StartChar: uni0133
Encoding: 307 307 242
Width: 500
Flags: MW
HStem: -207 22<177 203 177 219.5> -11 47<81.5 146.5> 548 104<435 462.5 435 463> 634 20<200.5 227.5>
VStem: 49 75<46 54> 97 68<-176.5 -134> 396 104<584.5 612 584.5 615>
LayerCount: 2
Fore
SplineSet
500 598 m 0x26
 500 571 476 548 450 548 c 0
 420 548 396 569 396 600 c 0
 396 630 421 652 449 652 c 0
 476 652 500 626 500 598 c 0x26
264 599 m 0x16
 264 571 241 548 215 548 c 0xe6
 186 548 167 569 167 601 c 0
 167 632 187 654 214 654 c 0
 241 654 264 628 264 599 c 0x16
467 438 m 1
 363 28 l 2
 322 -134 263 -207 176 -207 c 0
 130 -207 97 -182 97 -146 c 0
 97 -122 115 -102 138 -102 c 0
 165 -102 177 -118 177 -139 c 0
 177 -161 165 -158 165 -173 c 0
 165 -180 171 -185 183 -185 c 0
 223 -185 246 -141 280 -3 c 2
 352 289 l 2
 364 338 368 359 368 369 c 0
 368 391 356 400 320 400 c 2
 294 400 l 1
 294 416 l 1
 326 418 379 426 463 441 c 1
 467 438 l 1
222 114 m 1
 235 103 l 1
 180 19 148 -11 98 -11 c 0
 65 -11 49 7 49 44 c 0
 49 64 56 99 71 155 c 2
 119 332 l 2
 124 350 128 368 128 376 c 0
 128 396 118 399 64 400 c 1
 64 416 l 1
 103 419 123 422 224 441 c 1
 228 438 l 1
 134 95 l 2
 129 78 124 65 124 51 c 0xe8
 124 41 130 36 138 36 c 0
 155 36 179 57 222 114 c 1
EndSplineSet
EndChar

StartChar: uni0134
Encoding: 308 308 243
Width: 444
Flags: MW
HStem: -18 32<110 134 110 136.5> 633 20<237 491 491 491>
VStem: -6 93<43.5 57.5 39 86>
LayerCount: 2
Fore
SplineSet
536 708 m 1
 500 708 l 1
 418 812 l 1
 281 708 l 1
 242 708 l 1
 399 877 l 1
 448 877 l 1
 536 708 l 1
491 653 m 1
 491 637 l 1
 434 629 426 623 409 563 c 2
 306 196 l 2
 285 120 261 71 235 37 c 0
 206 -1 162 -18 111 -18 c 0
 41 -18 -6 17 -6 70 c 0
 -6 102 12 126 39 126 c 0
 66 126 90 105 90 80 c 0
 90 68 87 62 87 53 c 0
 87 25 98 14 122 14 c 0
 146 14 164 38 175 78 c 2
 302 532 l 2
 310 561 314 581 314 596 c 0
 314 623 300 631 237 637 c 1
 237 653 l 1
 491 653 l 1
EndSplineSet
EndChar

StartChar: uni0135
Encoding: 309 309 244
Width: 278
Flags: MW
HStem: -207 22<-44 -18 -44 -1.5> 641 20<216 265 265 265>
VStem: -124 68<-176.5 -134>
LayerCount: 2
Fore
SplineSet
353 492 m 1
 317 492 l 1
 235 596 l 1
 98 492 l 1
 59 492 l 1
 216 661 l 1
 265 661 l 1
 353 492 l 1
246 438 m 1
 142 28 l 2
 101 -134 42 -207 -45 -207 c 0
 -91 -207 -124 -182 -124 -146 c 0
 -124 -122 -106 -102 -83 -102 c 0
 -56 -102 -44 -118 -44 -139 c 0
 -44 -161 -56 -158 -56 -173 c 0
 -56 -180 -50 -185 -38 -185 c 0
 2 -185 25 -141 59 -3 c 2
 131 289 l 2
 143 338 147 359 147 369 c 0
 147 391 135 400 99 400 c 2
 73 400 l 1
 73 416 l 1
 105 418 158 426 242 441 c 1
 246 438 l 1
EndSplineSet
EndChar

StartChar: uni0136
Encoding: 310 310 245
Width: 667
Flags: MW
HStem: 0 20 633 20<147 417 417 417 501 722 722 722>
VStem: 277 64<-174.5 -88>
LayerCount: 2
Fore
SplineSet
722 653 m 1
 722 637 l 1
 697 637 674 622 645 600 c 2
 347 375 l 1
 515 82 l 2
 546 28 556 22 619 16 c 1
 619 0 l 1
 344 0 l 1
 344 16 l 1
 373 19 l 2
 404 22 419 34 419 51 c 0
 419 72 400 101 382 133 c 2
 259 348 l 1
 194 111 l 2
 186 83 183 71 183 60 c 0
 183 29 199 21 254 16 c 1
 254 0 l 1
 7 0 l 1
 7 16 l 1
 67 23 73 34 88 87 c 2
 212 532 l 2
 219 557 226 578 226 594 c 0
 226 621 209 634 147 637 c 1
 147 653 l 1
 417 653 l 1
 417 637 l 1
 365 633 333 619 318 563 c 2
 265 369 l 1
 418 478 l 2
 507 541 561 591 561 615 c 0
 561 626 549 631 525 634 c 2
 501 637 l 1
 501 653 l 1
 722 653 l 1
211 -267 m 1
 202 -249 l 1
 255 -214 277 -188 277 -161 c 0
 277 -151 271 -144 256 -130 c 0
 237 -113 232 -102 232 -83 c 0
 232 -57 254 -37 283 -37 c 0
 316 -37 341 -68 341 -108 c 0
 341 -164 296 -220 211 -267 c 1
EndSplineSet
EndChar

StartChar: uni0137
Encoding: 311 311 246
Width: 444
Flags: MW
HStem: -11 52<303.5 361.5> 0 20
VStem: 151 64<-174.5 -88>
LayerCount: 2
Fore
SplineSet
461 428 m 1x60
 461 412 l 1
 414 409 383 389 236 258 c 1
 273 170 l 2
 312 78 335 41 354 41 c 0
 369 41 381 52 399 83 c 0
 404 91 409 100 414 109 c 1
 429 98 l 1
 383 14 358 -11 318 -11 c 0xa0
 289 -11 269 8 237 71 c 0
 219 106 193 168 177 212 c 1
 137 180 l 1
 89 0 l 1
 14 0 l 1
 155 528 l 2
 168 576 171 599 173 616 c 1
 171 634 156 640 122 640 c 2
 104 640 l 1
 104 656 l 1
 163 663 202 670 261 683 c 1
 267 677 l 1
 147 221 l 1
 190 254 l 2
 284 326 333 374 333 394 c 0
 333 405 321 412 296 412 c 2
 282 412 l 1
 282 428 l 1
 461 428 l 1x60
85 -267 m 1
 76 -249 l 1
 129 -214 151 -188 151 -161 c 0
 151 -151 145 -144 130 -130 c 0
 111 -113 106 -102 106 -83 c 0
 106 -57 128 -37 157 -37 c 0
 190 -37 215 -68 215 -108 c 0
 215 -164 170 -220 85 -267 c 1
EndSplineSet
EndChar

StartChar: uni0138
Encoding: 312 312 247
Width: 542
Flags: MW
HStem: 0 20 405 54
LayerCount: 2
Fore
SplineSet
243 276 m 1
 285 280 l 2
 309 282 335 294 354 308 c 0
 381 327 405 357 429 396 c 0
 460 446 474 459 529 459 c 0
 559 459 601 442 601 407 c 0
 601 381 575 366 552 366 c 0
 508 366 509 405 489 405 c 0
 472 405 463 395 452 375 c 0
 424 326 392 290 354 266 c 1
 364 262 369 260 380 244 c 0
 397 218 417 126 429 98 c 0
 448 52 496 25 536 15 c 1
 532 0 l 1
 402 0 l 1
 379 15 362 30 345 72 c 0
 330 110 325 144 312 188 c 0
 304 214 296 237 288 242 c 1
 268 241 250 240 234 240 c 1
 191 78 l 2
 188 68 187 58 187 51 c 0
 187 21 216 17 251 16 c 1
 246 0 l 1
 5 0 l 1
 10 16 l 1
 41 16 61 19 73 27 c 0
 85 34 96 51 103 77 c 2
 183 382 l 2
 186 393 187 402 187 410 c 0
 187 443 163 440 122 443 c 1
 126 459 l 1
 367 459 l 1
 363 443 l 1
 333 442 311 438 301 432 c 0
 287 424 278 407 271 381 c 2
 243 276 l 1
EndSplineSet
EndChar

StartChar: uni0139
Encoding: 313 313 248
Width: 556
Flags: MW
HStem: 0 36<236 327 236 501> 633 20<130 403 403 403>
LayerCount: 2
Fore
SplineSet
260 706 m 1
 422 866 l 2
 429 873 437 876 447 876 c 0
 467 876 483 860 483 840 c 0
 483 828 478 819 466 812 c 2
 295 706 l 1
 260 706 l 1
559 180 m 1
 501 0 l 1
 -8 0 l 1
 -8 16 l 1
 48 22 56 31 74 94 c 2
 196 532 l 2
 204 559 207 579 207 594 c 0
 207 623 192 633 130 637 c 1
 130 653 l 1
 403 653 l 1
 403 637 l 1
 343 633 318 617 302 560 c 2
 182 131 l 2
 176 108 172 91 172 77 c 0
 172 46 195 36 277 36 c 0
 377 36 408 41 457 74 c 0
 489 95 511 128 539 186 c 1
 559 180 l 1
EndSplineSet
EndChar

StartChar: uni013A
Encoding: 314 314 249
Width: 278
Flags: MW
HStem: -11 43<74 142.5>
VStem: 41 77<44 49>
LayerCount: 2
Fore
SplineSet
125 706 m 1
 287 866 l 2
 294 873 302 876 312 876 c 0
 332 876 348 860 348 840 c 0
 348 828 343 819 331 812 c 2
 160 706 l 1
 125 706 l 1
279 678 m 1
 126 93 l 2
 121 75 118 58 118 50 c 0
 118 38 125 32 135 32 c 0
 150 32 173 48 202 89 c 2
 227 124 l 1
 241 114 l 1
 181 19 144 -11 90 -11 c 0
 58 -11 41 8 41 45 c 0
 41 53 42 65 45 75 c 2
 182 599 l 2
 185 609 185 615 185 618 c 0
 185 630 168 640 136 640 c 2
 118 640 l 1
 118 656 l 1
 177 663 214 670 273 683 c 1
 279 678 l 1
EndSplineSet
EndChar

StartChar: uni013B
Encoding: 315 315 250
Width: 556
Flags: MW
HStem: 0 36<236 327 236 501> 633 20<130 403 403 403>
VStem: 226 64<-174.5 -88>
LayerCount: 2
Fore
SplineSet
559 180 m 1
 501 0 l 1
 -8 0 l 1
 -8 16 l 1
 48 22 56 31 74 94 c 2
 196 532 l 2
 204 559 207 579 207 594 c 0
 207 623 192 633 130 637 c 1
 130 653 l 1
 403 653 l 1
 403 637 l 1
 343 633 318 617 302 560 c 2
 182 131 l 2
 176 108 172 91 172 77 c 0
 172 46 195 36 277 36 c 0
 377 36 408 41 457 74 c 0
 489 95 511 128 539 186 c 1
 559 180 l 1
160 -267 m 1
 151 -249 l 1
 204 -214 226 -188 226 -161 c 0
 226 -151 220 -144 205 -130 c 0
 186 -113 181 -102 181 -83 c 0
 181 -57 203 -37 232 -37 c 0
 265 -37 290 -68 290 -108 c 0
 290 -164 245 -220 160 -267 c 1
EndSplineSet
EndChar

StartChar: uni013C
Encoding: 316 316 251
Width: 278
Flags: MW
HStem: -11 43<74 142.5>
VStem: 41 77<44 49> 82 64<-174.5 -88>
LayerCount: 2
Fore
SplineSet
279 678 m 1xc0
 126 93 l 2
 121 75 118 58 118 50 c 0
 118 38 125 32 135 32 c 0
 150 32 173 48 202 89 c 2
 227 124 l 1
 241 114 l 1
 181 19 144 -11 90 -11 c 0
 58 -11 41 8 41 45 c 0
 41 53 42 65 45 75 c 2
 182 599 l 2
 185 609 185 615 185 618 c 0
 185 630 168 640 136 640 c 2
 118 640 l 1
 118 656 l 1
 177 663 214 670 273 683 c 1
 279 678 l 1xc0
16 -267 m 1xa0
 7 -249 l 1
 60 -214 82 -188 82 -161 c 0
 82 -151 76 -144 61 -130 c 0
 42 -113 37 -102 37 -83 c 0
 37 -57 59 -37 88 -37 c 0
 121 -37 146 -68 146 -108 c 0
 146 -164 101 -220 16 -267 c 1xa0
EndSplineSet
EndChar

StartChar: uni013D
Encoding: 317 317 252
Width: 556
Flags: MW
HStem: 0 36<236 327 236 501> 633 20<130 403 403 403> 646 20<522.5 553.5>
VStem: 531 64<528 615>
LayerCount: 2
Fore
SplineSet
465 436 m 1xb0
 456 453 l 1
 508 488 531 515 531 541 c 0
 531 552 526 560 511 574 c 0
 492 591 486 601 486 620 c 0
 486 646 508 666 537 666 c 0
 570 666 595 635 595 595 c 0
 595 538 549 483 465 436 c 1xb0
559 180 m 1
 501 0 l 1
 -8 0 l 1
 -8 16 l 1
 48 22 56 31 74 94 c 2
 196 532 l 2
 204 559 207 579 207 594 c 0
 207 623 192 633 130 637 c 1
 130 653 l 1
 403 653 l 1xd0
 403 637 l 1
 343 633 318 617 302 560 c 2
 182 131 l 2
 176 108 172 91 172 77 c 0
 172 46 195 36 277 36 c 0
 377 36 408 41 457 74 c 0
 489 95 511 128 539 186 c 1
 559 180 l 1
EndSplineSet
EndChar

StartChar: uni013E
Encoding: 318 318 253
Width: 278
Flags: MW
HStem: -11 43<74 142.5>
VStem: 41 77<44 49> 384 64<555 642>
LayerCount: 2
Fore
SplineSet
318 463 m 1
 309 480 l 1
 361 515 384 542 384 568 c 0
 384 579 379 587 364 601 c 0
 345 618 339 628 339 647 c 0
 339 673 361 693 390 693 c 0
 423 693 448 662 448 622 c 0
 448 565 402 510 318 463 c 1
279 678 m 1
 126 93 l 2
 121 75 118 58 118 50 c 0
 118 38 125 32 135 32 c 0
 150 32 173 48 202 89 c 2
 227 124 l 1
 241 114 l 1
 181 19 144 -11 90 -11 c 0
 58 -11 41 8 41 45 c 0
 41 53 42 65 45 75 c 2
 182 599 l 2
 185 609 185 615 185 618 c 0
 185 630 168 640 136 640 c 2
 118 640 l 1
 118 656 l 1
 177 663 214 670 273 683 c 1
 279 678 l 1
EndSplineSet
EndChar

StartChar: uni013F
Encoding: 319 319 254
Width: 556
Flags: MW
HStem: 0 36<236 327 236 501> 283 111<388 417.5> 633 20<130 403 403 403>
VStem: 348 111<322.5 352.5 322 353>
LayerCount: 2
Fore
SplineSet
459 337 m 0
 459 307 433 283 402 283 c 0
 373 283 348 308 348 337 c 0
 348 369 373 394 403 394 c 0
 433 394 459 368 459 337 c 0
559 180 m 1
 501 0 l 1
 -8 0 l 1
 -8 16 l 1
 48 22 56 31 74 94 c 2
 196 532 l 2
 204 559 207 579 207 594 c 0
 207 623 192 633 130 637 c 1
 130 653 l 1
 403 653 l 1
 403 637 l 1
 343 633 318 617 302 560 c 2
 182 131 l 2
 176 108 172 91 172 77 c 0
 172 46 195 36 277 36 c 0
 377 36 408 41 457 74 c 0
 489 95 511 128 539 186 c 1
 559 180 l 1
EndSplineSet
EndChar

StartChar: uni0140
Encoding: 320 320 255
Width: 323
Flags: MW
HStem: -11 43<74 142.5> 283 111<315 344.5>
VStem: 41 77<44 49> 275 111<322.5 352.5 322 353>
LayerCount: 2
Fore
SplineSet
386 337 m 0
 386 307 360 283 329 283 c 0
 300 283 275 308 275 337 c 0
 275 369 300 394 330 394 c 0
 360 394 386 368 386 337 c 0
279 678 m 1
 126 93 l 2
 121 75 118 58 118 50 c 0
 118 38 125 32 135 32 c 0
 150 32 173 48 202 89 c 2
 227 124 l 1
 241 114 l 1
 181 19 144 -11 90 -11 c 0
 58 -11 41 8 41 45 c 0
 41 53 42 65 45 75 c 2
 182 599 l 2
 185 609 185 615 185 618 c 0
 185 630 168 640 136 640 c 2
 118 640 l 1
 118 656 l 1
 177 663 214 670 273 683 c 1
 279 678 l 1
EndSplineSet
EndChar

StartChar: Lslash
Encoding: 321 321 256
Width: 556
Flags: MW
HStem: 0 36<232.5 318.5 232.5 500> 633 20<129 402 402 402>
LayerCount: 2
Fore
SplineSet
559 180 m 1
 500 0 l 1
 -8 0 l 1
 -8 16 l 1
 48 23 59 36 75 93 c 2
 127 284 l 1
 28 225 l 1
 41 273 l 1
 140 332 l 1
 196 532 l 2
 204 559 207 579 207 594 c 0
 207 623 192 631 129 637 c 1
 129 653 l 1
 402 653 l 1
 402 637 l 1
 341 637 317 614 304 569 c 2
 253 388 l 1
 396 473 l 1
 382 424 l 1
 240 341 l 1
 186 146 l 2
 174 104 169 79 169 72 c 0
 169 46 198 36 267 36 c 0
 370 36 407 41 455 72 c 0
 488 93 510 126 539 186 c 1
 559 180 l 1
EndSplineSet
EndChar

StartChar: lslash
Encoding: 322 322 257
Width: 278
Flags: MW
HStem: -11 43<73.5 142>
VStem: 41 77<44.5 51>
LayerCount: 2
Fore
SplineSet
307 460 m 1
 295 414 l 1
 197 364 l 1
 125 89 l 2
 121 75 118 59 118 51 c 0
 118 38 123 32 133 32 c 0
 151 32 171 48 202 89 c 2
 228 123 l 1
 241 114 l 1
 176 17 142 -11 90 -11 c 0
 57 -11 41 8 41 45 c 0
 41 57 48 87 57 120 c 2
 109 314 l 1
 37 278 l 1
 49 324 l 1
 121 360 l 1
 169 539 186 607 186 616 c 0
 186 631 168 640 137 640 c 2
 117 640 l 1
 117 656 l 1
 176 663 214 670 273 683 c 1
 279 677 l 1
 209 410 l 1
 307 460 l 1
EndSplineSet
EndChar

StartChar: uni0143
Encoding: 323 323 258
Width: 667
Flags: MW
HStem: -15 20 0 20 633 20<117 277 277 277 529 727 727 727>
LayerCount: 2
Fore
SplineSet
361 706 m 1x60
 523 866 l 2
 530 873 538 876 548 876 c 0
 568 876 584 860 584 840 c 0
 584 828 579 819 567 812 c 2
 396 706 l 1
 361 706 l 1x60
727 653 m 1
 727 637 l 1
 664 623 662 621 625 492 c 2
 479 -15 l 1
 461 -15 l 1xa0
 231 535 l 1
 117 113 l 2
 111 92 108 72 108 59 c 0
 108 31 126 20 178 16 c 1
 178 0 l 1
 -20 0 l 1
 -20 16 l 1
 36 24 50 40 86 168 c 2
 203 583 l 1
 188 618 164 637 117 637 c 1
 117 653 l 1
 277 653 l 1
 484 154 l 1
 590 542 l 2
 596 563 598 574 598 586 c 0
 598 622 586 632 529 637 c 1
 529 653 l 1
 727 653 l 1
EndSplineSet
EndChar

StartChar: uni0144
Encoding: 324 324 259
Width: 500
Flags: MW
HStem: -9 47<321.5 385> 0 20 390 51 644 20<362 377>
VStem: 287 75<26 60> 361 81<355 398>
LayerCount: 2
Fore
SplineSet
180 494 m 1xb8
 342 654 l 2
 349 661 357 664 367 664 c 0
 387 664 403 648 403 628 c 0
 403 616 398 607 386 600 c 2
 215 494 l 1
 180 494 l 1xb8
460 117 m 1
 474 104 l 1
 406 11 381 -9 334 -9 c 0
 309 -9 287 7 287 45 c 0x88
 287 55 289 68 303 120 c 2
 347 282 l 2
 355 313 361 349 361 361 c 0
 361 379 352 390 337 390 c 0
 297 390 252 341 189 248 c 0
 144 181 136 158 89 0 c 1
 14 0 l 1x64
 110 350 l 2
 111 355 112 361 112 367 c 0
 112 387 98 393 47 394 c 1
 47 410 l 1
 128 426 156 430 209 441 c 1
 213 439 l 1
 146 221 l 1
 246 381 313 441 377 441 c 0
 420 441 442 416 442 380 c 0xb4
 442 362 438 341 432 320 c 2
 376 117 l 2
 366 81 362 64 362 56 c 0
 362 47 366 38 378 38 c 0
 392 38 410 54 439 91 c 0
 446 99 453 108 460 117 c 1
EndSplineSet
EndChar

StartChar: uni0145
Encoding: 325 325 260
Width: 667
Flags: MW
HStem: 0 20 633 20<117 277 277 277 529 727 727 727>
VStem: 248 64<-174.5 -88>
LayerCount: 2
Fore
SplineSet
727 653 m 1
 727 637 l 1
 664 623 662 621 625 492 c 2
 479 -15 l 1
 461 -15 l 1
 231 535 l 1
 117 113 l 2
 111 92 108 72 108 59 c 0
 108 31 126 20 178 16 c 1
 178 0 l 1
 -20 0 l 1
 -20 16 l 1
 36 24 50 40 86 168 c 2
 203 583 l 1
 188 618 164 637 117 637 c 1
 117 653 l 1
 277 653 l 1
 484 154 l 1
 590 542 l 2
 596 563 598 574 598 586 c 0
 598 622 586 632 529 637 c 1
 529 653 l 1
 727 653 l 1
182 -267 m 1
 173 -249 l 1
 226 -214 248 -188 248 -161 c 0
 248 -151 242 -144 227 -130 c 0
 208 -113 203 -102 203 -83 c 0
 203 -57 225 -37 254 -37 c 0
 287 -37 312 -68 312 -108 c 0
 312 -164 267 -220 182 -267 c 1
EndSplineSet
EndChar

StartChar: uni0146
Encoding: 326 326 261
Width: 500
Flags: MW
HStem: -9 47<321.5 385> 0 20 390 51
VStem: 173 64<-174.5 -88> 287 75<26 60> 361 81<355 398>
LayerCount: 2
Fore
SplineSet
460 117 m 1xa8
 474 104 l 1
 406 11 381 -9 334 -9 c 0
 309 -9 287 7 287 45 c 0x98
 287 55 289 68 303 120 c 2
 347 282 l 2
 355 313 361 349 361 361 c 0
 361 379 352 390 337 390 c 0
 297 390 252 341 189 248 c 0
 144 181 136 158 89 0 c 1
 14 0 l 1x64
 110 350 l 2
 111 355 112 361 112 367 c 0
 112 387 98 393 47 394 c 1
 47 410 l 1
 128 426 156 430 209 441 c 1
 213 439 l 1
 146 221 l 1
 246 381 313 441 377 441 c 0
 420 441 442 416 442 380 c 0xa4
 442 362 438 341 432 320 c 2
 376 117 l 2
 366 81 362 64 362 56 c 0
 362 47 366 38 378 38 c 0
 392 38 410 54 439 91 c 0
 446 99 453 108 460 117 c 1xa8
107 -267 m 1
 98 -249 l 1
 151 -214 173 -188 173 -161 c 0
 173 -151 167 -144 152 -130 c 0
 133 -113 128 -102 128 -83 c 0
 128 -57 150 -37 179 -37 c 0
 212 -37 237 -68 237 -108 c 0
 237 -164 192 -220 107 -267 c 1
EndSplineSet
EndChar

StartChar: uni0147
Encoding: 327 327 262
Width: 667
Flags: MW
HStem: -15 20 0 20 633 20<117 277 277 277 529 727 727 727>
LayerCount: 2
Fore
SplineSet
635 875 m 1x60
 473 706 l 1
 425 706 l 1
 330 875 l 1
 368 875 l 1
 457 770 l 1
 598 875 l 1
 635 875 l 1x60
727 653 m 1
 727 637 l 1
 664 623 662 621 625 492 c 2
 479 -15 l 1
 461 -15 l 1xa0
 231 535 l 1
 117 113 l 2
 111 92 108 72 108 59 c 0
 108 31 126 20 178 16 c 1
 178 0 l 1
 -20 0 l 1
 -20 16 l 1
 36 24 50 40 86 168 c 2
 203 583 l 1
 188 618 164 637 117 637 c 1
 117 653 l 1
 277 653 l 1
 484 154 l 1
 590 542 l 2
 596 563 598 574 598 586 c 0
 598 622 586 632 529 637 c 1
 529 653 l 1
 727 653 l 1
EndSplineSet
EndChar

StartChar: uni0148
Encoding: 328 328 263
Width: 500
Flags: MW
HStem: -9 47<321.5 385> 0 20 390 51 641 20<170 208 208 208 438 475 475 475>
VStem: 287 75<26 60> 361 81<355 398>
LayerCount: 2
Fore
SplineSet
475 661 m 1xb8
 313 492 l 1
 265 492 l 1
 170 661 l 1
 208 661 l 1
 297 556 l 1
 438 661 l 1
 475 661 l 1xb8
460 117 m 1
 474 104 l 1
 406 11 381 -9 334 -9 c 0
 309 -9 287 7 287 45 c 0x88
 287 55 289 68 303 120 c 2
 347 282 l 2
 355 313 361 349 361 361 c 0
 361 379 352 390 337 390 c 0
 297 390 252 341 189 248 c 0
 144 181 136 158 89 0 c 1
 14 0 l 1x64
 110 350 l 2
 111 355 112 361 112 367 c 0
 112 387 98 393 47 394 c 1
 47 410 l 1
 128 426 156 430 209 441 c 1
 213 439 l 1
 146 221 l 1
 246 381 313 441 377 441 c 0
 420 441 442 416 442 380 c 0xb4
 442 362 438 341 432 320 c 2
 376 117 l 2
 366 81 362 64 362 56 c 0
 362 47 366 38 378 38 c 0
 392 38 410 54 439 91 c 0
 446 99 453 108 460 117 c 1
EndSplineSet
EndChar

StartChar: uni0149
Encoding: 329 329 264
Width: 577
Flags: MW
HStem: -9 47<387.5 451> 0 20 390 51
VStem: 133 64<553 640> 353 75<26 60> 427 81<355 398>
LayerCount: 2
Fore
SplineSet
67 461 m 1xb8
 58 478 l 1
 110 513 133 540 133 566 c 0
 133 577 128 585 113 599 c 0
 94 616 88 626 88 645 c 0
 88 671 110 691 139 691 c 0
 172 691 197 660 197 620 c 0
 197 563 151 508 67 461 c 1xb8
526 117 m 1
 540 104 l 1
 472 11 447 -9 400 -9 c 0
 375 -9 353 7 353 45 c 0x88
 353 55 355 68 369 120 c 2
 413 282 l 2
 421 313 427 349 427 361 c 0
 427 379 418 390 403 390 c 0
 363 390 318 341 255 248 c 0
 210 181 202 158 155 0 c 1
 80 0 l 1x64
 176 350 l 2
 177 355 178 361 178 367 c 0
 178 387 164 393 113 394 c 1
 113 410 l 1
 194 426 222 430 275 441 c 1
 279 439 l 1
 212 221 l 1
 312 381 379 441 443 441 c 0
 486 441 508 416 508 380 c 0xa4
 508 362 504 341 498 320 c 2
 442 117 l 2
 432 81 428 64 428 56 c 0
 428 47 432 38 444 38 c 0
 458 38 476 54 505 91 c 0
 512 99 519 108 526 117 c 1
EndSplineSet
EndChar

StartChar: uni014A
Encoding: 330 330 265
Width: 722
Flags: MW
HStem: -18 37<390 413 390 480> 0 20 620 46<489 520> 633 20<131 329 329 329>
LayerCount: 2
Fore
SplineSet
329 653 m 1x50
 295 533 l 1
 378 637 451 666 527 666 c 0
 643 666 700 569 700 447 c 0
 700 268 609 -18 351 -18 c 0
 297 -18 264 14 264 56 c 0
 264 104 298 141 343 141 c 0
 374 141 396 110 396 84 c 0
 396 68 382 47 382 37 c 0
 382 25 386 19 394 19 c 0
 432 19 589 70 589 407 c 0
 589 555 553 620 487 620 c 0xa0
 425 620 356 572 268 433 c 1
 178 111 l 2
 172 91 167 69 167 57 c 0
 167 34 179 16 222 16 c 2
 236 16 l 1
 236 0 l 1
 -8 0 l 1
 -8 16 l 1
 48 26 58 33 74 92 c 2
 197 538 l 2
 205 568 207 589 207 597 c 0
 207 622 193 637 137 637 c 2
 131 637 l 1
 131 653 l 1
 329 653 l 1x50
EndSplineSet
EndChar

StartChar: uni014B
Encoding: 331 331 266
Width: 500
Flags: MW
HStem: -208 22<169 195 169 211.5> 0 20 390 51
VStem: 89 68<-176.5 -134> 361 81<371 372>
LayerCount: 2
Fore
SplineSet
213 439 m 1
 146 221 l 1
 246 381 313 441 377 441 c 0
 420 441 442 416 442 380 c 0
 442 362 438 341 432 320 c 2
 355 28 l 2
 312 -135 255 -208 168 -208 c 0
 122 -208 89 -182 89 -146 c 0
 89 -122 107 -102 130 -102 c 0
 157 -102 169 -118 169 -139 c 0
 169 -161 157 -158 157 -173 c 0
 157 -180 163 -186 175 -186 c 0
 215 -186 238 -140 272 -3 c 2
 344 290 l 2
 348 306 361 347 361 361 c 0
 361 383 352 390 337 390 c 0
 297 390 252 341 189 248 c 0
 144 181 135 157 89 0 c 1
 14 0 l 1
 110 350 l 2
 112 355 112 361 112 367 c 0
 112 387 98 393 47 394 c 1
 47 410 l 1
 128 426 156 430 209 441 c 1
 213 439 l 1
EndSplineSet
EndChar

StartChar: uni014C
Encoding: 332 332 267
Width: 722
Flags: MW
HStem: -18 33<253 315> 633 33<431.5 474 431.5 505> 706 51<365 655 354 666>
LayerCount: 2
Fore
SplineSet
666 757 m 1
 655 706 l 1
 354 706 l 1
 365 757 l 1
 666 757 l 1
699 418 m 0
 699 272 611 133 492 53 c 0
 427 9 352 -18 278 -18 c 0
 148 -18 60 67 60 216 c 0
 60 338 133 478 237 569 c 0
 306 629 389 666 474 666 c 0
 618 667 699 570 699 418 c 0
594 481 m 0
 594 575 545 633 465 633 c 0
 391 633 328 582 279 516 c 0
 206 417 165 284 165 184 c 0
 165 75 211 15 295 15 c 0
 362 15 419 54 465 110 c 0
 549 214 594 379 594 481 c 0
EndSplineSet
EndChar

StartChar: uni014D
Encoding: 333 333 268
Width: 500
Flags: MW
HStem: -11 21<165.5 207> 420 21<306.5 334.5> 492 51<210 500 199 511>
VStem: 27 84<84.5 140.5 71 184> 384 84<288 345 263 356.5>
LayerCount: 2
Fore
SplineSet
511 543 m 1
 500 492 l 1
 199 492 l 1
 210 543 l 1
 511 543 l 1
468 301 m 0
 468 225 428 137 362 72 c 0
 304 14 240 -11 174 -11 c 0
 80 -11 27 41 27 128 c 0
 27 240 102 355 207 411 c 0
 246 432 286 441 327 441 c 0
 408 441 468 389 468 301 c 0
384 326 m 0
 384 387 356 420 313 420 c 0
 269 420 225 389 185 329 c 0
 139 259 111 180 111 101 c 0
 111 41 142 10 189 10 c 0
 233 10 271 39 310 93 c 0
 356 156 384 250 384 326 c 0
EndSplineSet
EndChar

StartChar: uni014E
Encoding: 334 334 269
Width: 722
Flags: MW
HStem: -18 33<253 315> 633 33<431.5 474 431.5 505> 708 59<510 574.5 510 579.5>
LayerCount: 2
Fore
SplineSet
680 866 m 1
 709 866 l 1
 695 778 623 708 536 708 c 0
 445 708 408 763 408 866 c 1
 437 866 l 1
 442 803 476 767 544 767 c 0
 605 767 658 804 680 866 c 1
699 418 m 0
 699 272 611 133 492 53 c 0
 427 9 352 -18 278 -18 c 0
 148 -18 60 67 60 216 c 0
 60 338 133 478 237 569 c 0
 306 629 389 666 474 666 c 0
 618 667 699 570 699 418 c 0
594 481 m 0
 594 575 545 633 465 633 c 0
 391 633 328 582 279 516 c 0
 206 417 165 284 165 184 c 0
 165 75 211 15 295 15 c 0
 362 15 419 54 465 110 c 0
 549 214 594 379 594 481 c 0
EndSplineSet
EndChar

StartChar: uni014F
Encoding: 335 335 270
Width: 500
Flags: MW
HStem: -11 21<165.5 207> 420 21<306.5 334.5> 492 59<334 398.5 334 403.5>
VStem: 27 84<84.5 140.5 71 184> 384 84<288 345 263 356.5>
LayerCount: 2
Fore
SplineSet
504 650 m 1
 533 650 l 1
 519 562 447 492 360 492 c 0
 269 492 232 547 232 650 c 1
 261 650 l 1
 266 587 300 551 368 551 c 0
 429 551 482 588 504 650 c 1
468 301 m 0
 468 225 428 137 362 72 c 0
 304 14 240 -11 174 -11 c 0
 80 -11 27 41 27 128 c 0
 27 240 102 355 207 411 c 0
 246 432 286 441 327 441 c 0
 408 441 468 389 468 301 c 0
384 326 m 0
 384 387 356 420 313 420 c 0
 269 420 225 389 185 329 c 0
 139 259 111 180 111 101 c 0
 111 41 142 10 189 10 c 0
 233 10 271 39 310 93 c 0
 356 156 384 250 384 326 c 0
EndSplineSet
EndChar

StartChar: uni0150
Encoding: 336 336 271
Width: 722
Flags: MW
HStem: -18 33<253 315> 633 33<431.5 474 431.5 505>
LayerCount: 2
Fore
SplineSet
497 706 m 1
 657 866 l 2
 664 873 674 876 684 876 c 0
 704 876 720 860 720 840 c 0
 720 828 715 817 703 810 c 2
 532 706 l 1
 497 706 l 1
327 706 m 1
 487 866 l 2
 494 873 504 876 514 876 c 0
 534 876 550 860 550 840 c 0
 550 828 545 817 533 810 c 2
 364 706 l 1
 327 706 l 1
699 418 m 0
 699 272 611 133 492 53 c 0
 427 9 352 -18 278 -18 c 0
 148 -18 60 67 60 216 c 0
 60 338 133 478 237 569 c 0
 306 629 389 666 474 666 c 0
 618 667 699 570 699 418 c 0
594 481 m 0
 594 575 545 633 465 633 c 0
 391 633 328 582 279 516 c 0
 206 417 165 284 165 184 c 0
 165 75 211 15 295 15 c 0
 362 15 419 54 465 110 c 0
 549 214 594 379 594 481 c 0
EndSplineSet
EndChar

StartChar: uni0151
Encoding: 337 337 272
Width: 500
Flags: MW
HStem: -11 21<165.5 207> 420 21<306.5 334.5> 644 20<330 345 500 515>
VStem: 27 84<84.5 140.5 71 184> 384 84<288 345 263 356.5>
LayerCount: 2
Fore
SplineSet
318 494 m 1
 478 654 l 2
 485 661 495 664 505 664 c 0
 525 664 541 648 541 628 c 0
 541 616 536 605 524 598 c 2
 353 494 l 1
 318 494 l 1
148 494 m 1
 308 654 l 2
 315 661 325 664 335 664 c 0
 355 664 371 648 371 628 c 0
 371 616 366 605 354 598 c 2
 185 494 l 1
 148 494 l 1
468 301 m 0
 468 225 428 137 362 72 c 0
 304 14 240 -11 174 -11 c 0
 80 -11 27 41 27 128 c 0
 27 240 102 355 207 411 c 0
 246 432 286 441 327 441 c 0
 408 441 468 389 468 301 c 0
384 326 m 0
 384 387 356 420 313 420 c 0
 269 420 225 389 185 329 c 0
 139 259 111 180 111 101 c 0
 111 41 142 10 189 10 c 0
 233 10 271 39 310 93 c 0
 356 156 384 250 384 326 c 0
EndSplineSet
EndChar

